<?xml version="1.0" encoding="iso-8859-1"?>
<!-- Generator: Adobe Illustrator 16.0.0, SVG Export Plug-In . SVG Version: 6.00 Build 0)  -->
<!DOCTYPE svg PUBLIC "-//W3C//DTD SVG 1.1//EN" "http://www.w3.org/Graphics/SVG/1.1/DTD/svg11.dtd">
<svg version="1.1" id="Capa_1" xmlns="http://www.w3.org/2000/svg" xmlns:xlink="http://www.w3.org/1999/xlink" x="0px" y="0px"
	 width="68.25px" height="68.25px" viewBox="0 0 68.25 68.25" style="enable-background:new 0 0 68.25 68.25;" xml:space="preserve"
	>
<g>
	<g>
		<path d="M67.25,25.917h-3.5v-4.75c0-2.522-6.543-4.506-12.033-5.727c-0.172-0.037-0.338-0.015-0.496,0.033
			C48.757,8.465,42.09,3.417,34.25,3.417c-7.922,0-14.651,5.151-17.051,12.274c-0.134-0.027-0.274-0.032-0.416-0.001
			c-5.49,1.221-12.033,3.204-12.033,5.727v4.5H1c-0.552,0-1,0.447-1,1v36.917c0,0.554,0.448,1,1,1h66.25c0.553,0,1-0.446,1-1V26.917
			C68.25,26.366,67.803,25.917,67.25,25.917z M61.75,21.167v37.64c-4.533-2.143-18.305-7.828-26.5-2.258V39.368
			c9.459-0.523,17-8.362,17-17.949c0-1.341-0.158-2.644-0.438-3.901C56.79,18.668,61.372,20.377,61.75,21.167z M34.25,5.417
			c8.822,0,16,7.178,16,16c0,8.822-7.178,16-16,16c-8.822,0-16-7.178-16-16C18.25,12.596,25.428,5.417,34.25,5.417z M16.62,17.783
			c-0.242,1.175-0.37,2.391-0.37,3.636c0,9.587,7.541,17.426,17,17.949v17.432c-8.198-5.57-21.968,0.116-26.5,2.258L6.738,26.979
			c0.001-0.021,0.012-0.039,0.012-0.061s-0.011-0.039-0.012-0.061l-0.002-5.352C7.125,20.635,11.668,18.936,16.62,17.783z
			 M5.235,61.526c0.158,0.095,0.336,0.143,0.515,0.143c0.161,0,0.322-0.039,0.469-0.117c0.191-0.102,19.189-10.061,27.324-1.926
			c0.287,0.286,0.716,0.373,1.09,0.217c0.302-0.125,0.511-0.39,0.583-0.699c8.26-7.68,26.875,2.059,27.064,2.158
			c0.147,0.078,0.308,0.117,0.469,0.117c0.179,0,0.356-0.048,0.515-0.143c0.301-0.182,0.485-0.508,0.485-0.857v-32.5h2.5v34.917H2
			V27.917h2.75v32.75C4.75,61.018,4.934,61.344,5.235,61.526z"/>
		<path d="M30.572,29.667h9.037c1.104,0,1.908-0.322,1.908-1.518c0-1.196-0.805-1.518-1.908-1.518h-7.474v-4.001h6.393
			c0.989,0,1.771-0.275,1.771-1.448s-0.781-1.448-1.771-1.448h-6.393v-3.588h7.291c1.104,0,1.907-0.321,1.907-1.518
			c0-1.195-0.805-1.518-1.907-1.518h-8.854c-1.333,0-2.207,0.529-2.207,2.208V27.46C28.365,29.139,29.239,29.667,30.572,29.667z"/>
	</g>
</g>
<g>
</g>
<g>
</g>
<g>
</g>
<g>
</g>
<g>
</g>
<g>
</g>
<g>
</g>
<g>
</g>
<g>
</g>
<g>
</g>
<g>
</g>
<g>
</g>
<g>
</g>
<g>
</g>
<g>
</g>
</svg>
