<svg width="66" height="66" viewBox="0 0 66 66" fill="none" xmlns="http://www.w3.org/2000/svg">
<path d="M16.9514 60.8438H7.82392C6.72332 60.8438 6.05932 60.2295 5.76155 59.8633C5.24747 59.2309 5.04831 58.4079 5.2155 57.605C7.89275 44.7452 19.2417 35.3537 32.3432 35.049C32.5614 35.0571 32.7802 35.0625 33.0002 35.0625C33.2222 35.0625 33.4429 35.057 33.663 35.0487C36.8668 35.1218 39.9961 35.7242 42.9747 36.8427C44.3076 37.3435 45.794 36.6684 46.2946 35.3354C46.7951 34.0025 46.1203 32.5161 44.7873 32.0155C44.3605 31.8552 43.9307 31.7051 43.4988 31.5628C47.7658 28.3621 50.5315 23.2636 50.5315 17.5312C50.5315 7.86457 42.667 0 33.0002 0C23.3334 0 15.469 7.86457 15.469 17.5312C15.469 23.2687 18.2394 28.3712 22.5128 31.5715C18.5978 32.8603 14.9239 34.8645 11.7088 37.5091C5.81363 42.3582 1.71479 49.1218 0.167531 56.5541C-0.317415 58.883 0.263437 61.2749 1.7612 63.1165C3.25135 64.949 5.46119 66 7.82392 66H16.9514C18.3753 66 19.5295 64.8458 19.5295 63.4219C19.5295 61.998 18.3753 60.8438 16.9514 60.8438ZM20.6252 17.5312C20.6252 10.7076 26.1766 5.15625 33.0002 5.15625C39.8239 5.15625 45.3752 10.7076 45.3752 17.5312C45.3752 24.1528 40.1475 29.576 33.6027 29.8914C33.402 29.8878 33.2013 29.8847 33.0002 29.8847C32.7986 29.8847 32.5971 29.8877 32.3958 29.8913C25.8518 29.575 20.6252 24.1521 20.6252 17.5312Z" fill="#FF9642"/>
<path d="M64.0263 44.422C62.9228 41.9534 60.4369 40.354 57.6872 40.3477H49.6471C49.6413 40.3477 49.6359 40.3477 49.6299 40.3477C46.7295 40.3477 44.1991 42.057 43.1809 44.7056C43.0454 45.058 42.8798 45.502 42.7069 46.0195H25.8271C25.1301 46.0195 24.4629 46.3017 23.9773 46.8017L19.5486 51.3635C18.5732 52.3682 18.5781 53.9678 19.5596 54.9664L24.0713 59.557C24.556 60.0502 25.2186 60.328 25.91 60.328H34.2889C35.7128 60.328 36.8671 59.1738 36.8671 57.7499C36.8671 56.326 35.7128 55.1717 34.2889 55.1717H26.991L25.0023 53.1482L26.9174 51.1758H44.6409C45.8286 51.1758 46.8626 50.3643 47.145 49.2107C47.3536 48.3591 47.6153 47.5402 47.9937 46.5558C48.2433 45.9066 48.87 45.5039 49.6361 45.5039C49.6378 45.5039 49.6395 45.5039 49.6412 45.5039H57.6812C58.4103 45.5056 59.0378 45.8975 59.3189 46.5264C60.011 48.0748 60.8374 50.472 60.8436 53.0988C60.8498 55.7451 60.0243 58.1972 59.3304 59.7883C59.0507 60.43 58.4179 60.8438 57.7113 60.8438C57.7099 60.8438 57.7085 60.8438 57.7071 60.8438H49.5699C48.8566 60.8421 48.1885 60.3832 47.9075 59.7019C47.606 58.9709 47.3447 58.1362 47.1087 57.1499C46.7772 55.7652 45.3856 54.9114 44.0014 55.2426C42.6165 55.5741 41.7627 56.9653 42.0941 58.3501C42.3933 59.6003 42.7358 60.6856 43.1409 61.6678C44.2236 64.2929 46.7424 65.9933 49.5639 65.9999H57.7011C57.7067 65.9999 57.7118 65.9999 57.7174 65.9999C60.4697 65.9997 62.957 64.3718 64.057 61.849C64.948 59.8057 66.0083 56.6268 65.9999 53.0866C65.9916 49.5559 64.9221 46.426 64.0263 44.422Z" fill="#FF9642"/>
<path d="M55.5586 55.6875C56.9825 55.6875 58.1367 54.5332 58.1367 53.1094C58.1367 51.6855 56.9825 50.5312 55.5586 50.5312C54.1347 50.5312 52.9805 51.6855 52.9805 53.1094C52.9805 54.5332 54.1347 55.6875 55.5586 55.6875Z" fill="#FF9642"/>
</svg>
