<svg width="1440" height="1024" viewBox="0 0 1440 1024" fill="none" xmlns="http://www.w3.org/2000/svg">
<rect width="1440" height="1024" fill="white"/>
<path d="M0 518.5L1440 1024H0V518.5Z" fill="#FF9642" fill-opacity="0.16"/>
<path d="M0 0H1440L0 780V0Z" fill="#B9FFFC" fill-opacity="0.16"/>
<g opacity="0.45" clip-path="url(#clip0)">
<path d="M1147.55 491.356H1145.41V432.857C1145.41 428.411 1144.54 424.008 1142.84 419.901C1141.14 415.793 1138.65 412.061 1135.51 408.917C1132.37 405.773 1128.64 403.279 1124.54 401.577C1120.44 399.876 1116.04 399 1111.6 399H987.815C983.375 399 978.977 399.876 974.875 401.577C970.772 403.279 967.044 405.773 963.904 408.917C960.764 412.06 958.273 415.793 956.574 419.901C954.875 424.008 954 428.411 954 432.857V753.785C954 762.764 957.563 771.376 963.904 777.725C970.246 784.075 978.847 787.642 987.815 787.642H1111.6C1120.57 787.642 1129.17 784.075 1135.51 777.725C1141.85 771.376 1145.41 762.764 1145.41 753.785V532.996H1147.55L1147.55 491.356Z" fill="#3F3D56"/>
<path d="M1112.96 407.809H1096.8C1097.55 409.633 1097.83 411.612 1097.63 413.571C1097.43 415.531 1096.75 417.411 1095.65 419.046C1094.56 420.681 1093.07 422.02 1091.34 422.947C1089.6 423.873 1087.66 424.358 1085.7 424.358H1014.78C1012.82 424.358 1010.88 423.873 1009.14 422.947C1007.41 422.021 1005.92 420.681 1004.83 419.046C1003.73 417.411 1003.05 415.531 1002.85 413.571C1002.65 411.612 1002.93 409.633 1003.67 407.809H988.584C981.886 407.809 975.463 410.472 970.727 415.214C965.991 419.956 963.331 426.387 963.331 433.093V753.549C963.331 756.87 963.984 760.158 965.253 763.225C966.522 766.293 968.382 769.08 970.727 771.428C973.072 773.776 975.856 775.638 978.92 776.909C981.983 778.18 985.267 778.834 988.584 778.834H1112.96C1116.28 778.834 1119.56 778.18 1122.63 776.909C1125.69 775.638 1128.47 773.776 1130.82 771.428C1133.16 769.08 1135.02 766.293 1136.29 763.225C1137.56 760.158 1138.22 756.87 1138.22 753.549V753.549V433.093C1138.22 429.772 1137.56 426.485 1136.29 423.417C1135.02 420.349 1133.16 417.562 1130.82 415.214C1128.47 412.866 1125.69 411.004 1122.63 409.733C1119.56 408.463 1116.28 407.809 1112.96 407.809V407.809Z" fill="white"/>
<path d="M1122.39 470.818H979.153V715.824H1122.39V470.818Z" fill="#E6E6E6"/>
<path d="M1356.81 683.74L1357.89 721.576L1369.4 765.897C1369.4 765.897 1366.88 773.464 1368.68 775.266C1370.48 777.067 1378.76 780.31 1378.76 780.31L1371.92 685.902L1356.81 683.74Z" fill="#E6E6E6"/>
<path d="M1381.81 775.081C1381.81 775.081 1385.92 784.128 1380.17 784.95C1374.42 785.772 1347.86 787.965 1349.5 783.305C1351.14 778.645 1371.13 774.259 1371.13 774.259L1381.81 775.081Z" fill="#2F2E41"/>
<path d="M1397.11 650.229C1397.11 650.229 1392.79 673.651 1389.92 677.614C1387.04 681.578 1391.36 710.405 1391.36 710.405C1391.36 710.405 1397.83 751.844 1394.95 758.33C1392.07 764.816 1392.79 762.654 1393.15 766.257C1393.51 769.861 1394.23 772.743 1393.15 775.986C1392.07 779.229 1392.07 778.869 1391.72 780.671C1391.36 782.472 1391.72 792.201 1391.72 792.201C1391.72 792.201 1376.24 797.606 1373.72 789.679C1373.72 789.679 1377.32 784.634 1376.24 780.671C1375.11 776.682 1374.51 772.564 1374.44 768.419V760.852L1357.89 698.874L1353.93 676.533C1353.93 676.533 1355.01 653.832 1358.97 651.67C1362.92 649.508 1397.11 650.229 1397.11 650.229Z" fill="#E6E6E6"/>
<path d="M1390.64 790.4C1390.64 790.4 1396.03 802.291 1388.48 803.372C1380.92 804.453 1346.01 807.336 1348.17 801.21C1350.33 795.084 1376.6 789.319 1376.6 789.319L1390.64 790.4Z" fill="#2F2E41"/>
<path d="M1383.79 546.467C1391.74 546.467 1398.19 540.014 1398.19 532.053C1398.19 524.093 1391.74 517.64 1383.79 517.64C1375.84 517.64 1369.4 524.093 1369.4 532.053C1369.4 540.014 1375.84 546.467 1383.79 546.467Z" fill="#FFB9B9"/>
<path d="M1393.91 538.423L1393.64 556.83L1375.99 556.889C1375.99 556.889 1380.47 542.48 1378.47 539.467C1376.46 536.454 1393.91 538.423 1393.91 538.423Z" fill="#FFB9B9"/>
<path d="M1367.6 566.991C1367.6 566.991 1380.2 550.776 1389.92 557.622C1399.63 564.469 1403.23 580.684 1403.23 580.684L1401.07 626.086C1401.07 626.086 1396.03 649.148 1397.11 650.229C1398.19 651.31 1396.03 652.031 1396.03 652.031L1357.89 653.112C1357.89 653.112 1358.97 651.67 1355.73 647.346C1352.49 643.022 1356.45 637.257 1355.73 635.095C1355.01 632.933 1367.6 566.991 1367.6 566.991Z" fill="#3F3D56"/>
<path d="M1371.2 659.958C1371.2 659.958 1370.48 668.966 1365.08 670.408C1363.06 670.948 1361.54 669.918 1360.43 668.419C1359.4 666.982 1358.82 665.268 1358.77 663.498C1358.72 661.728 1359.2 659.984 1360.15 658.491L1361.48 656.354L1371.2 659.958Z" fill="#FFB9B9"/>
<path d="M1404.49 548.794C1404.49 548.794 1404.85 556.001 1404.49 557.082C1404.13 558.163 1403.77 559.244 1404.49 560.325C1405.21 561.406 1404.85 565.009 1404.13 565.369C1403.41 565.73 1405.57 568.973 1404.85 571.135C1404.13 573.297 1403.41 574.018 1403.05 574.738C1402.69 575.459 1402.11 576.75 1402.11 576.75C1402.11 576.75 1391.53 554.199 1382.9 559.604C1374.26 565.009 1367.42 566.811 1367.42 566.811C1367.42 566.811 1372.1 541.587 1404.49 548.794Z" fill="#3F3D56"/>
<path d="M1388.84 565.55C1388.84 565.55 1400.35 566.631 1399.63 581.765C1398.91 596.899 1400.71 620.681 1400.71 620.681C1400.71 620.681 1380.92 650.949 1377.68 653.111C1374.44 655.273 1374.08 654.913 1374.44 656.715C1374.8 658.517 1375.16 659.958 1373.72 661.399C1372.87 662.256 1371.9 662.984 1370.84 663.561C1370.84 663.561 1359.33 659.598 1360.4 655.994C1361.48 652.391 1366.52 646.625 1366.52 646.625C1366.52 646.625 1375.16 632.572 1375.52 630.41C1375.88 628.248 1375.88 628.609 1376.96 627.528C1378.04 626.447 1380.92 622.123 1380.92 619.961V613.114L1377.9 576.527C1377.76 575.037 1377.94 573.534 1378.43 572.119C1378.91 570.703 1379.69 569.406 1380.71 568.313C1382.42 566.518 1385.01 565.09 1388.84 565.55Z" fill="#3F3D56"/>
<path d="M1374.51 520.938C1373.57 521.198 1372.58 521.221 1371.63 521.003C1370.69 520.786 1369.81 520.335 1369.07 519.692C1367.67 518.354 1367.19 516.035 1368.2 514.37C1369.06 512.933 1370.74 512.23 1372.34 511.73C1375.87 510.629 1379.54 510.068 1383.24 510.065C1385 510.065 1386.84 510.215 1388.35 511.128C1389.1 511.58 1389.73 512.2 1390.47 512.666C1391.82 513.521 1393.45 513.806 1394.94 514.4C1396.46 515.02 1397.84 515.96 1398.96 517.156C1400.09 518.353 1400.95 519.778 1401.48 521.336C1401.82 522.392 1402.04 523.486 1402.12 524.593C1402.36 527.627 1401.83 530.673 1400.56 533.441C1398.55 537.825 1394.73 541.511 1394.19 546.304C1392.13 544.575 1391.53 541.674 1389.94 539.509C1388.75 537.908 1387.06 536.757 1385.13 536.244C1384.6 536.173 1384.09 535.947 1383.68 535.593C1383.4 535.21 1383.24 534.753 1383.22 534.281L1382.24 527.16C1382.04 525.711 1381.76 524.127 1380.65 523.177C1379.96 522.657 1379.15 522.307 1378.29 522.152C1376.27 521.649 1374.21 521.313 1372.14 521.147" fill="#2F2E41"/>
<path opacity="0.1" d="M1398.96 625.829L1378.76 652.079C1378.76 652.079 1397.36 636.509 1398.96 625.829Z" fill="black"/>
<path opacity="0.1" d="M1379.57 596.765L1379.76 621.556L1368.03 639.179L1377.63 619.42L1379.57 596.765Z" fill="black"/>
<path d="M1221.78 465.857C1227.05 492.451 1228.55 519.655 1226.23 546.668C1225.63 553.702 1224.76 560.706 1223.63 567.68C1223.11 570.851 1222.52 574.006 1221.92 577.161C1221.58 578.969 1220.85 581.219 1221.99 582.921C1224.2 586.235 1231.78 585.37 1235.11 585.478C1242.06 585.703 1249.02 585.741 1255.97 585.863L1276.87 586.228L1286.94 586.404C1290.37 586.464 1294.12 586.996 1297.53 586.557C1302.01 585.979 1300.91 581.283 1300.85 577.794C1300.71 570.898 1300.53 564.002 1300.3 557.107C1299.37 529.786 1297.67 502.506 1295.19 475.266C1294.88 471.791 1295.08 467.634 1294.14 464.274C1293.76 462.915 1293.39 462.523 1291.91 462.279C1288.54 461.72 1284.52 462.308 1281.1 462.332L1269.68 462.411L1223.25 462.735C1222.94 462.746 1222.66 462.873 1222.45 463.091C1222.24 463.308 1222.12 463.599 1222.12 463.902C1222.12 464.205 1222.24 464.496 1222.45 464.713C1222.66 464.931 1222.94 465.059 1223.25 465.069L1261.31 464.804L1278.06 464.687L1287.19 464.624C1289.07 464.61 1290.82 464.041 1292 466.11C1292.75 467.418 1292.44 470.691 1292.58 472.214C1294.86 496.634 1296.51 521.103 1297.53 545.619C1297.79 551.745 1298 557.873 1298.18 564.002C1298.26 566.556 1298.32 569.11 1298.38 571.664C1298.42 573.197 1298.45 574.729 1298.49 576.262C1298.52 577.843 1299.17 580.941 1298.6 582.392C1297.38 585.489 1291.93 584.157 1289.26 584.11L1279.97 583.948L1261.39 583.623L1242.8 583.299C1239.73 583.245 1236.66 583.221 1233.58 583.09C1232.57 583.047 1231.55 582.998 1230.53 582.925C1227.5 582.709 1224.24 583.426 1223.88 579.235C1223.66 576.648 1225.07 573.081 1225.51 570.493C1226.01 567.571 1226.46 564.642 1226.87 561.706C1227.63 556.219 1228.24 550.714 1228.69 545.191C1230.82 518.452 1229.25 491.546 1224.02 465.237C1223.73 463.765 1221.49 464.388 1221.78 465.857L1221.78 465.857Z" fill="#6C63FF"/>
<path d="M1232.49 471.865H1247.91C1248.22 471.854 1248.5 471.727 1248.71 471.509C1248.92 471.291 1249.04 471 1249.04 470.698C1249.04 470.395 1248.92 470.104 1248.71 469.886C1248.5 469.669 1248.22 469.541 1247.91 469.531H1232.49C1232.19 469.541 1231.91 469.669 1231.7 469.886C1231.49 470.104 1231.37 470.395 1231.37 470.698C1231.37 471 1231.49 471.291 1231.7 471.509C1231.91 471.727 1232.19 471.854 1232.49 471.865Z" fill="#6C63FF"/>
<path d="M1232.49 477.13L1247.03 476.58C1248.52 476.524 1248.53 474.189 1247.03 474.246L1232.49 474.796C1231 474.853 1230.99 477.187 1232.49 477.13Z" fill="#6C63FF"/>
<path d="M1232.49 481.569H1246.59C1246.89 481.558 1247.18 481.431 1247.39 481.213C1247.6 480.995 1247.72 480.704 1247.72 480.402C1247.72 480.099 1247.6 479.808 1247.39 479.59C1247.18 479.373 1246.89 479.245 1246.59 479.235H1232.49C1232.19 479.245 1231.91 479.373 1231.7 479.59C1231.49 479.808 1231.37 480.099 1231.37 480.402C1231.37 480.704 1231.49 480.995 1231.7 481.213C1231.91 481.431 1232.19 481.558 1232.49 481.569V481.569Z" fill="#6C63FF"/>
<path d="M1279.21 470.769C1276.05 469.116 1273.17 471.834 1272.73 474.94C1272.51 476.458 1272.46 478.534 1273.43 479.824C1274.42 481.141 1276.31 481.694 1277.89 481.791C1280.9 481.977 1284.1 480.296 1284.84 477.211C1285.19 475.841 1285.02 474.391 1284.36 473.139C1283.71 471.888 1282.61 470.924 1281.29 470.434C1279.87 469.941 1279.26 472.195 1280.67 472.684C1281.32 472.957 1281.87 473.434 1282.23 474.045C1282.59 474.656 1282.74 475.368 1282.66 476.073C1282.57 476.884 1282.21 477.642 1281.65 478.232C1281.09 478.823 1280.35 479.214 1279.55 479.345C1277.62 479.788 1275.37 479.312 1275 477.139C1274.72 475.514 1275.6 471.513 1278.03 472.784C1279.36 473.478 1280.54 471.465 1279.21 470.769H1279.21Z" fill="#6C63FF"/>
<path d="M1235.58 494.368C1252.54 494.547 1269.48 494.022 1286.4 492.795L1285.28 491.318C1282.51 498.347 1282.59 505.755 1282.95 513.19C1283.05 515.053 1283.63 517.565 1283.25 519.41C1282.78 521.73 1280.7 521.176 1278.63 521.243C1274.07 521.39 1269.51 521.496 1264.95 521.561C1260.65 521.622 1256.34 521.646 1252.03 521.633C1250.01 521.626 1247.98 521.612 1245.96 521.589C1243.58 521.563 1240.87 522.255 1240.26 519.495C1239.86 517.727 1240.26 515.402 1240.26 513.584L1240.26 506.935L1240.27 493.636C1240.26 493.333 1240.14 493.046 1239.92 492.836C1239.7 492.626 1239.41 492.508 1239.11 492.508C1238.81 492.508 1238.52 492.626 1238.3 492.836C1238.08 493.046 1237.95 493.333 1237.94 493.636L1237.93 509.89L1237.93 517.278C1237.93 518.746 1237.62 520.519 1238.17 521.912C1239.43 525.117 1244.87 523.915 1247.48 523.939C1252.79 523.988 1258.11 523.98 1263.43 523.915C1268.75 523.85 1274.07 523.729 1279.39 523.552C1281.68 523.476 1284.85 523.997 1285.54 521.169C1286.03 519.186 1285.46 516.6 1285.36 514.577C1285.24 512.268 1285.11 509.958 1285.08 507.645C1285.01 502.245 1285.54 496.992 1287.53 491.938C1287.57 491.765 1287.58 491.584 1287.55 491.408C1287.51 491.232 1287.44 491.066 1287.33 490.923C1287.22 490.78 1287.08 490.665 1286.92 490.584C1286.76 490.504 1286.58 490.462 1286.4 490.461C1269.49 491.688 1252.55 492.212 1235.58 492.034C1235.28 492.044 1234.99 492.172 1234.78 492.39C1234.57 492.607 1234.45 492.898 1234.45 493.201C1234.45 493.504 1234.57 493.795 1234.78 494.012C1234.99 494.23 1235.28 494.358 1235.58 494.368L1235.58 494.368Z" fill="#6C63FF"/>
<path d="M1240.41 495.637C1247.67 498.209 1254.75 501.269 1261.6 504.796C1267.74 507.975 1275.78 511.448 1280.01 517.13C1280.9 518.32 1282.92 517.158 1282.02 515.952C1277.71 510.15 1270.27 506.736 1264.03 503.438C1256.61 499.541 1248.93 496.182 1241.03 493.386C1239.62 492.881 1239.01 495.135 1240.41 495.637L1240.41 495.637Z" fill="#6C63FF"/>
<path d="M1286.01 491.48C1278.3 494.778 1271.78 501.133 1264.89 505.841C1257.44 510.938 1249.77 515.681 1241.87 520.07C1240.56 520.803 1241.74 522.82 1243.05 522.086C1250.93 517.681 1258.6 512.938 1266.07 507.856C1272.95 503.149 1279.48 496.792 1287.18 493.495C1288.56 492.906 1287.37 490.895 1286.01 491.48V491.48Z" fill="#6C63FF"/>
<path d="M1235.58 541.049C1252.54 541.227 1269.48 540.703 1286.4 539.476L1285.28 537.999C1282.51 545.027 1282.59 552.435 1282.95 559.871C1283.05 561.733 1283.63 564.246 1283.25 566.091C1282.78 568.411 1280.7 567.856 1278.63 567.923C1274.07 568.071 1269.51 568.177 1264.95 568.241C1260.65 568.302 1256.34 568.326 1252.03 568.313C1250.01 568.307 1247.98 568.293 1245.96 568.27C1243.58 568.244 1240.87 568.935 1240.26 566.176C1239.86 564.408 1240.26 562.083 1240.26 560.265L1240.26 553.616L1240.27 540.316C1240.26 540.014 1240.14 539.727 1239.92 539.517C1239.7 539.307 1239.41 539.189 1239.11 539.189C1238.81 539.189 1238.52 539.307 1238.3 539.517C1238.08 539.727 1237.95 540.014 1237.94 540.316L1237.93 556.571L1237.93 563.959C1237.93 565.427 1237.62 567.2 1238.17 568.593C1239.43 571.798 1244.87 570.596 1247.48 570.62C1252.79 570.669 1258.11 570.661 1263.43 570.595C1268.75 570.531 1274.07 570.41 1279.39 570.233C1281.68 570.156 1284.85 570.678 1285.54 567.85C1286.03 565.867 1285.46 563.281 1285.36 561.258C1285.24 558.948 1285.11 556.639 1285.08 554.326C1285.01 548.926 1285.54 543.673 1287.53 538.619C1287.57 538.446 1287.58 538.265 1287.55 538.088C1287.51 537.912 1287.44 537.747 1287.33 537.604C1287.22 537.461 1287.08 537.345 1286.92 537.265C1286.76 537.185 1286.58 537.143 1286.4 537.142C1269.49 538.369 1252.55 538.893 1235.58 538.715C1235.28 538.725 1234.99 538.853 1234.78 539.071C1234.57 539.288 1234.45 539.579 1234.45 539.882C1234.45 540.185 1234.57 540.476 1234.78 540.693C1234.99 540.911 1235.28 541.038 1235.58 541.049L1235.58 541.049Z" fill="#6C63FF"/>
<path d="M1240.41 542.317C1247.67 544.89 1254.75 547.95 1261.6 551.477C1267.74 554.656 1275.78 558.129 1280.01 563.81C1280.9 565.001 1282.92 563.839 1282.02 562.632C1277.71 556.83 1270.27 553.416 1264.03 550.119C1256.61 546.222 1248.93 542.862 1241.03 540.067C1239.62 539.562 1239.01 541.816 1240.41 542.317Z" fill="#6C63FF"/>
<path d="M1286.01 538.161C1278.3 541.459 1271.78 547.813 1264.89 552.522C1257.44 557.619 1249.77 562.362 1241.87 566.751C1240.56 567.484 1241.74 569.5 1243.05 568.767C1250.93 564.362 1258.6 559.619 1266.07 554.537C1272.95 549.83 1279.48 543.473 1287.18 540.176C1288.56 539.587 1287.37 537.576 1286.01 538.161Z" fill="#6C63FF"/>
<path d="M1159.38 526.434H1203C1203.3 526.424 1203.59 526.296 1203.8 526.079C1204.01 525.861 1204.12 525.57 1204.12 525.267C1204.12 524.965 1204.01 524.674 1203.8 524.456C1203.59 524.238 1203.3 524.111 1203 524.1H1159.38C1159.08 524.111 1158.8 524.238 1158.59 524.456C1158.38 524.674 1158.26 524.965 1158.26 525.267C1158.26 525.57 1158.38 525.861 1158.59 526.079C1158.8 526.296 1159.08 526.424 1159.38 526.434Z" fill="#6C63FF"/>
<path d="M1199.53 514.979L1206.35 521.206C1207.13 521.918 1209.27 523.389 1209.75 524.32C1210.75 526.245 1209.68 525.806 1207.96 526.473C1203.75 528.152 1199.86 530.567 1196.49 533.605C1195.36 534.6 1197.02 536.246 1198.14 535.256C1201.22 532.488 1204.75 530.277 1208.58 528.723C1209.96 528.179 1212.57 527.86 1213.22 526.221C1214.02 524.214 1211.47 522.734 1210.27 521.631L1201.18 513.328C1200.07 512.317 1198.42 513.964 1199.53 514.979L1199.53 514.979Z" fill="#6C63FF"/>
<path d="M1034.75 607.635C1048.56 607.635 1059.76 604.798 1059.76 601.298C1059.76 597.799 1048.56 594.962 1034.75 594.962C1020.94 594.962 1009.74 597.799 1009.74 601.298C1009.74 604.798 1020.94 607.635 1034.75 607.635Z" fill="#2F2E41"/>
<path d="M1029.78 516.962C1031.28 521.488 1026.76 526.92 1026.76 526.92L1033.09 534.765L1043.04 536.575C1043.04 536.575 1049.67 532.049 1047.26 530.54C1044.85 529.032 1044.54 516.962 1044.54 516.962L1029.78 516.962Z" fill="#A0616A"/>
<path d="M1019.53 604.728L1008.69 685.745L1009.28 685.825L1020.13 604.808L1019.53 604.728Z" fill="#2F2E41"/>
<path d="M1029.48 605.949L1022.55 685.91L1023.15 685.962L1030.08 606.001L1029.48 605.949Z" fill="#2F2E41"/>
<path d="M1048.48 593.575L1047.88 593.629L1056.28 685.815L1056.88 685.76L1048.48 593.575Z" fill="#2F2E41"/>
<path d="M1040.69 592.064L1037.31 686.076L1037.91 686.098L1041.29 592.086L1040.69 592.064Z" fill="#2F2E41"/>
<path d="M1055.7 576.707L1037.31 592.397L1068.65 600.242C1068.65 600.242 1057.5 609.898 1053.59 610.803C1049.67 611.708 1041.23 616.838 1041.23 616.838C1041.23 616.838 1055.09 626.192 1056 625.89C1056.9 625.588 1062.02 624.381 1062.02 624.381C1062.02 624.381 1089.75 605.07 1095.48 593.604C1101.2 582.138 1066.54 579.724 1066.54 579.724L1055.7 576.707Z" fill="#2F2E41"/>
<path d="M1016.82 595.113C1015.61 599.035 1024.65 603.26 1024.65 603.26C1024.65 603.26 1033.09 614.424 1035.5 615.631C1037.91 616.838 1038.82 624.08 1038.82 624.08C1034.6 635.546 1038.82 669.642 1038.82 674.47C1038.82 679.298 1053.59 674.47 1053.59 674.47C1053.59 674.47 1050.87 637.658 1054.79 626.548C1058.71 615.439 1038.82 587.267 1038.82 587.267C1038.82 587.267 1018.02 591.19 1016.82 595.113Z" fill="#2F2E41"/>
<path d="M1024.96 510.615C1024.96 507.413 1026.23 504.343 1028.49 502.079C1030.75 499.816 1033.82 498.545 1037.02 498.545C1040.22 498.546 1043.28 499.819 1045.54 502.083C1047.81 504.347 1049.08 507.418 1049.08 510.62C1049.08 513.822 1047.81 516.893 1045.54 519.158C1043.28 521.422 1040.22 522.694 1037.02 522.695C1033.82 522.696 1030.75 521.425 1028.49 519.161C1026.23 516.898 1024.96 513.828 1024.96 510.626V510.615Z" fill="#A0616A"/>
<path d="M1071.37 580.026L1058.9 575.695C1058.42 571.343 1057.71 565.99 1057.02 561.028L1060.82 540.8L1061.15 531.46C1059.01 527.722 1044.94 522.695 1044.94 522.695C1044.94 522.695 1045.22 523.68 1045.61 525.247C1045.5 525.249 1045.39 525.286 1045.3 525.353C1045.3 525.353 1046.96 535.067 1038.22 532.653C1035.74 532.04 1033.5 530.69 1031.8 528.78C1030.14 525.947 1029.24 523.449 1029.64 521.626C1029.64 521.626 1012.75 534.85 1011.55 537.868C1010.34 540.885 1014.75 566.705 1014.75 566.705C1014.75 566.705 1009.89 593.302 1015.92 600.242C1015.92 600.242 1013.81 596.621 1024.96 596.621C1036.11 596.621 1041.53 594.509 1041.83 594.207C1042.13 593.906 1047.86 594.207 1047.86 594.207C1047.86 594.207 1047.97 592.013 1048.05 588.53C1053.86 587.101 1058.71 585.453 1059.31 584.552C1059.44 584.222 1059.49 583.869 1059.47 583.516L1071.37 580.026Z" fill="white"/>
<path d="M1053.66 584.03L1054.79 592.095C1054.79 592.095 1064.13 605.975 1068.96 602.958C1073.78 599.94 1061.72 588.776 1061.72 588.776V585.155L1053.66 584.03Z" fill="#A0616A"/>
<path d="M1043.64 616.838C1043.64 616.838 1033.09 624.08 1032.79 625.89C1032.49 627.701 1054.79 649.426 1059.91 647.615C1065.04 645.805 1053.59 628.304 1053.59 628.304L1056.9 623.476L1043.64 616.838Z" fill="#2F2E41"/>
<path d="M1040.33 672.056C1040.33 672.056 1035.81 680.505 1038.22 684.126C1040.63 687.747 1042.44 692.273 1043.94 695.592C1045.45 698.911 1056.3 700.42 1061.12 699.213C1065.94 698.006 1055.39 684.126 1055.39 684.126L1052.68 672.056H1040.33Z" fill="#2F2E41"/>
<path d="M1063.53 538.084C1063.23 530.842 1058.11 528.73 1058.11 528.73L1054.79 565.844L1055.14 565.868L1054.79 566.447L1052.68 587.267C1055.09 584.25 1062.63 587.267 1062.63 587.267L1063.53 566.447C1063.53 566.447 1063.83 545.326 1063.53 538.084Z" fill="white"/>
<path d="M1048.76 595.113L1052.68 598.13C1052.68 598.13 1058.41 606.579 1068.35 601.449C1078.3 596.319 1056 589.078 1056 589.078L1050.27 587.267L1048.76 595.113Z" fill="#A0616A"/>
<path d="M1009.59 540.196C1006.57 543.817 1013.5 568.258 1015.31 575.5C1017.12 582.741 1033.39 589.078 1037.31 589.38C1041.23 589.681 1045.15 596.923 1047.86 598.13C1050.57 599.337 1050.87 591.19 1052.41 587.365C1053.95 583.539 1043.64 583.948 1043.64 583.948L1028.57 573.991C1028.57 573.991 1027.07 560.111 1025.86 549.55C1024.65 538.989 1016.52 535.067 1016.52 535.067C1014.11 533.558 1012.6 536.575 1009.59 540.196Z" fill="white"/>
<path d="M1045.51 504.094C1045.51 504.094 1052.15 508.01 1053.57 507.976C1055 507.942 1055.35 506.589 1054.29 504.724C1053.24 502.859 1048.42 502.932 1048.42 502.932L1045.51 504.094Z" fill="#3F3D56"/>
<path opacity="0.1" d="M1045.51 504.094C1045.51 504.094 1052.15 508.01 1053.57 507.976C1055 507.942 1055.35 506.589 1054.29 504.724C1053.24 502.859 1048.42 502.932 1048.42 502.932L1045.51 504.094Z" fill="black"/>
<path d="M1031.19 503.554L1038.58 500.437L1045.09 500.617L1051.79 503.44C1049.16 502.368 1042.78 505.923 1038.28 510.4C1033.77 514.876 1030.64 511.969 1030.64 511.969L1027.34 509.107L1031.19 503.554Z" fill="#6C63FF"/>
<path d="M1023.9 506.732C1023.41 503.137 1025.68 499.899 1027.13 498.247C1027.77 497.511 1028.66 497.03 1029.63 496.891V496.891C1029.66 496.852 1029.7 496.812 1029.75 496.772C1031.34 495.361 1036.95 494.154 1036.95 494.154C1038.61 493.694 1041.8 495.508 1041.8 495.508L1047.7 501.962C1044.65 500.649 1040.36 502.011 1040.36 502.011C1036.09 503 1032.07 505.824 1029.22 508.268C1027.75 509.524 1026.37 510.882 1025.09 512.332C1025.09 512.332 1024.61 511.924 1023.9 506.732Z" fill="#6C63FF"/>
<path opacity="0.1" d="M1027.73 509.386C1040.18 498.882 1047.15 501.178 1047.44 501.281L1047.24 501.85C1047.17 501.827 1040.27 499.597 1028.12 509.848L1027.73 509.386Z" fill="black"/>
<path d="M1030.53 497.64C1031.4 497.14 1031.83 496.267 1031.49 495.69C1031.16 495.112 1030.19 495.05 1029.33 495.55C1028.46 496.05 1028.03 496.923 1028.36 497.5C1028.7 498.077 1029.67 498.14 1030.53 497.64Z" fill="#6C63FF"/>
<path d="M1027.81 510.907C1027.93 510.083 1027.63 509.356 1027.13 509.284C1026.64 509.211 1026.14 509.821 1026.02 510.646C1025.9 511.47 1026.2 512.197 1026.7 512.269C1027.19 512.342 1027.69 511.732 1027.81 510.907Z" fill="#A0616A"/>
<path opacity="0.2" d="M1028.08 557.093L1028.99 574.269L1043.55 583.259L1030.75 573.647L1028.08 557.093Z" fill="black"/>
<path opacity="0.2" d="M1052.61 559.763L1051.55 583.259L1051.01 559.763H1052.61Z" fill="black"/>
</g>
<defs>
<clipPath id="clip0">
<rect width="451" height="406" fill="white" transform="translate(954 399)"/>
</clipPath>
</defs>
</svg>
