<svg width="1440" height="1107" viewBox="0 0 1440 1107" fill="none" xmlns="http://www.w3.org/2000/svg">
<g clip-path="url(#clip0)">
<rect width="1440" height="1107" fill="white"/>
<path d="M0 668L1440 1335H0V668Z" fill="#FF9642" fill-opacity="0.16"/>
<path d="M0 0H1440L0 859V0Z" fill="#B9FFFC" fill-opacity="0.16"/>
<g opacity="0.5">
<path d="M95.1531 594.439H30.9707V604.195H95.1531V594.439Z" fill="#4D8AF0"/>
<path d="M30.9704 603.965L23.7065 933H28.2454L38.3023 604.196L30.9704 603.965Z" fill="#EEEEEE"/>
<path d="M95.1445 603.965L102.4 933H97.8695L87.8125 604.196L95.1445 603.965Z" fill="#EEEEEE"/>
<path d="M44.6466 604.196L36.8633 933H42.3048L49.492 603.965L44.6466 604.196Z" fill="#E0E0E0"/>
<path d="M82.8222 604.196L90.6141 933H85.164L77.9854 603.965L82.8222 604.196Z" fill="#E0E0E0"/>
<path d="M84.4911 893.062H43.2158V898.056H84.4911V893.062Z" fill="#E0E0E0"/>
<path d="M86.3051 865.378H41.8535V870.371H86.3051V865.378Z" fill="#E0E0E0"/>
<path d="M86.305 838.145H43.2158V843.139H86.305V838.145Z" fill="#E0E0E0"/>
<path d="M84.4911 810.461H43.2158V815.454H84.4911V810.461Z" fill="#E0E0E0"/>
<path d="M84.4911 781.873H43.2158V786.415H84.4911V781.873Z" fill="#E0E0E0"/>
<path d="M84.4914 754.641H44.5786V760.085H84.4914V754.641Z" fill="#E0E0E0"/>
<path d="M83.1289 727.408H44.5786V731.038H83.1289V727.408Z" fill="#E0E0E0"/>
<path d="M79.9526 698.369H45.9326V704.265H79.9526V698.369Z" fill="#E0E0E0"/>
<path d="M81.3066 671.136H45.9326V676.129H81.3066V671.136Z" fill="#E0E0E0"/>
<path d="M81.3066 643H45.9326V648.444H81.3066V643Z" fill="#E0E0E0"/>
<path d="M79.9522 615.315H47.7461V620.76H79.9522V615.315Z" fill="#E0E0E0"/>
<path d="M110.336 575.829H16V595.802H110.336V575.829Z" fill="#4D8AF0"/>
<g opacity="0.5">
<path opacity="0.5" d="M105.355 435.379L72.5439 456.767C72.2228 455.444 71.4745 454.264 70.415 453.41C70.7995 452.379 70.8618 451.256 70.5939 450.189C70.5446 449.882 70.4251 449.59 70.2447 449.337C70.0752 449.178 69.8697 449.062 69.6458 449C69.4218 448.937 69.1861 448.93 68.9589 448.979L63.7473 449.32C63.1405 449.29 62.5412 449.464 62.0442 449.814C61.3118 450.427 61.0904 451.714 60.341 452.259C59.8386 452.617 59.1999 452.583 58.6379 452.864C57.4372 453.503 57.1732 455.421 57.0795 456.98C56.9518 459.11 56.9603 461.615 58.3484 462.945C59.3617 463.89 60.7668 463.797 62.0442 463.728L63.33 463.626C63.655 463.819 63.9971 463.982 64.3519 464.112V465.927H64.1135C64.1135 465.927 49.4069 461.666 33.2528 506.18H32.9718C32.9718 506.18 30.5874 514.274 34.4024 512.851C37.7235 511.607 37.8086 507.458 37.749 506.418H37.9704C37.9704 506.418 44.6382 486.888 55.1124 484.502C55.1124 484.502 62.7339 494.029 50.3522 513.081H60.043C60.0123 515.213 60.4422 517.326 61.3033 519.276C64.156 524.994 55.5893 579.297 55.5893 579.297H62.7339L66.3275 561.301L66.7788 579.297H72.016L77.2531 544.694L76.5378 503.01V492.214L77.4915 493.483V476.808H91.2954L93.6798 458.232H93.4328C93.4912 456.935 93.437 455.635 93.271 454.347L111.069 450.606C113.87 438.703 105.355 435.379 105.355 435.379ZM89.7711 458.522L85.5984 469.199C85.5984 469.199 74.1704 463.958 69.8871 465.867H69.6486V463.601C70.5247 463.094 71.2631 462.38 71.7991 461.521C72.3351 460.663 72.6522 459.685 72.7228 458.676L89.8818 455.071C89.6596 456.205 89.6194 457.367 89.7626 458.514L89.7711 458.522Z" fill="url(#paint0_linear)"/>
</g>
<path d="M92.3685 461.257C92.3685 461.257 92.9135 453.384 90.461 455.114C88.0085 456.844 89.0644 461.743 89.0644 461.743L92.3685 461.257Z" fill="#FDA57D"/>
<path d="M34.8196 506.163C34.8196 506.163 32.5545 513.874 36.1821 512.519C39.8098 511.164 39.3585 506.163 39.3585 506.163H34.8196Z" fill="#FDA57D"/>
<path d="M69.7509 464.862H64.7607V469.403H69.7509V464.862Z" fill="#FDA57D"/>
<path d="M64.7518 489.828H60.6729V510.253H64.7518V489.828Z" fill="#4D8AF0"/>
<path opacity="0.1" d="M64.7518 489.828H60.6729V510.253H64.7518V489.828Z" fill="black"/>
<path d="M66.7023 467.818H71.4199C72.7186 467.818 73.964 468.335 74.8823 469.254C75.8006 470.172 76.3164 471.419 76.3164 472.718V503.214H61.8398V472.718C61.8398 471.424 62.351 470.183 63.2619 469.266C64.1728 468.348 65.4096 467.827 66.7023 467.818Z" fill="white"/>
<path d="M66.7957 466.447C70.0502 466.447 72.6885 463.807 72.6885 460.55C72.6885 457.294 70.0502 454.654 66.7957 454.654C63.5411 454.654 60.9028 457.294 60.9028 460.55C60.9028 463.807 63.5411 466.447 66.7957 466.447Z" fill="#FDA57D"/>
<path d="M64.5305 467.818C64.5305 467.818 50.4711 463.737 35.0493 506.393H39.5882C39.5882 506.393 45.9408 487.783 55.9126 485.516C55.9126 485.516 63.168 494.591 51.3738 512.783H60.9028V506.699C60.8473 497.478 61.9923 488.289 64.3091 479.364C65.4016 475.603 65.478 471.619 64.5305 467.818V467.818Z" fill="#4D8AF0"/>
<path d="M69.9722 467.819V469.182C69.9722 469.182 73.1485 483.25 75.865 492.325L77.253 494.174V478.257H90.4097L92.6749 460.559H89.0472L84.9171 470.988C84.9171 470.988 74.0512 465.995 69.9722 467.819Z" fill="#4D8AF0"/>
<path d="M61.8058 503.214C61.8058 503.214 59.0807 513.201 61.8058 518.646C64.5308 524.09 56.3643 575.829 56.3643 575.829H63.1768L72.9272 527.039L74.5111 503.18L61.8058 503.214Z" fill="#333333"/>
<path d="M76.3248 503.214L77.0061 542.922L72.0159 575.829H67.0257L65.2119 503.214H76.3248Z" fill="#333333"/>
<path d="M65.8337 458.301C65.9546 458.104 66.1038 457.926 66.2765 457.772C66.447 457.672 66.6409 457.619 66.8386 457.619C68.0733 457.517 69.4954 457.491 70.2448 456.324C70.7955 455.276 70.9294 454.058 70.6195 452.915C70.5791 452.609 70.4652 452.316 70.2874 452.063C70.1258 451.912 69.9297 451.801 69.7162 451.742C69.5026 451.683 69.2778 451.676 69.0611 451.723L64.0965 452.046C63.5288 452.025 62.9696 452.189 62.5041 452.515C61.8058 453.103 61.6014 454.321 60.8691 454.85C60.3837 455.191 59.7791 455.156 59.2681 455.429C58.1271 456.034 57.8801 457.841 57.7864 459.349C57.6672 461.377 57.6672 463.763 58.9956 464.998C59.9579 465.901 61.2949 465.85 62.5126 465.748L64.7778 465.56C65.0063 465.567 65.2306 465.498 65.4164 465.364C65.5598 465.173 65.6611 464.953 65.7139 464.72C65.7668 464.486 65.7698 464.244 65.723 464.01C65.6634 462.868 65.5442 461.573 64.7948 460.874C64.616 460.74 64.4532 460.585 64.3094 460.414C63.5004 459.153 65.4079 458.863 65.8337 458.301Z" fill="#333333"/>
<path d="M103.762 438.788C103.762 438.788 111.929 441.966 109.204 453.273L72.4673 460.985V459.17L103.762 438.788Z" fill="#F55F44"/>
<path opacity="0.1" d="M95.1444 595.572H31.1919V597.387H95.1444V595.572Z" fill="black"/>
<path opacity="0.1" d="M46.6137 723.556H41.6235V724.468H46.6137V723.556Z" fill="black"/>
<path opacity="0.1" d="M85.624 723.556H80.6338V724.468H85.624V723.556Z" fill="black"/>
<path d="M94.9232 716.066H30.9707V723.778H94.9232V716.066Z" fill="#EEEEEE"/>
<path d="M144.714 435.678L145.353 435.354L145.199 435.337L145.251 435.303L145.157 435.328L127.581 433.053L127.955 438.873L128.509 444.037L129.59 443.483L130.595 445.766L144.714 435.678Z" fill="url(#paint1_linear)"/>
<path d="M128.542 438.762L129.053 443.491L144.765 435.524L131.123 435.823L128.542 438.762Z" fill="#6C63FF"/>
<path opacity="0.2" d="M128.542 438.762L129.053 443.491L144.765 435.524L131.123 435.823L128.542 438.762Z" fill="black"/>
<path d="M128.193 433.437L144.765 435.524L128.543 438.762L128.193 433.437Z" fill="#6C63FF"/>
<path d="M130.995 445.059L144.672 435.473L128.815 440.194L130.995 445.059Z" fill="#6C63FF"/>
<path d="M229.93 411.316L230.569 410.993L230.415 410.967L230.467 410.933L230.373 410.967L212.788 408.692L213.171 414.512L213.725 419.675L214.806 419.121L215.811 421.405L229.93 411.316Z" fill="url(#paint2_linear)"/>
<path d="M213.759 414.401L214.27 419.13L229.981 411.163L216.339 411.461L213.759 414.401Z" fill="#6C63FF"/>
<path opacity="0.2" d="M213.759 414.401L214.27 419.13L229.981 411.163L216.339 411.461L213.759 414.401Z" fill="black"/>
<path d="M213.41 409.075L229.981 411.163L213.759 414.401L213.41 409.075Z" fill="#6C63FF"/>
<path d="M216.211 420.698L229.887 411.112L214.031 415.824L216.211 420.698Z" fill="#6C63FF"/>
<path d="M379.235 403.716L380.112 403.06L379.882 403.068L379.942 403L379.814 403.068L352.743 404.184L354.82 412.859L356.983 420.485L358.474 419.369L360.569 422.547L379.235 403.716Z" fill="url(#paint3_linear)"/>
<path d="M355.68 412.535L357.664 419.522L379.277 403.46L358.805 407.439L355.68 412.535Z" fill="#6C63FF"/>
<path opacity="0.2" d="M355.68 412.535L357.664 419.522L379.277 403.46L358.805 407.439L355.68 412.535Z" fill="black"/>
<path d="M353.781 404.602L379.277 403.46L355.68 412.535L353.781 404.602Z" fill="#6C63FF"/>
<path d="M360.994 421.388L379.124 403.409L356.455 414.614L360.994 421.388Z" fill="#6C63FF"/>
<path d="M307.371 452.771L308.069 452.609L307.924 452.558L307.984 452.532H307.882L291.37 446.09L290.34 451.833L289.633 456.971L290.816 456.699L291.234 459.153L307.371 452.771Z" fill="url(#paint4_linear)"/>
<path d="M290.936 451.867L290.289 456.571L307.456 452.634L294.146 449.635L290.936 451.867Z" fill="#6C63FF"/>
<path opacity="0.2" d="M290.936 451.867L290.289 456.571L307.456 452.634L294.146 449.635L290.936 451.867Z" fill="black"/>
<path d="M291.881 446.61L307.456 452.634L290.936 451.867L291.881 446.61Z" fill="#6C63FF"/>
<path d="M291.796 458.565L307.379 452.557L290.851 453.316L291.796 458.565Z" fill="#6C63FF"/>
<g opacity="0.5">
<path opacity="0.5" d="M210.267 513.456L210.898 513.124L210.753 513.107L210.795 513.073L210.702 513.099L193.125 510.823L193.509 516.652L194.062 521.807L195.144 521.253L196.14 523.537L210.267 513.456Z" fill="url(#paint5_linear)"/>
<path opacity="0.5" d="M194.096 516.541L194.607 521.262L210.318 513.295L196.676 513.593L194.096 516.541Z" fill="#6C63FF"/>
<path opacity="0.2" d="M194.096 516.541L194.607 521.262L210.318 513.295L196.676 513.593L194.096 516.541Z" fill="black"/>
<path opacity="0.5" d="M193.747 511.207L210.318 513.295L194.096 516.541L193.747 511.207Z" fill="#6C63FF"/>
<path opacity="0.5" d="M196.549 522.829L210.225 513.243L194.369 517.964L196.549 522.829Z" fill="#6C63FF"/>
</g>
<g opacity="0.2">
<path opacity="0.2" d="M400.771 435.575L401.648 434.911L401.418 434.919L401.486 434.86L401.35 434.928L374.287 436.036L376.365 444.71L378.519 452.345L380.01 451.228L382.113 454.407L400.771 435.575Z" fill="url(#paint6_linear)"/>
<path opacity="0.2" d="M377.216 444.394L379.2 451.373L400.813 435.32L380.342 439.299L377.216 444.394Z" fill="#6C63FF"/>
<path opacity="0.2" d="M377.216 444.394L379.2 451.373L400.813 435.32L380.342 439.299L377.216 444.394Z" fill="black"/>
<path opacity="0.2" d="M375.317 436.462L400.813 435.32L377.216 444.394L375.317 436.462Z" fill="#6C63FF"/>
<path opacity="0.2" d="M382.53 453.248L400.66 435.269L377.991 446.474L382.53 453.248Z" fill="#6C63FF"/>
</g>
<g opacity="0.3">
<path opacity="0.3" d="M472.881 530.209L473.75 529.552L473.52 529.561L473.588 529.493L473.452 529.561L446.389 530.677L448.467 539.351L450.63 546.986L452.112 545.861L454.215 549.048L472.881 530.209Z" fill="url(#paint7_linear)"/>
<path opacity="0.3" d="M449.318 539.028L451.302 546.015L472.924 529.953L452.444 533.932L449.318 539.028Z" fill="#6C63FF"/>
<path opacity="0.2" d="M449.318 539.028L451.302 546.015L472.924 529.953L452.444 533.932L449.318 539.028Z" fill="black"/>
<path opacity="0.3" d="M447.419 531.095L472.924 529.953L449.318 539.028L447.419 531.095Z" fill="#6C63FF"/>
<path opacity="0.3" d="M454.632 547.881L472.762 529.91L450.093 541.107L454.632 547.881Z" fill="#6C63FF"/>
</g>
<g opacity="0.3">
<path opacity="0.3" d="M695.744 577.065L696.621 576.4L696.391 576.409L696.459 576.349L696.323 576.409L669.26 577.525L671.338 586.199L673.493 593.834L674.983 592.718L677.078 595.896L695.744 577.065Z" fill="url(#paint8_linear)"/>
<path opacity="0.3" d="M672.189 585.884L674.174 592.863L695.786 576.801L675.315 580.78L672.189 585.884Z" fill="#6C63FF"/>
<path opacity="0.2" d="M672.189 585.884L674.174 592.863L695.786 576.801L675.315 580.78L672.189 585.884Z" fill="black"/>
<path opacity="0.3" d="M670.291 577.951L695.786 576.801L672.19 585.884L670.291 577.951Z" fill="#6C63FF"/>
<path opacity="0.3" d="M677.504 594.737L695.633 576.758L672.965 587.955L677.504 594.737Z" fill="#6C63FF"/>
</g>
<g opacity="0.5">
<path opacity="0.5" d="M310.181 528.675L310.88 528.504L310.735 528.453L310.795 528.428L310.692 528.436L294.181 521.986L293.15 527.729L292.443 532.876L293.619 532.594L294.044 535.048L310.181 528.675Z" fill="url(#paint9_linear)"/>
<path opacity="0.5" d="M293.746 527.763L293.099 532.467L310.267 528.53L296.957 525.531L293.746 527.763Z" fill="#6C63FF"/>
<path opacity="0.2" d="M293.746 527.763L293.099 532.467L310.267 528.53L296.957 525.531L293.746 527.763Z" fill="black"/>
<path opacity="0.5" d="M294.691 522.506L310.266 528.53L293.746 527.763L294.691 522.506Z" fill="#6C63FF"/>
<path opacity="0.5" d="M294.606 534.469L310.19 528.462L293.661 529.212L294.606 534.469Z" fill="#6C63FF"/>
</g>
<g opacity="0.5">
<path opacity="0.5" d="M616.386 640.171L617.085 640.009L616.949 639.949L617 639.932H616.897L600.394 633.49L599.355 639.233L598.648 644.372L599.832 644.09L600.258 646.553L616.386 640.171Z" fill="url(#paint10_linear)"/>
<path opacity="0.5" d="M599.951 639.268L599.312 643.971L616.48 640.034L603.162 637.035L599.951 639.268Z" fill="#6C63FF"/>
<path opacity="0.2" d="M599.951 639.268L599.312 643.971L616.48 640.034L603.162 637.035L599.951 639.268Z" fill="black"/>
<path opacity="0.5" d="M600.896 634.01L616.48 640.034L599.951 639.268L600.896 634.01Z" fill="#6C63FF"/>
<path opacity="0.5" d="M600.811 645.965L616.395 639.958L599.875 640.716L600.811 645.965Z" fill="#6C63FF"/>
</g>
<g opacity="0.5">
<path opacity="0.5" d="M597.661 522.114L598.359 521.943L598.215 521.892L598.274 521.867L598.172 521.875L581.66 515.425L580.63 521.168L579.923 526.315L581.107 526.033L581.532 528.487L597.661 522.114Z" fill="url(#paint11_linear)"/>
<path opacity="0.5" d="M581.226 521.202L580.579 525.906L597.755 521.969L584.436 518.969L581.226 521.202Z" fill="#6C63FF"/>
<path opacity="0.2" d="M581.226 521.202L580.579 525.906L597.755 521.969L584.436 518.969L581.226 521.202Z" fill="black"/>
<path opacity="0.5" d="M582.171 515.953L597.754 521.969L581.226 521.202L582.171 515.953Z" fill="#6C63FF"/>
<path opacity="0.5" d="M582.086 527.908L597.669 521.901L581.141 522.65L582.086 527.908Z" fill="#6C63FF"/>
</g>
<g opacity="0.2">
<path opacity="0.2" d="M753.105 423.723L753.804 423.561L753.667 423.51L753.718 423.484L753.616 423.493L737.104 417.042L736.074 422.786L735.367 427.932L736.551 427.651L736.977 430.105L753.105 423.723Z" fill="url(#paint12_linear)"/>
<path opacity="0.2" d="M736.67 422.82L736.023 427.523L753.199 423.587L739.881 420.587L736.67 422.82Z" fill="#6C63FF"/>
<path opacity="0.2" d="M736.67 422.82L736.023 427.523L753.199 423.587L739.881 420.587L736.67 422.82Z" fill="black"/>
<path opacity="0.2" d="M737.615 417.562L753.199 423.587L736.67 422.82L737.615 417.562Z" fill="#6C63FF"/>
<path opacity="0.2" d="M737.53 429.526L753.114 423.51L736.593 424.268L737.53 429.526Z" fill="#6C63FF"/>
</g>
<g opacity="0.2">
<path opacity="0.2" d="M178.146 455.582L178.845 455.421L178.7 455.361L178.76 455.344H178.657L162.146 448.902L161.115 454.645L160.4 459.783L161.592 459.502L162.009 461.965L178.146 455.582Z" fill="url(#paint13_linear)"/>
<path opacity="0.2" d="M161.711 454.679L161.064 459.383L178.231 455.446L164.922 452.447L161.711 454.679Z" fill="#6C63FF"/>
<path opacity="0.2" d="M161.711 454.679L161.064 459.383L178.231 455.446L164.922 452.447L161.711 454.679Z" fill="black"/>
<path opacity="0.2" d="M162.657 449.422L178.232 455.446L161.711 454.679L162.657 449.422Z" fill="#6C63FF"/>
<path opacity="0.2" d="M162.571 461.377L178.155 455.37L161.626 456.128L162.571 461.377Z" fill="#6C63FF"/>
</g>
<path d="M511.457 434.689L512.428 434.186L512.198 434.152L512.274 434.101L512.13 434.144L485.263 430.667L485.85 439.572L486.693 447.462L488.345 446.601L489.878 450.095L511.457 434.689Z" fill="url(#paint14_linear)"/>
<path d="M486.745 439.401L487.52 446.619L511.534 434.442L490.687 434.902L486.745 439.401Z" fill="#6C63FF"/>
<path opacity="0.2" d="M486.745 439.401L487.52 446.619L511.534 434.442L490.687 434.902L486.745 439.401Z" fill="black"/>
<path d="M486.208 431.255L511.534 434.442L486.744 439.401L486.208 431.255Z" fill="#6C63FF"/>
<path d="M490.491 449.021L511.397 434.365L487.162 441.574L490.491 449.021Z" fill="#6C63FF"/>
<path d="M574.004 572.378L576.508 572.532L576.09 572.208L576.303 572.191L575.963 572.106L527.253 533.77L517.971 551.937L510.384 568.433L514.633 568.689L513.56 577.346L574.004 572.378Z" fill="url(#paint15_linear)"/>
<path d="M519.93 552.653L513.007 567.743L574.456 571.995L532.95 548.443L519.93 552.653Z" fill="#6C63FF"/>
<path opacity="0.2" d="M519.93 552.653L513.007 567.743L574.456 571.995L532.95 548.443L519.93 552.653Z" fill="black"/>
<path d="M528.42 536.037L574.456 571.995L519.93 552.653L528.42 536.037Z" fill="#6C63FF"/>
<path d="M516.013 575.957L574.26 571.68L518.193 557.416L516.013 575.957Z" fill="#6C63FF"/>
<path d="M778.763 717.489L784 717.66L783.115 717.004L783.54 716.953L782.833 716.799L678.738 639.864L660.515 678.378L645.723 713.28L654.596 713.561L652.91 731.685L778.763 717.489Z" fill="url(#paint16_linear)"/>
<path d="M664.653 679.75L651.147 711.687L779.683 716.671L691.554 670.13L664.653 679.75Z" fill="#6C63FF"/>
<path opacity="0.2" d="M664.653 679.75L651.147 711.687L779.683 716.671L691.554 670.13L664.653 679.75Z" fill="black"/>
<path d="M681.318 644.525L779.683 716.671L664.653 679.75L681.318 644.525Z" fill="#6C63FF"/>
<path d="M657.951 728.635L779.248 716.015L661.332 689.805L657.951 728.635Z" fill="#6C63FF"/>
<path d="M689.646 424.49L691.929 423.45L691.409 423.356L691.588 423.246L691.247 423.331L630.275 412.237L630.565 432.644L631.561 450.768L635.436 449.013L638.536 457.167L689.646 424.49Z" fill="url(#paint17_linear)"/>
<path d="M632.635 432.355L633.563 448.936L689.868 423.936L642.172 422.538L632.635 432.355Z" fill="#6C63FF"/>
<path opacity="0.2" d="M632.635 432.355L633.563 448.936L689.868 423.936L642.172 422.538L632.635 432.355Z" fill="black"/>
<path d="M632.371 413.694L689.868 423.936L632.635 432.354L632.371 413.694Z" fill="#6C63FF"/>
<path d="M640.06 454.79L689.544 423.748L633.324 437.382L640.06 454.79Z" fill="#6C63FF"/>
<path d="M754.255 492.887L756.546 491.856L756.026 491.762L756.197 491.643L755.865 491.728L694.893 480.634L695.182 501.041L696.178 519.165L700.053 517.419L703.153 525.565L754.255 492.887Z" fill="url(#paint18_linear)"/>
<path d="M697.251 500.76L698.171 517.342L754.476 492.342L706.78 490.944L697.251 500.76Z" fill="#6C63FF"/>
<path opacity="0.2" d="M697.251 500.76L698.171 517.342L754.476 492.342L706.78 490.944L697.251 500.76Z" fill="black"/>
<path d="M696.979 482.099L754.476 492.342L697.251 500.76L696.979 482.099Z" fill="#6C63FF"/>
<path d="M704.677 523.187L754.153 492.154L697.941 505.779L704.677 523.187Z" fill="#6C63FF"/>
<path d="M426.922 488.831L427.902 488.328L427.672 488.303L427.74 488.252L427.595 488.294L400.737 484.818L401.324 493.713L402.159 501.604L403.811 500.752L405.344 504.245L426.922 488.831Z" fill="url(#paint19_linear)"/>
<path d="M402.218 493.552L402.993 500.76L427.007 488.592L406.161 489.053L402.218 493.552Z" fill="#6C63FF"/>
<path opacity="0.2" d="M402.218 493.552L402.993 500.76L427.007 488.592L406.161 489.053L402.218 493.552Z" fill="black"/>
<path d="M401.682 485.406L427.007 488.592L402.218 493.552L401.682 485.406Z" fill="#6C63FF"/>
<path d="M405.957 503.172L426.862 488.516L402.627 495.724L405.957 503.172Z" fill="#6C63FF"/>
<path d="M588.924 476.655L589.895 476.152L589.673 476.118L589.741 476.067L589.597 476.109L562.738 472.633L563.317 481.537L564.16 489.428L565.812 488.575L567.345 492.06L588.924 476.655Z" fill="url(#paint20_linear)"/>
<path d="M564.22 481.367L564.995 488.584L589.009 476.408L568.162 476.868L564.22 481.367Z" fill="#6C63FF"/>
<path opacity="0.2" d="M564.22 481.367L564.995 488.584L589.009 476.408L568.162 476.868L564.22 481.367Z" fill="black"/>
<path d="M563.684 473.229L589.009 476.408L564.22 481.367L563.684 473.229Z" fill="#6C63FF"/>
<path d="M567.958 490.987L588.864 476.331L564.628 483.548L567.958 490.987Z" fill="#6C63FF"/>
</g>
</g>
<defs>
<linearGradient id="paint0_linear" x1="71.9393" y1="579.229" x2="71.9393" y2="435.362" gradientUnits="userSpaceOnUse">
<stop stop-color="#808080" stop-opacity="0.25"/>
<stop offset="0.54" stop-color="#808080" stop-opacity="0.12"/>
<stop offset="1" stop-color="#808080" stop-opacity="0.1"/>
</linearGradient>
<linearGradient id="paint1_linear" x1="6915.3" y1="6327.59" x2="6902.72" y2="6135.78" gradientUnits="userSpaceOnUse">
<stop stop-color="#808080" stop-opacity="0.25"/>
<stop offset="0.54" stop-color="#808080" stop-opacity="0.12"/>
<stop offset="1" stop-color="#808080" stop-opacity="0.1"/>
</linearGradient>
<linearGradient id="paint2_linear" x1="8788.4" y1="5900.29" x2="8775.82" y2="5708.48" gradientUnits="userSpaceOnUse">
<stop stop-color="#808080" stop-opacity="0.25"/>
<stop offset="0.54" stop-color="#808080" stop-opacity="0.12"/>
<stop offset="1" stop-color="#808080" stop-opacity="0.1"/>
</linearGradient>
<linearGradient id="paint3_linear" x1="19614.8" y1="5757.31" x2="19509.5" y2="5318.24" gradientUnits="userSpaceOnUse">
<stop stop-color="#808080" stop-opacity="0.25"/>
<stop offset="0.54" stop-color="#808080" stop-opacity="0.12"/>
<stop offset="1" stop-color="#808080" stop-opacity="0.1"/>
</linearGradient>
<linearGradient id="paint4_linear" x1="8986.51" y1="9055.54" x2="9021.51" y2="8861.16" gradientUnits="userSpaceOnUse">
<stop stop-color="#808080" stop-opacity="0.25"/>
<stop offset="0.54" stop-color="#808080" stop-opacity="0.12"/>
<stop offset="1" stop-color="#808080" stop-opacity="0.1"/>
</linearGradient>
<linearGradient id="paint5_linear" x1="8321.75" y1="7537.77" x2="8309.18" y2="7346.09" gradientUnits="userSpaceOnUse">
<stop stop-color="#808080" stop-opacity="0.25"/>
<stop offset="0.54" stop-color="#808080" stop-opacity="0.12"/>
<stop offset="1" stop-color="#808080" stop-opacity="0.1"/>
</linearGradient>
<linearGradient id="paint6_linear" x1="20252.8" y1="6486.5" x2="20147.4" y2="6047.24" gradientUnits="userSpaceOnUse">
<stop stop-color="#808080" stop-opacity="0.25"/>
<stop offset="0.54" stop-color="#808080" stop-opacity="0.12"/>
<stop offset="1" stop-color="#808080" stop-opacity="0.1"/>
</linearGradient>
<linearGradient id="paint7_linear" x1="22430.2" y1="8635.03" x2="22324.8" y2="8195.77" gradientUnits="userSpaceOnUse">
<stop stop-color="#808080" stop-opacity="0.25"/>
<stop offset="0.54" stop-color="#808080" stop-opacity="0.12"/>
<stop offset="1" stop-color="#808080" stop-opacity="0.1"/>
</linearGradient>
<linearGradient id="paint8_linear" x1="29608.6" y1="9256.12" x2="29503.3" y2="8817.06" gradientUnits="userSpaceOnUse">
<stop stop-color="#808080" stop-opacity="0.25"/>
<stop offset="0.54" stop-color="#808080" stop-opacity="0.12"/>
<stop offset="1" stop-color="#808080" stop-opacity="0.1"/>
</linearGradient>
<linearGradient id="paint9_linear" x1="9119.66" y1="10312.4" x2="9154.65" y2="10118" gradientUnits="userSpaceOnUse">
<stop stop-color="#808080" stop-opacity="0.25"/>
<stop offset="0.54" stop-color="#808080" stop-opacity="0.12"/>
<stop offset="1" stop-color="#808080" stop-opacity="0.1"/>
</linearGradient>
<linearGradient id="paint10_linear" x1="16092.8" y1="12545.4" x2="16127.8" y2="12351" gradientUnits="userSpaceOnUse">
<stop stop-color="#808080" stop-opacity="0.25"/>
<stop offset="0.54" stop-color="#808080" stop-opacity="0.12"/>
<stop offset="1" stop-color="#808080" stop-opacity="0.1"/>
</linearGradient>
<linearGradient id="paint11_linear" x1="15563.5" y1="10571.8" x2="15598.5" y2="10377.6" gradientUnits="userSpaceOnUse">
<stop stop-color="#808080" stop-opacity="0.25"/>
<stop offset="0.54" stop-color="#808080" stop-opacity="0.12"/>
<stop offset="1" stop-color="#808080" stop-opacity="0.1"/>
</linearGradient>
<linearGradient id="paint12_linear" x1="18960.1" y1="9146.18" x2="18995.1" y2="8951.8" gradientUnits="userSpaceOnUse">
<stop stop-color="#808080" stop-opacity="0.25"/>
<stop offset="0.54" stop-color="#808080" stop-opacity="0.12"/>
<stop offset="1" stop-color="#808080" stop-opacity="0.1"/>
</linearGradient>
<linearGradient id="paint13_linear" x1="6093.18" y1="8937.25" x2="6128.18" y2="8742.87" gradientUnits="userSpaceOnUse">
<stop stop-color="#808080" stop-opacity="0.25"/>
<stop offset="0.54" stop-color="#808080" stop-opacity="0.12"/>
<stop offset="1" stop-color="#808080" stop-opacity="0.1"/>
</linearGradient>
<linearGradient id="paint14_linear" x1="22531.9" y1="9501.74" x2="22502.5" y2="9053.93" gradientUnits="userSpaceOnUse">
<stop stop-color="#808080" stop-opacity="0.25"/>
<stop offset="0.54" stop-color="#808080" stop-opacity="0.12"/>
<stop offset="1" stop-color="#808080" stop-opacity="0.1"/>
</linearGradient>
<linearGradient id="paint15_linear" x1="34040.6" y1="53612" x2="35089.2" y2="51561.4" gradientUnits="userSpaceOnUse">
<stop stop-color="#808080" stop-opacity="0.25"/>
<stop offset="0.54" stop-color="#808080" stop-opacity="0.12"/>
<stop offset="1" stop-color="#808080" stop-opacity="0.1"/>
</linearGradient>
<linearGradient id="paint16_linear" x1="89222" y1="138023" x2="93581.9" y2="128903" gradientUnits="userSpaceOnUse">
<stop stop-color="#808080" stop-opacity="0.25"/>
<stop offset="0.54" stop-color="#808080" stop-opacity="0.12"/>
<stop offset="1" stop-color="#808080" stop-opacity="0.1"/>
</linearGradient>
<linearGradient id="paint17_linear" x1="61355.9" y1="25363.5" x2="61332.1" y2="22988.4" gradientUnits="userSpaceOnUse">
<stop stop-color="#808080" stop-opacity="0.25"/>
<stop offset="0.54" stop-color="#808080" stop-opacity="0.12"/>
<stop offset="1" stop-color="#808080" stop-opacity="0.1"/>
</linearGradient>
<linearGradient id="paint18_linear" x1="66064.5" y1="29040.2" x2="66040.7" y2="26665.2" gradientUnits="userSpaceOnUse">
<stop stop-color="#808080" stop-opacity="0.25"/>
<stop offset="0.54" stop-color="#808080" stop-opacity="0.12"/>
<stop offset="1" stop-color="#808080" stop-opacity="0.1"/>
</linearGradient>
<linearGradient id="paint19_linear" x1="19725.7" y1="10848.2" x2="19696.3" y2="10400.4" gradientUnits="userSpaceOnUse">
<stop stop-color="#808080" stop-opacity="0.25"/>
<stop offset="0.54" stop-color="#808080" stop-opacity="0.12"/>
<stop offset="1" stop-color="#808080" stop-opacity="0.1"/>
</linearGradient>
<linearGradient id="paint20_linear" x1="25047.9" y1="10451.6" x2="25018.5" y2="10003.7" gradientUnits="userSpaceOnUse">
<stop stop-color="#808080" stop-opacity="0.25"/>
<stop offset="0.54" stop-color="#808080" stop-opacity="0.12"/>
<stop offset="1" stop-color="#808080" stop-opacity="0.1"/>
</linearGradient>
<clipPath id="clip0">
<rect width="1440" height="1107" fill="white"/>
</clipPath>
</defs>
</svg>
