<svg width="1440" height="1024" viewBox="0 0 1440 1024" fill="none" xmlns="http://www.w3.org/2000/svg">
<rect width="1440" height="1024" fill="white"/>
<path d="M0 518.5L1440 1024H0V518.5Z" fill="#FF9642" fill-opacity="0.16"/>
<path d="M0 0H1440L0 740V0Z" fill="#B9FFFC" fill-opacity="0.16"/>
<g clip-path="url(#clip0)">
<rect width="162.195" height="162.195" transform="translate(40 284.547) rotate(-25)" fill="white" fill-opacity="0.3"/>
<path d="M124.925 274.776C120.865 276.669 119.109 281.495 121.002 285.554C122.729 289.249 126.931 291.087 130.816 289.847C131.145 289.743 131.467 289.619 131.781 289.478C132.093 289.327 132.397 289.158 132.691 288.973C134.582 287.78 135.894 285.856 136.313 283.659C136.642 281.983 136.429 280.245 135.704 278.699C133.811 274.639 128.985 272.883 124.925 274.776ZM131.004 282.636C130.861 283.355 130.433 283.985 129.816 284.383C129.606 284.511 129.381 284.615 129.148 284.694C128.44 284.914 127.674 284.834 127.027 284.472C126.533 284.203 126.138 283.781 125.903 283.269C125.272 281.916 125.857 280.307 127.21 279.676C128.563 279.045 130.172 279.631 130.803 280.984C131.047 281.498 131.117 282.078 131.004 282.636Z" fill="#646464" fill-opacity="0.3"/>
<path d="M192.859 311.708L181.424 317.041L145.609 274.352C145.573 274.276 145.54 274.205 145.505 274.129C142.884 268.539 137.698 264.582 131.614 263.531L126.728 253.054C124.835 248.994 120.009 247.238 115.95 249.131L111.049 251.416C106.989 253.309 105.233 258.135 107.126 262.194L112.012 272.672C108.906 278.008 108.603 284.524 111.201 290.125C111.236 290.201 111.27 290.272 111.305 290.348L120.985 345.223L109.55 350.556C108.197 351.187 107.611 352.796 108.242 354.149C108.873 355.502 110.482 356.087 111.835 355.456L121.957 350.736L128.038 385.252C129.677 394.505 137.858 401.154 147.251 400.867L148.69 409.07C148.949 410.541 150.351 411.523 151.822 411.264C151.822 411.264 151.822 411.264 151.822 411.264C152.055 411.222 152.281 411.151 152.496 411.051C153.605 410.534 154.228 409.337 154.016 408.132L142.243 341.277L151.039 337.175L154.467 344.526C155.098 345.879 156.707 346.465 158.06 345.834C159.413 345.203 159.999 343.594 159.368 342.241L155.94 334.89L164.736 330.788L208.373 382.785C209.16 383.722 210.477 384.014 211.586 383.497C211.801 383.397 212.001 383.27 212.182 383.118C213.326 382.158 213.475 380.453 212.515 379.309C212.515 379.309 212.515 379.309 212.515 379.308L207.156 372.933C213.413 365.922 213.579 355.381 207.544 348.177L185.022 321.329L195.144 316.609C196.497 315.978 197.083 314.369 196.452 313.016C195.821 311.663 194.212 311.077 192.859 311.708ZM113.334 256.316L118.235 254.031C119.588 253.4 121.197 253.986 121.828 255.339L125.598 263.425C125.055 263.502 124.513 263.656 123.992 263.774C123.738 263.836 123.483 263.871 123.232 263.941C121.258 264.469 119.392 265.339 117.718 266.512C117.493 266.667 117.282 266.855 117.061 267.021C116.637 267.341 116.193 267.641 115.802 267.993L112.027 259.909C111.396 258.556 111.981 256.947 113.334 256.316ZM117.269 274.414C117.754 273.719 118.303 273.071 118.908 272.478C119.769 271.643 120.742 270.93 121.798 270.36C122.077 270.204 122.336 270.017 122.628 269.881C124.797 268.886 127.189 268.472 129.567 268.68C134.397 269.12 138.624 272.107 140.651 276.514C140.682 276.625 140.721 276.734 140.767 276.839C143.199 282.509 141.475 289.105 136.58 292.86C135.009 294.057 133.199 294.902 131.272 295.335C125.25 296.671 119.088 293.752 116.308 288.244C116.247 288.106 116.178 287.971 116.102 287.84C114.064 283.477 114.509 278.36 117.269 274.414ZM146.311 395.485C139.893 395.301 134.487 390.635 133.366 384.312L127.027 348.372L137.171 343.642L146.311 395.485ZM136.199 338.129L126.057 342.858L118.161 298.078C118.547 298.324 118.96 298.511 119.36 298.73C119.76 298.949 120.132 299.175 120.546 299.355C121.073 299.595 121.633 299.767 122.166 299.963C122.572 300.104 122.966 300.27 123.381 300.38C123.962 300.539 124.56 300.63 125.153 300.733C125.559 300.803 125.954 300.902 126.366 300.946C126.992 301.009 127.621 301.002 128.252 301.006C128.652 301.007 129.044 301.042 129.45 301.017C129.517 301.013 129.582 301.024 129.649 301.02L136.199 338.129ZM153.655 329.989L150.227 322.639C149.596 321.285 147.987 320.7 146.634 321.331C145.281 321.962 144.695 323.571 145.326 324.924L148.754 332.275L141.271 335.764L134.94 299.847C135.415 299.67 135.888 299.495 136.351 299.279C136.814 299.063 137.253 298.813 137.694 298.563L161.138 326.5L153.655 329.989ZM141.986 295.267C142.028 295.223 142.06 295.17 142.102 295.126C142.426 294.784 142.694 294.406 142.988 294.045C143.342 293.608 143.714 293.184 144.027 292.722C144.29 292.334 144.492 291.909 144.723 291.503C144.996 291.026 145.283 290.561 145.511 290.064C145.709 289.638 145.848 289.194 146.011 288.757C146.201 288.251 146.406 287.75 146.551 287.229C146.678 286.779 146.747 286.317 146.84 285.859C146.934 285.401 147.056 285.004 147.114 284.565L176.349 319.407L166.21 324.135L141.986 295.267ZM203.413 351.652C207.535 356.575 207.633 363.715 203.647 368.749L169.808 328.423L179.952 323.693L203.413 351.652Z" fill="#646464" fill-opacity="0.3"/>
</g>
<g opacity="0.3" clip-path="url(#clip1)">
<path d="M367.919 692.513C367.913 692.511 367.906 692.508 367.9 692.505C365.822 691.666 363.54 691.686 361.469 692.562C359.375 693.448 357.752 695.098 356.9 697.208L309.261 815.118C307.514 819.442 309.621 824.395 313.958 826.16C332.243 833.599 361.367 849.803 373.577 880.488L423.432 757.092C424.025 755.626 424.207 754.098 423.96 752.673C417.895 717.696 386.246 699.967 367.919 692.513Z" fill="#646464" fill-opacity="0.3"/>
<path d="M477.46 883.075L525.099 765.164C525.952 763.054 525.93 760.74 525.04 758.648C524.158 756.579 522.529 754.979 520.453 754.14C520.447 754.137 520.44 754.135 520.434 754.132C502.073 746.765 466.991 737.532 438.33 758.479C437.163 759.332 436.233 760.558 435.641 762.024L385.786 885.42C415.885 871.829 448.091 880.404 466.412 887.755C470.757 889.498 475.713 887.398 477.46 883.075Z" fill="#646464" fill-opacity="0.3"/>
<path d="M535.199 791.729L529.497 789.426L489.668 888.008C485.207 899.047 472.576 904.415 461.508 899.975C445.968 893.74 419.143 886.433 394.082 896.267C428.538 901.258 459.575 919.603 476.678 931.507C478.813 932.992 481.467 933.421 483.959 932.68C486.442 931.941 488.424 930.137 489.395 927.733L539.884 802.768C541.637 798.433 539.534 793.481 535.199 791.729Z" fill="#646464" fill-opacity="0.3"/>
<path d="M297.052 810.186L336.882 711.604L331.18 709.3C326.846 707.549 321.893 709.651 320.142 713.986L269.654 838.949C268.682 841.353 268.855 844.027 270.127 846.284C271.404 848.546 273.607 850.083 276.18 850.498C296.752 853.815 331.822 862.18 360.073 882.524C348.877 858.042 324.505 844.665 308.995 838.355C297.95 833.862 292.592 821.225 297.052 810.186Z" fill="#646464" fill-opacity="0.3"/>
</g>
<g opacity="0.3" clip-path="url(#clip2)">
<path d="M1014.17 413.607C1012.79 413.236 1012.33 413.2 1012.21 413.165C1013.52 414.605 1016.34 417.946 1017.14 419.385C1017.96 420.86 1018.2 422.526 1017.86 424.118C1019.63 424.765 1021.04 426.103 1021.8 427.86C1021.95 428.221 1023.08 430.895 1024.15 434.714C1028.18 424.683 1023.45 416.1 1014.17 413.607Z" fill="#646464" fill-opacity="0.35"/>
<path d="M1029.74 432.047C1035.91 431.313 1040.15 425.715 1039.59 418.994L1044.14 418.405C1045.39 418.242 1046.28 417.093 1046.12 415.835C1045.95 414.578 1044.8 413.692 1043.55 413.855L1038.48 414.511C1038.07 413.557 1037.56 412.627 1036.93 411.726L1040.18 407.774C1040.98 406.795 1040.84 405.349 1039.86 404.546C1038.88 403.742 1037.43 403.884 1036.63 404.863L1033.72 408.405C1028.32 404.368 1021.32 405 1017.43 409.845C1026.79 413.272 1031.81 422.212 1029.74 432.047Z" fill="#646464" fill-opacity="0.35"/>
<path d="M1013.06 467.089C1017.71 463.832 1021.07 456.738 1021.51 451.121C1022.18 444.342 1020.08 435.489 1017.58 429.668C1017 428.327 1015.37 427.876 1014.2 428.668C1007.87 432.888 998.92 440.979 995.941 448.645C994.477 452.392 993.5 457.69 994.758 461.641C996.858 468.827 1006.29 471.832 1013.06 467.089Z" fill="#646464" fill-opacity="0.35"/>
<path d="M1012.88 424.198C1013.49 423.469 1013.58 422.433 1013.13 421.614C1013.12 421.619 1009.78 416.558 1004.08 411.618C1001.5 409.391 997.873 406.836 994.658 405.735C990.657 404.23 984.697 403.525 980.215 404.928C976.456 406.103 973.827 408.526 972.372 411.697C969.526 417.903 971.52 424.574 980.276 428.156C981.973 428.85 984.025 429.439 985.445 429.711C993.245 431.204 1003.87 428.223 1011.11 425.223C1011.96 424.869 1012.45 424.706 1012.88 424.198Z" fill="#646464" fill-opacity="0.35"/>
<path d="M993.209 443.716L988.178 434.64C991.934 434.867 996.248 434.451 1001.54 433.163C997.644 436.972 995.005 440.41 993.209 443.716Z" fill="#646464" fill-opacity="0.35"/>
<path d="M989.938 453.346C982.303 452.045 976.219 449.031 975.887 448.865C975.032 448.437 974.544 447.533 974.631 446.599C974.666 446.23 975.335 439.474 978.277 432.31C979.62 432.868 980.99 433.345 982.423 433.722L990.937 449.081C990.498 450.496 990.176 451.911 989.938 453.346Z" fill="#646464" fill-opacity="0.35"/>
</g>
<path opacity="0.45" d="M537 764C537 764 633 743.5 673 732.5C713 721.5 790.5 701.5 836.5 675C882.5 648.5 931.5 600.5 954 560.5C976.5 520.5 976.5 435.5 964.5 391.5C952.5 347.5 914.5 306 892.5 290.5C870.5 275 767.5 238.04 695 251.5C622.5 264.96 548 345.5 529 430.5C510 515.5 565 638 622.5 708C680 778 750.5 836.5 822.5 867C894.5 897.5 945.5 896.5 1020 897.5C1094.5 898.5 1163.5 825.5 1163.5 825.5" stroke="#7579E7" stroke-opacity="0.3" stroke-width="2" stroke-dasharray="7 5"/>
<g opacity="0.3" clip-path="url(#clip3)">
<path d="M869.639 317.901C868.98 315.044 866.129 313.263 863.272 313.922L842.582 318.699C839.725 319.358 837.944 322.209 838.603 325.066C839.263 327.922 842.113 329.704 844.97 329.044L865.661 324.267C868.518 323.608 870.299 320.757 869.639 317.901Z" fill="#646464" fill-opacity="0.3"/>
<path d="M798.819 388.734L803.596 409.425C804.255 412.281 807.106 414.062 809.963 413.403C812.82 412.743 814.601 409.892 813.941 407.036L809.164 386.346C808.505 383.489 805.654 381.708 802.798 382.367C799.941 383.027 798.16 385.878 798.819 388.734Z" fill="#646464" fill-opacity="0.3"/>
<path d="M832.319 371.025C830.319 368.88 826.959 368.763 824.816 370.763C822.672 372.763 822.554 376.121 824.554 378.266L839.036 393.795C841.042 395.947 844.401 396.051 846.539 394.057C848.683 392.057 848.8 388.699 846.801 386.554L832.319 371.025Z" fill="#646464" fill-opacity="0.3"/>
<path d="M861.755 362.621C864.553 363.477 867.525 361.907 868.384 359.097C869.242 356.293 867.664 353.326 864.86 352.468L844.553 346.26C841.75 345.403 838.782 346.98 837.925 349.784C837.067 352.588 838.645 355.555 841.449 356.413L861.755 362.621Z" fill="#646464" fill-opacity="0.3"/>
<path d="M775.556 535.762C778.413 535.102 780.194 532.251 779.534 529.395C778.875 526.538 776.024 524.757 773.167 525.416C770.311 526.076 768.529 528.926 769.189 531.783C769.848 534.64 772.699 536.421 775.556 535.762Z" fill="#646464" fill-opacity="0.3"/>
<path d="M964.037 481.35L956.888 483.001L943.856 467.228C942.575 465.677 940.529 464.984 938.57 465.437C924.237 468.745 907.424 470.869 894.69 470.978C874.315 471.439 869.675 470.446 860.661 472.527C847.338 475.602 837.038 483.133 832.477 492.045C824.471 486.034 811.913 483.781 798.589 486.857C789.586 488.936 785.915 491.831 767.324 500.383C765.339 501.33 763.209 502.281 760.961 503.226L754.978 477.311C753.286 469.983 746.757 465.008 739.542 464.971L702.179 414.66C704.833 410.994 705.888 406.273 704.835 401.714C704.146 398.728 702.652 396.134 700.637 394.104L729.847 330.677L738.53 336.105C738.834 337.234 735.982 372.072 769.084 392.756C770.327 393.532 771.767 393.732 773.091 393.427C774.415 393.121 775.622 392.31 776.399 391.067L786.739 374.519C801.029 376.173 814.967 369.411 822.536 357.299C830.183 345.059 829.978 329.547 822.321 317.571L832.661 301.023C833.407 299.829 833.648 298.387 833.331 297.015C833.015 295.643 832.166 294.453 830.971 293.707C797.932 273.069 767.734 290.875 766.661 291.083L751.067 281.34C738.628 273.56 722.263 277.335 714.489 289.783C707.193 301.46 710.117 316.671 720.824 324.888L691.082 389.472C689.34 389.275 687.538 389.363 685.735 389.779C677.178 391.755 671.824 400.323 673.8 408.88C675.775 417.436 684.344 422.79 692.9 420.815C693.077 420.774 693.251 420.728 693.425 420.681L729.14 468.772C724.766 472.509 722.561 478.494 723.943 484.477L730.614 513.372C728.856 513.827 727.131 514.251 725.457 514.637C723.498 515.09 721.963 516.61 721.491 518.565L716.692 538.454L709.544 540.105C706.687 540.764 704.906 543.615 705.565 546.472C706.225 549.328 709.075 551.11 711.932 550.45L752.279 541.135C755.135 540.476 756.916 537.625 756.257 534.768C755.598 531.912 752.747 530.13 749.89 530.79L728.258 535.784L731.049 524.216C733.433 523.625 735.887 522.974 738.381 522.272C749.343 519.172 761.618 514.871 771.895 509.965C791.357 500.961 793.665 498.89 800.978 497.202C814.997 493.965 828.481 498.337 830.423 506.749C831.083 509.605 833.933 511.387 836.79 510.727C839.647 510.067 841.428 507.217 840.769 504.36C838.827 495.948 849.03 486.108 863.049 482.871C870.365 481.182 873.333 482.033 894.782 481.595C907.485 481.486 923.312 479.597 937.743 476.498L945.322 485.671L857.48 505.951C856.109 506.268 854.918 507.117 854.173 508.31L847.381 519.179L830.975 522.967L820.107 516.175C818.913 515.429 817.471 515.188 816.099 515.504L796.443 520.042C793.586 520.702 791.805 523.553 792.465 526.409C793.124 529.266 795.975 531.047 798.832 530.388L816.345 526.344L827.214 533.136C828.408 533.882 829.85 534.123 831.221 533.807L851.912 529.03C853.284 528.713 854.474 527.864 855.22 526.67L862.011 515.801L966.425 491.696C969.282 491.036 971.063 488.185 970.403 485.329C969.744 482.473 966.894 480.691 964.037 481.35ZM813.532 351.672C809.034 358.87 801.446 363.346 793.278 364.053L815.781 328.037C818.726 335.691 818.029 344.474 813.532 351.672ZM769.909 301.267C771.544 300.891 793.939 286.821 820.706 300.118L770.345 380.719C746.761 362.571 749.485 336.19 749.107 334.559L769.909 301.267ZM723.494 295.407C728.156 287.941 737.972 285.672 745.44 290.343L758.943 298.78L742.064 325.793L728.559 317.35C721.113 312.698 718.841 302.855 723.494 295.407ZM690.512 410.47C687.66 411.128 684.803 409.343 684.145 406.491C683.486 403.639 685.271 400.783 688.123 400.124C690.976 399.466 693.832 401.251 694.49 404.103C695.14 406.916 693.402 409.803 690.512 410.47ZM750.96 507.107C747.679 508.283 744.275 509.416 740.841 510.473L734.288 482.088C733.63 479.24 735.41 476.387 738.255 475.724C738.26 475.723 738.265 475.723 738.269 475.722C738.274 475.721 738.278 475.72 738.283 475.719C741.129 475.071 743.976 476.853 744.633 479.7L750.96 507.107Z" fill="#646464" fill-opacity="0.3"/>
</g>
<g opacity="0.3" clip-path="url(#clip4)">
<path d="M1244.63 669.379C1242.58 667.332 1239.27 667.332 1237.22 669.379C1235.18 671.42 1235.18 674.734 1237.22 676.78C1239.27 678.822 1242.58 678.822 1244.63 676.78C1246.67 674.734 1246.67 671.42 1244.63 669.379Z" fill="#646464" fill-opacity="0.3"/>
<path d="M1311.25 602.755C1301.02 592.528 1284.46 592.527 1274.23 602.755C1264.03 612.957 1264.03 629.56 1274.23 639.77C1284.44 649.968 1301.04 649.972 1311.25 639.769C1321.47 629.542 1321.47 612.984 1311.25 602.755ZM1303.84 632.366C1297.72 638.487 1287.76 638.487 1281.64 632.367C1275.51 626.241 1275.51 616.278 1281.63 610.158C1287.77 604.021 1297.71 604.02 1303.84 610.158C1309.98 616.293 1309.98 626.229 1303.84 632.366Z" fill="#646464" fill-opacity="0.3"/>
<path d="M1370.47 543.533C1369.44 542.506 1368.04 541.949 1366.58 542.004C1365.39 542.046 1337.21 543.179 1303.72 555.018C1276.87 564.496 1254.5 578.065 1237.22 595.349C1233.35 599.222 1229.58 603.328 1225.97 607.595C1208.88 597.536 1195.19 600.69 1186.53 605.323C1166.6 615.99 1154.26 644.955 1154.26 665.673C1154.26 667.79 1155.54 669.699 1157.49 670.508C1158.14 670.777 1158.82 670.907 1159.49 670.907C1160.86 670.907 1162.2 670.375 1163.2 669.374C1173.71 658.862 1186.67 659.519 1190.91 660.076L1192.74 661.909C1189.14 670.494 1186.23 679.03 1184.1 687.332C1183.33 690.337 1183.59 693.516 1184.73 696.424C1179.69 698.747 1174.83 702.157 1170.6 706.39C1157.12 719.865 1154.39 752.702 1154.28 754.093C1154.16 755.62 1154.71 757.123 1155.79 758.206C1156.78 759.192 1158.11 759.74 1159.49 759.74C1159.63 759.74 1159.77 759.734 1159.91 759.723C1161.3 759.614 1194.14 756.878 1207.61 743.404C1211.84 739.172 1215.25 734.311 1217.57 729.272C1220.65 730.483 1223.82 730.632 1226.67 729.902C1234.97 727.771 1243.51 724.866 1252.09 721.258L1253.92 723.091C1254.48 727.327 1255.14 740.293 1244.63 750.804C1243.13 752.301 1242.68 754.552 1243.49 756.508C1244.3 758.464 1246.21 759.739 1248.33 759.739C1269.04 759.739 1298.01 747.401 1308.68 727.468C1313.31 718.812 1316.46 705.118 1306.4 688.028C1310.67 684.424 1314.78 680.655 1318.65 676.781C1335.93 659.497 1349.5 637.124 1358.98 610.284C1370.82 576.785 1371.95 548.605 1372 547.422C1372.05 545.97 1371.49 544.561 1370.47 543.533ZM1165.96 654.414C1169.21 638.678 1178.66 621.411 1191.47 614.552C1200.03 609.97 1209.39 610.419 1219.35 615.867C1210.87 627.017 1203.5 639.03 1197.35 651.715C1197.28 651.667 1196.33 650.483 1194.58 650.088C1193.86 649.925 1180.01 646.946 1165.96 654.414ZM1200.21 736.001C1193.01 743.199 1176.13 746.994 1165.46 748.544C1167.01 737.873 1170.8 720.99 1178 713.793C1182.03 709.762 1186.7 706.707 1191.4 704.986L1209.01 722.6C1207.29 727.298 1204.24 731.971 1200.21 736.001ZM1224.07 719.761C1222.56 720.148 1220.8 719.579 1219.5 718.277C1212.73 711.505 1210.08 708.856 1209.25 708.025C1207.72 706.501 1203.98 702.763 1195.73 694.506C1194.42 693.198 1193.85 691.444 1194.24 689.932C1195.92 683.403 1198.11 676.704 1200.77 669.94L1244.06 713.226C1237.3 715.893 1230.6 718.085 1224.07 719.761ZM1299.45 722.529C1292.59 735.342 1275.32 744.787 1259.59 748.038C1264.6 738.596 1265.71 726.578 1263.88 719.29C1263.45 717.597 1262.35 716.746 1262.29 716.646C1274.97 710.503 1286.98 703.132 1298.13 694.654C1303.58 704.607 1304.03 713.967 1299.45 722.529ZM1311.25 669.378C1306.53 674.094 1301.45 678.651 1296.15 682.921C1283.41 693.18 1269.39 701.87 1254.43 708.788L1205.21 659.575C1212.13 644.612 1220.82 630.588 1231.08 617.849C1235.35 612.545 1239.91 607.465 1244.62 602.751C1260.13 587.244 1280.14 574.902 1304.12 566.018L1347.98 609.878C1339.1 633.857 1326.76 653.87 1311.25 669.378ZM1351.75 598.838L1315.16 562.252C1335.1 556.061 1352.44 553.743 1361.09 552.909C1360.26 561.567 1357.94 578.908 1351.75 598.838Z" fill="#646464" fill-opacity="0.3"/>
<path d="M1229.82 758.205C1227.77 756.161 1224.46 756.162 1222.42 758.206L1207.61 773.014C1205.57 775.059 1205.57 778.373 1207.61 780.416C1209.66 782.46 1212.97 782.46 1215.02 780.415L1229.82 765.607C1231.86 763.563 1231.86 760.248 1229.82 758.205Z" fill="#646464" fill-opacity="0.3"/>
<path d="M1155.8 684.182C1153.75 682.137 1150.44 682.137 1148.39 684.181L1133.59 698.983C1131.54 701.027 1131.54 704.341 1133.58 706.386C1135.63 708.429 1138.94 708.431 1140.99 706.387L1155.79 691.584C1157.84 689.541 1157.84 686.226 1155.8 684.182Z" fill="#646464" fill-opacity="0.3"/>
<path d="M1192.81 765.612C1190.76 763.568 1187.45 763.568 1185.41 765.612L1149.95 801.064C1147.9 803.108 1147.9 806.422 1149.95 808.466C1151.99 810.51 1155.31 810.511 1157.35 808.467L1192.81 773.015C1194.85 770.971 1194.85 767.656 1192.81 765.612Z" fill="#646464" fill-opacity="0.3"/>
<path d="M1150.93 765.612C1148.89 763.568 1145.57 763.568 1143.53 765.612L1108.07 801.064C1106.03 803.108 1106.03 806.422 1108.07 808.466C1110.12 810.51 1113.43 810.511 1115.47 808.467L1150.93 773.015C1152.98 770.971 1152.98 767.656 1150.93 765.612Z" fill="#646464" fill-opacity="0.3"/>
<path d="M1148.39 721.192C1146.34 719.149 1143.03 719.149 1140.99 721.193L1105.53 756.65C1103.49 758.695 1103.49 762.009 1105.53 764.053C1107.58 766.097 1110.89 766.097 1112.94 764.053L1148.39 728.595C1150.43 726.551 1150.43 723.237 1148.39 721.192Z" fill="#646464" fill-opacity="0.3"/>
<path d="M1266.83 647.168C1264.79 645.124 1261.47 645.124 1259.43 647.168L1252.03 654.57C1249.98 656.614 1249.98 659.928 1252.03 661.973C1254.07 664.017 1257.39 664.017 1259.43 661.973L1266.83 654.571C1268.88 652.527 1268.88 649.213 1266.83 647.168Z" fill="#646464" fill-opacity="0.3"/>
</g>
<g opacity="0.3" filter="url(#filter0_i)">
<path d="M137.201 429C137.201 429 56.6923 547.5 86.7009 649C116.71 750.5 250.201 776 281.701 763" stroke="#7579E7" stroke-opacity="0.3" stroke-width="2" stroke-dasharray="7 5"/>
</g>
<defs>
<filter id="filter0_i" x="79" y="428.438" width="203.082" height="342.693" filterUnits="userSpaceOnUse" color-interpolation-filters="sRGB">
<feFlood flood-opacity="0" result="BackgroundImageFix"/>
<feBlend mode="normal" in="SourceGraphic" in2="BackgroundImageFix" result="shape"/>
<feColorMatrix in="SourceAlpha" type="matrix" values="0 0 0 0 0 0 0 0 0 0 0 0 0 0 0 0 0 0 127 0" result="hardAlpha"/>
<feOffset dy="4"/>
<feGaussianBlur stdDeviation="2"/>
<feComposite in2="hardAlpha" operator="arithmetic" k2="-1" k3="1"/>
<feColorMatrix type="matrix" values="0 0 0 0 0 0 0 0 0 0 0 0 0 0 0 0 0 0 0.25 0"/>
<feBlend mode="normal" in2="shape" result="effect1_innerShadow"/>
</filter>
<clipPath id="clip0">
<rect width="162.195" height="162.195" fill="white" transform="translate(40 284.547) rotate(-25)"/>
</clipPath>
<clipPath id="clip1">
<rect width="237" height="237" fill="white" transform="translate(344.782 653) rotate(22)"/>
</clipPath>
<clipPath id="clip2">
<rect width="78" height="78" fill="white" transform="translate(1024.22 376) rotate(61)"/>
</clipPath>
<clipPath id="clip3">
<rect width="271.812" height="271.812" fill="white" transform="translate(648 297.144) rotate(-13)"/>
</clipPath>
<clipPath id="clip4">
<rect width="268" height="268" fill="white" transform="translate(1104 542)"/>
</clipPath>
</defs>
</svg>
