<svg width="1440" height="1024" viewBox="0 0 1440 1024" fill="none" xmlns="http://www.w3.org/2000/svg">
<rect width="1440" height="1024" fill="white"/>
<path d="M0 518.5L1440 1024H0V518.5Z" fill="#FF9642" fill-opacity="0.16"/>
<path d="M0 0H1440L0 780V0Z" fill="#B9FFFC" fill-opacity="0.16"/>
<g clip-path="url(#clip0)">
<path d="M1349.16 623.637C1349.41 623.554 1349.66 623.494 1349.92 623.456L1360.1 600.255L1356.99 595.029L1363.41 588.737L1371.49 599.812L1355.04 626.638C1355.45 627.652 1355.57 628.781 1355.39 629.873C1355.2 630.966 1354.73 631.97 1354.03 632.753C1353.32 633.537 1352.43 634.061 1351.45 634.257C1350.47 634.454 1349.47 634.312 1348.57 633.852C1347.66 633.392 1346.91 632.634 1346.4 631.681C1345.89 630.727 1345.65 629.622 1345.72 628.514C1345.78 627.405 1346.14 626.344 1346.76 625.473C1347.38 624.602 1348.21 623.961 1349.16 623.637V623.637Z" fill="#A0616A"/>
<path d="M1366.55 591.942C1366.41 592.106 1366.25 592.247 1366.08 592.36L1355.65 599.132C1355.4 599.295 1355.13 599.398 1354.84 599.434C1354.55 599.471 1354.26 599.44 1353.98 599.343C1353.71 599.247 1353.45 599.087 1353.23 598.874C1353.01 598.661 1352.84 598.4 1352.71 598.106L1347.64 586.102C1347.43 585.597 1347.38 585.022 1347.51 584.481C1347.65 583.941 1347.95 583.471 1348.36 583.159L1354.82 578.232C1355.22 577.925 1355.71 577.785 1356.2 577.837C1356.68 577.888 1357.14 578.129 1357.48 578.516L1366.51 588.674C1366.89 589.106 1367.11 589.689 1367.12 590.299C1367.13 590.909 1366.92 591.498 1366.55 591.942H1366.55Z" fill="#CCCCCC"/>
<path d="M1381.18 724.888L1375.68 726.567L1367.29 703.574L1375.41 701.096L1381.18 724.888Z" fill="#A0616A"/>
<path d="M1371.32 726.003L1381.93 722.767L1383.75 730.256L1366.46 735.531C1366.22 734.547 1366.16 733.521 1366.27 732.51C1366.39 731.498 1366.68 730.523 1367.13 729.638C1367.58 728.753 1368.18 727.977 1368.9 727.353C1369.62 726.729 1370.44 726.271 1371.32 726.003V726.003Z" fill="#2F2E41"/>
<path d="M1334.14 729.595L1328.44 729.594L1325.73 704.938L1334.14 704.938L1334.14 729.595Z" fill="#A0616A"/>
<path d="M1324.37 727.768H1335.37V735.53H1317.44C1317.44 734.511 1317.62 733.502 1317.97 732.56C1318.32 731.618 1318.83 730.762 1319.47 730.042C1320.12 729.321 1320.88 728.749 1321.72 728.359C1322.56 727.969 1323.46 727.768 1324.37 727.768Z" fill="#2F2E41"/>
<path d="M1340.15 570.047C1346.46 570.047 1351.58 564.314 1351.58 557.241C1351.58 550.168 1346.46 544.434 1340.15 544.434C1333.84 544.434 1328.73 550.168 1328.73 557.241C1328.73 564.314 1333.84 570.047 1340.15 570.047Z" fill="#A0616A"/>
<path d="M1333.79 712.015H1326C1325.47 712.014 1324.96 711.786 1324.57 711.377C1324.18 710.968 1323.95 710.409 1323.91 709.813C1321.59 668.433 1322.95 638.75 1328.19 616.4C1328.21 616.302 1328.24 616.206 1328.27 616.112L1328.69 614.942C1328.84 614.506 1329.11 614.132 1329.46 613.869C1329.8 613.606 1330.21 613.466 1330.63 613.467H1346.66C1346.96 613.467 1347.26 613.54 1347.53 613.682C1347.8 613.823 1348.05 614.029 1348.24 614.287L1350.42 617.134C1350.46 617.189 1350.5 617.246 1350.54 617.305C1360.36 632.648 1369.15 662.644 1379.34 702.962C1379.49 703.548 1379.43 704.177 1379.17 704.714C1378.91 705.252 1378.48 705.655 1377.96 705.839L1369.59 708.843C1369.11 709.013 1368.59 708.983 1368.12 708.76C1367.66 708.537 1367.29 708.135 1367.06 707.627L1345.33 657.098C1345.18 656.745 1344.93 656.456 1344.62 656.274C1344.31 656.092 1343.96 656.027 1343.61 656.088C1343.27 656.15 1342.95 656.334 1342.7 656.614C1342.46 656.894 1342.3 657.255 1342.25 657.644L1335.87 709.986C1335.8 710.547 1335.55 711.062 1335.17 711.434C1334.79 711.807 1334.3 712.013 1333.79 712.015V712.015Z" fill="#2F2E41"/>
<path d="M1349.54 617.342C1349.52 617.342 1349.5 617.341 1349.48 617.341L1330.01 616.652C1329.51 616.636 1329.03 616.419 1328.66 616.041C1328.29 615.662 1328.06 615.147 1328 614.59C1325.53 592.2 1332.3 586.202 1335.32 584.662C1335.58 584.534 1335.79 584.336 1335.96 584.085C1336.12 583.834 1336.23 583.541 1336.26 583.232L1336.52 580.885C1336.56 580.471 1336.71 580.077 1336.93 579.745C1341.67 572.86 1348.15 570.655 1351.59 569.954C1351.86 569.898 1352.15 569.906 1352.43 569.978C1352.7 570.049 1352.96 570.183 1353.19 570.371C1353.42 570.558 1353.61 570.796 1353.76 571.07C1353.9 571.343 1353.99 571.646 1354.03 571.961L1354.42 575.331C1354.46 575.653 1354.57 575.957 1354.75 576.213C1364.64 590.704 1353.62 612.101 1351.32 616.243C1351.13 616.579 1350.87 616.856 1350.56 617.048C1350.25 617.241 1349.9 617.342 1349.54 617.342Z" fill="#CCCCCC"/>
<path d="M1363.2 558.683C1360.65 554.66 1357.6 551.073 1354.13 548.035C1351.24 545.511 1348.04 543.354 1344.49 542.322C1340.95 541.291 1337.04 541.466 1333.81 543.391C1330.58 545.315 1327.24 549.139 1327.22 553.24C1327.22 554.557 1327.52 556.34 1328.67 556.112L1329.01 556.162C1331.8 555.53 1334.59 554.897 1337.38 554.265C1338.57 558.891 1339.76 563.517 1340.95 568.143C1341.2 569.118 1341.54 570.208 1342.36 570.624C1343.14 571.016 1344.04 570.647 1344.83 570.279C1344.96 570.218 1346.07 567.42 1346.07 567.42C1346.1 567.333 1346.14 567.255 1346.21 567.196C1346.27 567.136 1346.35 567.097 1346.43 567.081C1346.51 567.066 1346.59 567.075 1346.67 567.109C1346.75 567.142 1346.82 567.197 1346.87 567.27L1347.53 568.195C1347.66 568.372 1347.83 568.498 1348.03 568.554C1348.22 568.61 1348.43 568.593 1348.61 568.506C1353.17 566.376 1357.72 564.245 1362.27 562.114C1362.9 561.82 1363.6 561.435 1363.79 560.699C1363.96 559.993 1363.58 559.28 1363.2 558.683Z" fill="#2F2E41"/>
<path d="M1415.53 736H1275.54C1275.41 736 1275.29 735.945 1275.21 735.847C1275.12 735.75 1275.07 735.617 1275.07 735.479C1275.07 735.34 1275.12 735.208 1275.21 735.11C1275.29 735.012 1275.41 734.957 1275.54 734.957H1415.53C1415.66 734.957 1415.78 735.012 1415.86 735.11C1415.95 735.208 1416 735.34 1416 735.479C1416 735.617 1415.95 735.75 1415.86 735.847C1415.78 735.945 1415.66 736 1415.53 736Z" fill="#3F3D56"/>
<path d="M1366.92 526.781C1366.61 526.779 1366.3 526.665 1366.04 526.455L1363.93 524.73C1363.75 524.586 1363.54 524.509 1363.32 524.509C1363.1 524.509 1362.89 524.586 1362.72 524.73L1360.6 526.455C1360.34 526.663 1360.04 526.775 1359.72 526.775C1359.4 526.775 1359.1 526.663 1358.84 526.455C1358.59 526.247 1358.4 525.953 1358.3 525.617C1358.2 525.28 1358.2 524.918 1358.3 524.582L1359.11 521.791C1359.17 521.56 1359.18 521.31 1359.11 521.078C1359.04 520.846 1358.91 520.644 1358.73 520.501L1356.62 518.776C1356.36 518.568 1356.17 518.275 1356.07 517.939C1355.98 517.602 1355.98 517.24 1356.07 516.903C1356.17 516.567 1356.36 516.273 1356.62 516.065C1356.87 515.857 1357.18 515.745 1357.49 515.745H1360.11C1360.33 515.746 1360.54 515.669 1360.72 515.526C1360.89 515.382 1361.02 515.18 1361.09 514.948L1361.9 512.158C1362 511.821 1362.19 511.528 1362.44 511.32C1362.7 511.112 1363.01 511 1363.32 511C1363.64 511 1363.94 511.112 1364.2 511.32C1364.45 511.528 1364.64 511.821 1364.74 512.158L1365.55 514.948C1365.62 515.18 1365.75 515.382 1365.92 515.526C1366.1 515.669 1366.31 515.746 1366.53 515.745H1369.15C1369.46 515.745 1369.77 515.857 1370.03 516.065C1370.28 516.273 1370.47 516.567 1370.57 516.903C1370.67 517.24 1370.67 517.602 1370.57 517.939C1370.47 518.275 1370.28 518.568 1370.03 518.776L1367.91 520.501C1367.73 520.644 1367.6 520.846 1367.53 521.078C1367.47 521.31 1367.47 521.56 1367.53 521.791L1368.34 524.582C1368.44 524.918 1368.45 525.281 1368.35 525.619C1368.25 525.956 1368.06 526.249 1367.8 526.455C1367.55 526.665 1367.24 526.779 1366.92 526.781V526.781Z" fill="#6C63FF"/>
<path d="M1347.73 649.167C1348.32 648.697 1348.82 648.085 1349.19 647.375C1349.55 646.666 1349.77 645.875 1349.84 645.059C1349.9 644.243 1349.8 643.422 1349.55 642.653C1349.3 641.884 1348.9 641.186 1348.38 640.609L1352 591.663L1341.23 593.323L1341.03 640.879C1340.22 641.918 1339.78 643.254 1339.79 644.633C1339.8 646.011 1340.27 647.337 1341.09 648.359C1341.92 649.38 1343.05 650.027 1344.27 650.176C1345.5 650.325 1346.72 649.966 1347.73 649.167V649.167Z" fill="#A0616A"/>
<path d="M1352.7 598.711C1352.5 598.711 1352.3 598.678 1352.1 598.614L1340.55 594.804C1340.27 594.712 1340.01 594.557 1339.79 594.348C1339.57 594.139 1339.39 593.881 1339.26 593.59C1339.13 593.299 1339.06 592.981 1339.05 592.657C1339.03 592.332 1339.08 592.009 1339.19 591.706L1343.46 579.32C1343.64 578.797 1343.98 578.363 1344.42 578.098C1344.86 577.833 1345.37 577.754 1345.86 577.875L1353.49 579.736C1353.97 579.852 1354.4 580.151 1354.7 580.582C1355 581.012 1355.16 581.547 1355.14 582.093L1354.79 596.428C1354.77 597.038 1354.55 597.617 1354.16 598.043C1353.77 598.47 1353.24 598.709 1352.7 598.711H1352.7Z" fill="#CCCCCC"/>
<path d="M1243.93 659.873H1046.26C1045.39 659.872 1044.57 659.487 1043.95 658.803C1043.34 658.119 1043 657.191 1043 656.223V590.004C1043 589.036 1043.34 588.108 1043.95 587.424C1044.57 586.74 1045.39 586.355 1046.26 586.354H1243.93C1244.79 586.355 1245.62 586.74 1246.23 587.424C1246.84 588.108 1247.18 589.036 1247.19 590.004V656.223C1247.18 657.191 1246.84 658.119 1246.23 658.803C1245.62 659.487 1244.79 659.872 1243.93 659.873V659.873ZM1046.26 587.397C1045.64 587.397 1045.05 587.672 1044.61 588.161C1044.18 588.65 1043.93 589.312 1043.93 590.004V656.223C1043.93 656.915 1044.18 657.577 1044.61 658.066C1045.05 658.555 1045.64 658.83 1046.26 658.83H1243.93C1244.55 658.83 1245.14 658.555 1245.57 658.066C1246.01 657.577 1246.25 656.915 1246.26 656.223V590.004C1246.25 589.312 1246.01 588.65 1245.57 588.161C1245.14 587.672 1244.55 587.397 1243.93 587.397H1046.26Z" fill="#3F3D56"/>
<path d="M1132.76 687.756C1132.37 687.754 1131.99 687.615 1131.68 687.357L1129.09 685.244C1128.87 685.068 1128.61 684.973 1128.34 684.973C1128.08 684.973 1127.82 685.068 1127.6 685.244L1125.01 687.357C1124.7 687.611 1124.32 687.749 1123.93 687.749C1123.55 687.749 1123.17 687.612 1122.86 687.357C1122.54 687.102 1122.31 686.743 1122.19 686.331C1122.07 685.918 1122.07 685.474 1122.19 685.062L1123.18 681.644C1123.27 681.36 1123.27 681.054 1123.18 680.77C1123.1 680.486 1122.94 680.238 1122.72 680.063L1120.13 677.951C1119.82 677.696 1119.59 677.337 1119.47 676.924C1119.35 676.512 1119.35 676.068 1119.47 675.656C1119.59 675.244 1119.82 674.884 1120.13 674.629C1120.44 674.375 1120.82 674.237 1121.21 674.237H1124.41C1124.68 674.238 1124.94 674.144 1125.15 673.968C1125.37 673.793 1125.53 673.545 1125.61 673.261L1126.6 669.843C1126.72 669.43 1126.96 669.071 1127.27 668.816C1127.58 668.561 1127.96 668.424 1128.34 668.424C1128.73 668.424 1129.11 668.561 1129.42 668.816C1129.73 669.071 1129.97 669.43 1130.09 669.843L1131.08 673.261C1131.16 673.545 1131.32 673.793 1131.53 673.968C1131.75 674.144 1132.01 674.238 1132.28 674.237H1135.48C1135.87 674.237 1136.25 674.375 1136.56 674.629C1136.87 674.884 1137.1 675.244 1137.22 675.656C1137.34 676.068 1137.34 676.512 1137.22 676.924C1137.1 677.337 1136.87 677.696 1136.56 677.951L1133.96 680.063C1133.75 680.238 1133.59 680.486 1133.51 680.77C1133.42 681.054 1133.42 681.36 1133.51 681.644L1134.5 685.062C1134.62 685.474 1134.62 685.92 1134.5 686.333C1134.38 686.746 1134.15 687.105 1133.83 687.357C1133.52 687.615 1133.14 687.754 1132.76 687.756V687.756Z" fill="#6C63FF"/>
<path d="M1159.04 687.756C1158.65 687.754 1158.27 687.615 1157.96 687.357L1155.37 685.244C1155.15 685.068 1154.89 684.973 1154.63 684.973C1154.36 684.973 1154.1 685.068 1153.89 685.244L1151.29 687.357C1150.98 687.611 1150.6 687.749 1150.22 687.749C1149.83 687.749 1149.45 687.612 1149.14 687.357C1148.83 687.102 1148.59 686.743 1148.47 686.331C1148.36 685.918 1148.36 685.474 1148.47 685.062L1149.47 681.644C1149.55 681.36 1149.55 681.054 1149.47 680.77C1149.38 680.486 1149.22 680.238 1149.01 680.063L1146.41 677.951C1146.1 677.696 1145.87 677.337 1145.75 676.924C1145.63 676.512 1145.63 676.068 1145.75 675.656C1145.87 675.244 1146.1 674.884 1146.41 674.629C1146.73 674.375 1147.1 674.237 1147.49 674.237H1150.7C1150.96 674.238 1151.22 674.144 1151.44 673.968C1151.65 673.793 1151.81 673.545 1151.9 673.261L1152.89 669.843C1153.01 669.43 1153.24 669.071 1153.55 668.816C1153.86 668.561 1154.24 668.424 1154.63 668.424C1155.01 668.424 1155.39 668.561 1155.7 668.816C1156.02 669.071 1156.25 669.43 1156.37 669.843L1157.36 673.261C1157.44 673.545 1157.6 673.793 1157.82 673.968C1158.03 674.144 1158.29 674.238 1158.56 674.237H1161.76C1162.15 674.237 1162.53 674.375 1162.84 674.629C1163.15 674.884 1163.39 675.244 1163.51 675.656C1163.63 676.068 1163.63 676.512 1163.51 676.924C1163.39 677.337 1163.15 677.696 1162.84 677.951L1160.25 680.063C1160.03 680.238 1159.87 680.486 1159.79 680.77C1159.71 681.054 1159.71 681.36 1159.79 681.644L1160.78 685.062C1160.9 685.474 1160.91 685.92 1160.79 686.333C1160.67 686.746 1160.43 687.105 1160.11 687.357C1159.8 687.615 1159.43 687.754 1159.04 687.756V687.756Z" fill="#6C63FF"/>
<path d="M1185.32 687.756C1184.93 687.754 1184.56 687.615 1184.25 687.357L1181.65 685.244C1181.44 685.068 1181.18 684.974 1180.91 684.974C1180.64 684.974 1180.38 685.068 1180.17 685.244L1177.58 687.357C1177.26 687.611 1176.89 687.749 1176.5 687.749C1176.11 687.749 1175.74 687.612 1175.42 687.357C1175.11 687.102 1174.88 686.743 1174.76 686.331C1174.64 685.918 1174.64 685.474 1174.76 685.062L1175.75 681.644C1175.83 681.36 1175.83 681.054 1175.75 680.77C1175.67 680.486 1175.51 680.238 1175.29 680.063L1172.7 677.951C1172.38 677.696 1172.15 677.337 1172.03 676.924C1171.91 676.512 1171.91 676.068 1172.03 675.656C1172.15 675.244 1172.38 674.884 1172.7 674.629C1173.01 674.375 1173.39 674.237 1173.77 674.237H1176.98C1177.25 674.238 1177.5 674.144 1177.72 673.968C1177.94 673.793 1178.1 673.545 1178.18 673.261L1179.17 669.843C1179.29 669.43 1179.52 669.071 1179.83 668.816C1180.15 668.561 1180.52 668.424 1180.91 668.424C1181.3 668.424 1181.67 668.561 1181.99 668.816C1182.3 669.071 1182.53 669.43 1182.65 669.843L1183.64 673.261C1183.72 673.545 1183.88 673.793 1184.1 673.968C1184.32 674.144 1184.58 674.238 1184.84 674.237H1188.05C1188.43 674.237 1188.81 674.375 1189.12 674.629C1189.44 674.884 1189.67 675.244 1189.79 675.656C1189.91 676.068 1189.91 676.512 1189.79 676.924C1189.67 677.337 1189.44 677.696 1189.12 677.951L1186.53 680.063C1186.31 680.238 1186.15 680.486 1186.07 680.77C1185.99 681.054 1185.99 681.36 1186.07 681.644L1187.06 685.062C1187.19 685.474 1187.19 685.919 1187.07 686.333C1186.95 686.746 1186.71 687.105 1186.4 687.357C1186.09 687.615 1185.71 687.754 1185.32 687.756V687.756Z" fill="#6C63FF"/>
<path d="M1211.6 687.756C1211.22 687.754 1210.84 687.615 1210.53 687.357L1207.93 685.244C1207.72 685.068 1207.46 684.973 1207.19 684.973C1206.93 684.973 1206.67 685.068 1206.45 685.244L1203.86 687.357C1203.55 687.611 1203.17 687.749 1202.78 687.749C1202.4 687.749 1202.02 687.612 1201.71 687.357C1201.39 687.102 1201.16 686.743 1201.04 686.331C1200.92 685.918 1200.92 685.474 1201.04 685.062L1202.03 681.644C1202.11 681.36 1202.11 681.054 1202.03 680.77C1201.95 680.486 1201.79 680.238 1201.57 680.063L1198.98 677.951C1198.67 677.696 1198.43 677.336 1198.31 676.924C1198.19 676.512 1198.19 676.068 1198.31 675.656C1198.43 675.243 1198.67 674.884 1198.98 674.629C1199.29 674.375 1199.67 674.237 1200.06 674.237H1203.26C1203.53 674.238 1203.79 674.144 1204 673.968C1204.22 673.793 1204.38 673.545 1204.46 673.261L1205.45 669.843C1205.57 669.43 1205.8 669.071 1206.12 668.816C1206.43 668.561 1206.81 668.424 1207.19 668.424C1207.58 668.424 1207.96 668.561 1208.27 668.816C1208.58 669.071 1208.82 669.43 1208.93 669.843L1209.93 673.261C1210.01 673.545 1210.17 673.793 1210.38 673.968C1210.6 674.144 1210.86 674.238 1211.12 674.237H1214.33C1214.72 674.237 1215.09 674.375 1215.41 674.629C1215.72 674.884 1215.95 675.243 1216.07 675.656C1216.19 676.068 1216.19 676.512 1216.07 676.924C1215.95 677.336 1215.72 677.696 1215.41 677.951L1212.81 680.063C1212.6 680.238 1212.44 680.486 1212.35 680.77C1212.27 681.054 1212.27 681.36 1212.36 681.644L1213.35 685.062C1213.47 685.474 1213.47 685.919 1213.35 686.333C1213.23 686.746 1213 687.105 1212.68 687.357C1212.37 687.614 1211.99 687.754 1211.6 687.756V687.756Z" fill="#6C63FF"/>
<path d="M1229.06 687.959C1228.64 687.957 1228.23 687.803 1227.88 687.52C1227.54 687.244 1227.28 686.85 1227.15 686.395C1227.01 685.941 1227.02 685.452 1227.15 684.999L1228.14 681.581C1228.21 681.338 1228.21 681.076 1228.14 680.832C1228.07 680.589 1227.94 680.377 1227.75 680.227L1225.16 678.114C1224.81 677.834 1224.56 677.44 1224.43 676.987C1224.29 676.534 1224.29 676.046 1224.43 675.593C1224.56 675.14 1224.81 674.746 1225.16 674.466C1225.5 674.186 1225.91 674.035 1226.34 674.035H1229.54C1229.77 674.036 1230 673.955 1230.18 673.805C1230.37 673.654 1230.5 673.442 1230.57 673.198L1231.56 669.78C1231.69 669.327 1231.95 668.933 1232.29 668.653C1232.64 668.373 1233.05 668.222 1233.48 668.222C1233.9 668.222 1234.31 668.373 1234.66 668.653C1235 668.933 1235.26 669.327 1235.39 669.78L1236.38 673.198C1236.45 673.442 1236.59 673.654 1236.77 673.805C1236.96 673.955 1237.18 674.036 1237.41 674.035H1240.61C1241.04 674.035 1241.45 674.186 1241.8 674.466C1242.14 674.746 1242.39 675.14 1242.53 675.593C1242.66 676.046 1242.66 676.534 1242.53 676.987C1242.39 677.44 1242.14 677.834 1241.8 678.114L1239.2 680.227C1239.02 680.377 1238.88 680.589 1238.81 680.832C1238.74 681.076 1238.74 681.338 1238.81 681.581L1239.8 684.999C1239.93 685.452 1239.93 685.94 1239.8 686.393C1239.67 686.846 1239.41 687.24 1239.07 687.52C1238.73 687.8 1238.31 687.951 1237.89 687.951C1237.46 687.951 1237.05 687.8 1236.7 687.52L1234.11 685.408C1233.93 685.257 1233.7 685.176 1233.48 685.176C1233.25 685.176 1233.03 685.257 1232.84 685.408L1230.25 687.52C1229.9 687.803 1229.49 687.957 1229.06 687.959V687.959ZM1233.48 684.132C1233.9 684.132 1234.31 684.283 1234.66 684.564L1237.25 686.676C1237.44 686.827 1237.66 686.908 1237.89 686.908C1238.12 686.908 1238.34 686.827 1238.52 686.677C1238.71 686.526 1238.84 686.314 1238.92 686.071C1238.99 685.827 1238.99 685.565 1238.92 685.322L1237.92 681.904C1237.79 681.451 1237.79 680.963 1237.92 680.51C1238.05 680.057 1238.31 679.662 1238.66 679.383L1241.25 677.27C1241.43 677.12 1241.57 676.908 1241.64 676.664C1241.71 676.421 1241.71 676.159 1241.64 675.916C1241.57 675.672 1241.43 675.46 1241.25 675.31C1241.06 675.159 1240.84 675.078 1240.61 675.078H1237.41C1236.98 675.079 1236.57 674.929 1236.22 674.649C1235.88 674.369 1235.63 673.974 1235.49 673.52L1234.5 670.102C1234.43 669.859 1234.3 669.647 1234.11 669.496C1233.93 669.346 1233.7 669.265 1233.48 669.265C1233.25 669.265 1233.03 669.346 1232.84 669.496C1232.66 669.647 1232.52 669.859 1232.45 670.102L1231.46 673.52C1231.33 673.974 1231.07 674.369 1230.73 674.649C1230.38 674.929 1229.97 675.079 1229.54 675.078H1226.34C1226.11 675.078 1225.89 675.159 1225.7 675.31C1225.52 675.46 1225.38 675.672 1225.31 675.915C1225.24 676.159 1225.24 676.421 1225.31 676.664C1225.38 676.908 1225.52 677.12 1225.7 677.27L1228.3 679.383C1228.64 679.662 1228.9 680.057 1229.03 680.51C1229.16 680.963 1229.16 681.451 1229.03 681.904L1228.04 685.322C1227.97 685.565 1227.97 685.827 1228.04 686.071C1228.11 686.314 1228.24 686.526 1228.43 686.677C1228.61 686.827 1228.84 686.908 1229.06 686.908C1229.29 686.908 1229.52 686.827 1229.7 686.676L1232.29 684.564C1232.64 684.284 1233.05 684.132 1233.48 684.132V684.132Z" fill="#3F3D56"/>
<path d="M1068.58 601.996C1067.78 601.996 1067.01 602.353 1066.44 602.989C1065.88 603.625 1065.56 604.487 1065.56 605.386C1065.56 606.284 1065.88 607.146 1066.44 607.782C1067.01 608.418 1067.78 608.775 1068.58 608.775H1221.6C1222.41 608.775 1223.17 608.418 1223.74 607.782C1224.31 607.146 1224.63 606.284 1224.63 605.386C1224.63 604.487 1224.31 603.625 1223.74 602.989C1223.17 602.353 1222.41 601.996 1221.6 601.996H1068.58Z" fill="#CCCCCC"/>
<path d="M1068.58 619.724C1067.78 619.724 1067.01 620.081 1066.44 620.717C1065.88 621.353 1065.56 622.215 1065.56 623.114C1065.56 624.012 1065.88 624.875 1066.44 625.51C1067.01 626.146 1067.78 626.503 1068.58 626.503H1221.6C1222.41 626.503 1223.17 626.146 1223.74 625.51C1224.31 624.875 1224.63 624.012 1224.63 623.114C1224.63 622.215 1224.31 621.353 1223.74 620.717C1223.17 620.081 1222.41 619.724 1221.6 619.724H1068.58Z" fill="#CCCCCC"/>
<path d="M1068.58 637.453C1067.78 637.453 1067.01 637.81 1066.44 638.445C1065.88 639.081 1065.56 639.943 1065.56 640.842C1065.56 641.741 1065.88 642.603 1066.44 643.238C1067.01 643.874 1067.78 644.231 1068.58 644.231H1221.6C1222.41 644.231 1223.17 643.874 1223.74 643.238C1224.31 642.603 1224.63 641.741 1224.63 640.842C1224.63 639.943 1224.31 639.081 1223.74 638.445C1223.17 637.81 1222.41 637.453 1221.6 637.453H1068.58Z" fill="#CCCCCC"/>
<path d="M1068.58 601.996C1067.78 601.996 1067.01 602.353 1066.44 602.989C1065.88 603.625 1065.56 604.487 1065.56 605.386C1065.56 606.284 1065.88 607.146 1066.44 607.782C1067.01 608.418 1067.78 608.775 1068.58 608.775H1221.6C1222.41 608.775 1223.17 608.418 1223.74 607.782C1224.31 607.146 1224.63 606.284 1224.63 605.386C1224.63 604.487 1224.31 603.625 1223.74 602.989C1223.17 602.353 1222.41 601.996 1221.6 601.996H1068.58Z" fill="#CCCCCC"/>
<path d="M1068.58 619.724C1067.78 619.724 1067.01 620.081 1066.44 620.717C1065.88 621.353 1065.56 622.215 1065.56 623.114C1065.56 624.012 1065.88 624.875 1066.44 625.51C1067.01 626.146 1067.78 626.503 1068.58 626.503H1221.6C1222.41 626.503 1223.17 626.146 1223.74 625.51C1224.31 624.875 1224.63 624.012 1224.63 623.114C1224.63 622.215 1224.31 621.353 1223.74 620.717C1223.17 620.081 1222.41 619.724 1221.6 619.724H1068.58Z" fill="#CCCCCC"/>
<path d="M1068.58 637.453C1067.78 637.453 1067.01 637.81 1066.44 638.445C1065.88 639.081 1065.56 639.943 1065.56 640.842C1065.56 641.741 1065.88 642.603 1066.44 643.238C1067.01 643.874 1067.78 644.231 1068.58 644.231H1221.6C1222.41 644.231 1223.17 643.874 1223.74 643.238C1224.31 642.603 1224.63 641.741 1224.63 640.842C1224.63 639.943 1224.31 639.081 1223.74 638.445C1223.17 637.81 1222.41 637.453 1221.6 637.453H1068.58Z" fill="#CCCCCC"/>
<path d="M1243.93 529.52H1046.26C1045.39 529.518 1044.57 529.134 1043.95 528.449C1043.34 527.765 1043 526.837 1043 525.87V459.65C1043 458.682 1043.34 457.754 1043.95 457.07C1044.57 456.386 1045.39 456.001 1046.26 456H1243.93C1244.79 456.001 1245.62 456.386 1246.23 457.07C1246.84 457.754 1247.18 458.682 1247.19 459.65V525.87C1247.18 526.837 1246.84 527.765 1246.23 528.449C1245.62 529.134 1244.79 529.518 1243.93 529.52ZM1046.26 457.043C1045.64 457.044 1045.05 457.319 1044.61 457.807C1044.18 458.296 1043.93 458.959 1043.93 459.65V525.87C1043.93 526.561 1044.18 527.224 1044.61 527.712C1045.05 528.201 1045.64 528.476 1046.26 528.477H1243.93C1244.55 528.476 1245.14 528.201 1245.57 527.712C1246.01 527.224 1246.25 526.561 1246.26 525.87V459.65C1246.25 458.959 1246.01 458.296 1245.57 457.807C1245.14 457.319 1244.55 457.044 1243.93 457.043H1046.26Z" fill="#3F3D56"/>
<path d="M1132.76 557.402C1132.37 557.401 1131.99 557.261 1131.68 557.003L1129.09 554.89C1128.87 554.714 1128.61 554.619 1128.34 554.619C1128.08 554.619 1127.82 554.714 1127.6 554.89L1125.01 557.003C1124.7 557.258 1124.32 557.395 1123.93 557.395C1123.55 557.395 1123.17 557.258 1122.86 557.003C1122.54 556.748 1122.31 556.389 1122.19 555.977C1122.07 555.565 1122.07 555.121 1122.19 554.708L1123.18 551.29C1123.27 551.006 1123.27 550.7 1123.18 550.416C1123.1 550.132 1122.94 549.884 1122.72 549.709L1120.13 547.597C1119.82 547.342 1119.59 546.983 1119.47 546.571C1119.35 546.158 1119.35 545.714 1119.47 545.302C1119.59 544.89 1119.82 544.53 1120.13 544.276C1120.44 544.021 1120.82 543.884 1121.21 543.884H1124.41C1124.68 543.884 1124.94 543.79 1125.15 543.614C1125.37 543.439 1125.53 543.191 1125.61 542.907L1126.6 539.489C1126.72 539.077 1126.96 538.717 1127.27 538.462C1127.58 538.208 1127.96 538.07 1128.34 538.07C1128.73 538.07 1129.11 538.208 1129.42 538.462C1129.73 538.717 1129.97 539.077 1130.09 539.489L1131.08 542.907C1131.16 543.191 1131.32 543.439 1131.53 543.614C1131.75 543.79 1132.01 543.884 1132.28 543.884H1135.48C1135.87 543.884 1136.25 544.021 1136.56 544.276C1136.87 544.531 1137.1 544.89 1137.22 545.302C1137.34 545.714 1137.34 546.158 1137.22 546.571C1137.1 546.983 1136.87 547.342 1136.56 547.597L1133.96 549.709C1133.75 549.884 1133.59 550.132 1133.51 550.416C1133.42 550.7 1133.42 551.006 1133.51 551.29L1134.5 554.708C1134.62 555.12 1134.62 555.566 1134.5 555.979C1134.38 556.392 1134.15 556.751 1133.83 557.003C1133.52 557.261 1133.14 557.401 1132.76 557.402Z" fill="#6C63FF"/>
<path d="M1159.04 557.402C1158.65 557.401 1158.27 557.261 1157.96 557.003L1155.37 554.89C1155.15 554.714 1154.89 554.619 1154.63 554.619C1154.36 554.619 1154.1 554.714 1153.89 554.89L1151.29 557.003C1150.98 557.258 1150.6 557.395 1150.22 557.395C1149.83 557.395 1149.45 557.258 1149.14 557.003C1148.83 556.748 1148.59 556.389 1148.47 555.977C1148.36 555.565 1148.36 555.121 1148.47 554.708L1149.47 551.29C1149.55 551.006 1149.55 550.7 1149.47 550.416C1149.38 550.132 1149.22 549.884 1149.01 549.709L1146.41 547.597C1146.1 547.342 1145.87 546.983 1145.75 546.571C1145.63 546.158 1145.63 545.714 1145.75 545.302C1145.87 544.89 1146.1 544.53 1146.41 544.276C1146.73 544.021 1147.1 543.884 1147.49 543.884H1150.7C1150.96 543.884 1151.22 543.79 1151.44 543.614C1151.65 543.439 1151.81 543.191 1151.9 542.907L1152.89 539.489C1153.01 539.077 1153.24 538.717 1153.55 538.462C1153.86 538.208 1154.24 538.07 1154.63 538.07C1155.01 538.07 1155.39 538.208 1155.7 538.462C1156.02 538.717 1156.25 539.077 1156.37 539.489L1157.36 542.907C1157.44 543.191 1157.6 543.439 1157.82 543.614C1158.03 543.79 1158.29 543.884 1158.56 543.884H1161.76C1162.15 543.884 1162.53 544.021 1162.84 544.276C1163.15 544.53 1163.39 544.89 1163.51 545.302C1163.63 545.714 1163.63 546.158 1163.51 546.571C1163.39 546.983 1163.15 547.342 1162.84 547.597L1160.25 549.709C1160.03 549.884 1159.87 550.132 1159.79 550.416C1159.71 550.7 1159.71 551.006 1159.79 551.29L1160.78 554.708C1160.9 555.12 1160.91 555.566 1160.79 555.979C1160.67 556.392 1160.43 556.751 1160.11 557.003C1159.8 557.261 1159.43 557.401 1159.04 557.402V557.402Z" fill="#6C63FF"/>
<path d="M1185.32 557.402C1184.93 557.401 1184.56 557.261 1184.25 557.003L1181.65 554.89C1181.44 554.715 1181.18 554.62 1180.91 554.62C1180.64 554.62 1180.38 554.715 1180.17 554.89L1177.58 557.003C1177.26 557.258 1176.89 557.395 1176.5 557.395C1176.11 557.395 1175.74 557.258 1175.42 557.003C1175.11 556.748 1174.88 556.389 1174.76 555.977C1174.64 555.565 1174.64 555.121 1174.76 554.708L1175.75 551.29C1175.83 551.006 1175.83 550.7 1175.75 550.416C1175.67 550.132 1175.51 549.884 1175.29 549.709L1172.7 547.597C1172.38 547.342 1172.15 546.983 1172.03 546.571C1171.91 546.158 1171.91 545.714 1172.03 545.302C1172.15 544.89 1172.38 544.53 1172.7 544.276C1173.01 544.021 1173.39 543.884 1173.77 543.884H1176.98C1177.25 543.884 1177.5 543.79 1177.72 543.614C1177.94 543.439 1178.1 543.191 1178.18 542.907L1179.17 539.489C1179.29 539.077 1179.52 538.717 1179.83 538.462C1180.15 538.208 1180.52 538.07 1180.91 538.07C1181.3 538.07 1181.67 538.208 1181.99 538.462C1182.3 538.717 1182.53 539.077 1182.65 539.489L1183.64 542.907C1183.72 543.191 1183.88 543.439 1184.1 543.614C1184.32 543.79 1184.58 543.884 1184.84 543.884H1188.05C1188.43 543.884 1188.81 544.021 1189.12 544.276C1189.44 544.53 1189.67 544.89 1189.79 545.302C1189.91 545.714 1189.91 546.158 1189.79 546.571C1189.67 546.983 1189.44 547.342 1189.12 547.597L1186.53 549.709C1186.31 549.884 1186.15 550.132 1186.07 550.416C1185.99 550.7 1185.99 551.006 1186.07 551.29L1187.06 554.708C1187.19 555.12 1187.19 555.566 1187.07 555.979C1186.95 556.392 1186.71 556.751 1186.4 557.003C1186.09 557.261 1185.71 557.401 1185.32 557.402V557.402Z" fill="#6C63FF"/>
<path d="M1211.38 557.332C1210.99 557.33 1210.62 557.19 1210.3 556.933L1207.71 554.82C1207.49 554.644 1207.23 554.55 1206.97 554.55C1206.7 554.55 1206.44 554.644 1206.23 554.82L1203.63 556.933C1203.32 557.187 1202.94 557.325 1202.56 557.325C1202.17 557.325 1201.79 557.187 1201.48 556.933C1201.17 556.678 1200.94 556.319 1200.82 555.907C1200.7 555.494 1200.7 555.05 1200.82 554.638L1201.81 551.22C1201.89 550.936 1201.89 550.63 1201.81 550.346C1201.72 550.062 1201.56 549.814 1201.35 549.639L1198.75 547.527C1198.44 547.272 1198.21 546.912 1198.09 546.5C1197.97 546.088 1197.97 545.644 1198.09 545.232C1198.21 544.819 1198.44 544.46 1198.75 544.205C1199.07 543.951 1199.44 543.813 1199.83 543.813H1203.04C1203.3 543.814 1203.56 543.72 1203.78 543.544C1203.99 543.369 1204.15 543.121 1204.24 542.837L1205.23 539.418C1205.35 539.006 1205.58 538.647 1205.89 538.392C1206.2 538.137 1206.58 538 1206.97 538C1207.35 538 1207.73 538.137 1208.04 538.392C1208.36 538.647 1208.59 539.006 1208.71 539.418L1209.7 542.837C1209.78 543.121 1209.94 543.369 1210.16 543.544C1210.37 543.72 1210.63 543.814 1210.9 543.813H1214.11C1214.49 543.813 1214.87 543.951 1215.18 544.205C1215.49 544.46 1215.73 544.819 1215.85 545.232C1215.97 545.644 1215.97 546.088 1215.85 546.5C1215.73 546.912 1215.49 547.272 1215.18 547.527L1212.59 549.639C1212.37 549.814 1212.21 550.062 1212.13 550.346C1212.05 550.63 1212.05 550.936 1212.13 551.22L1213.12 554.638C1213.24 555.05 1213.25 555.495 1213.13 555.909C1213.01 556.322 1212.77 556.681 1212.46 556.933C1212.14 557.19 1211.77 557.33 1211.38 557.332V557.332Z" fill="#6C63FF"/>
<path d="M1237.38 557.332C1236.99 557.33 1236.62 557.19 1236.3 556.933L1233.71 554.82C1233.49 554.644 1233.23 554.55 1232.97 554.55C1232.7 554.55 1232.44 554.644 1232.23 554.82L1229.63 556.933C1229.32 557.187 1228.94 557.325 1228.56 557.325C1228.17 557.325 1227.79 557.187 1227.48 556.933C1227.17 556.678 1226.94 556.319 1226.82 555.907C1226.7 555.494 1226.7 555.05 1226.82 554.638L1227.81 551.22C1227.89 550.936 1227.89 550.63 1227.81 550.346C1227.72 550.062 1227.56 549.814 1227.35 549.639L1224.75 547.527C1224.44 547.272 1224.21 546.912 1224.09 546.5C1223.97 546.088 1223.97 545.644 1224.09 545.232C1224.21 544.819 1224.44 544.46 1224.75 544.205C1225.07 543.951 1225.44 543.813 1225.83 543.813H1229.04C1229.3 543.814 1229.56 543.72 1229.78 543.544C1229.99 543.369 1230.15 543.121 1230.24 542.837L1231.23 539.418C1231.35 539.006 1231.58 538.647 1231.89 538.392C1232.2 538.137 1232.58 538 1232.97 538C1233.35 538 1233.73 538.137 1234.04 538.392C1234.36 538.647 1234.59 539.006 1234.71 539.418L1235.7 542.837C1235.78 543.121 1235.94 543.369 1236.16 543.544C1236.37 543.72 1236.63 543.814 1236.9 543.813H1240.11C1240.49 543.813 1240.87 543.951 1241.18 544.205C1241.49 544.46 1241.73 544.819 1241.85 545.232C1241.97 545.644 1241.97 546.088 1241.85 546.5C1241.73 546.912 1241.49 547.272 1241.18 547.527L1238.59 549.639C1238.37 549.814 1238.21 550.062 1238.13 550.346C1238.05 550.63 1238.05 550.936 1238.13 551.22L1239.12 554.638C1239.24 555.05 1239.25 555.495 1239.13 555.909C1239.01 556.322 1238.77 556.681 1238.46 556.933C1238.14 557.19 1237.77 557.33 1237.38 557.332V557.332Z" fill="#6C63FF"/>
<path d="M1229.06 557.605C1228.64 557.603 1228.23 557.449 1227.88 557.166C1227.54 556.89 1227.28 556.496 1227.15 556.042C1227.01 555.587 1227.02 555.098 1227.15 554.645L1228.14 551.227C1228.21 550.984 1228.21 550.722 1228.14 550.478C1228.07 550.235 1227.94 550.023 1227.75 549.873L1225.16 547.76C1224.81 547.48 1224.56 547.086 1224.43 546.633C1224.29 546.18 1224.29 545.692 1224.43 545.239C1224.56 544.786 1224.81 544.392 1225.16 544.112C1225.5 543.832 1225.91 543.681 1226.34 543.681H1229.54C1229.77 543.682 1230 543.601 1230.18 543.451C1230.37 543.3 1230.5 543.088 1230.57 542.844L1231.56 539.426C1231.69 538.973 1231.95 538.579 1232.29 538.299C1232.64 538.019 1233.05 537.868 1233.48 537.868C1233.9 537.868 1234.31 538.019 1234.66 538.299C1235 538.579 1235.26 538.973 1235.39 539.426L1236.38 542.844C1236.45 543.088 1236.59 543.3 1236.77 543.451C1236.96 543.601 1237.18 543.682 1237.41 543.681H1240.61C1241.04 543.681 1241.45 543.832 1241.8 544.112C1242.14 544.392 1242.39 544.787 1242.53 545.239C1242.66 545.692 1242.66 546.18 1242.53 546.633C1242.39 547.086 1242.14 547.48 1241.8 547.76L1239.2 549.873C1239.02 550.023 1238.88 550.235 1238.81 550.478C1238.74 550.722 1238.74 550.984 1238.81 551.227L1239.8 554.645C1239.93 555.098 1239.93 555.586 1239.8 556.039C1239.67 556.492 1239.41 556.886 1239.07 557.166C1238.73 557.446 1238.31 557.597 1237.89 557.597C1237.46 557.597 1237.05 557.446 1236.7 557.166L1234.11 555.054C1233.93 554.903 1233.7 554.822 1233.48 554.822C1233.25 554.822 1233.03 554.903 1232.84 555.054L1230.25 557.166C1229.9 557.449 1229.49 557.603 1229.06 557.605V557.605ZM1233.48 553.778C1233.9 553.778 1234.31 553.93 1234.66 554.21L1237.25 556.322C1237.44 556.473 1237.66 556.554 1237.89 556.554C1238.12 556.554 1238.34 556.473 1238.52 556.323C1238.71 556.172 1238.84 555.96 1238.92 555.717C1238.99 555.473 1238.99 555.211 1238.92 554.968L1237.92 551.55C1237.79 551.097 1237.79 550.609 1237.92 550.156C1238.05 549.703 1238.31 549.308 1238.66 549.029L1241.25 546.916C1241.43 546.766 1241.57 546.554 1241.64 546.31C1241.71 546.067 1241.71 545.805 1241.64 545.562C1241.57 545.318 1241.43 545.106 1241.25 544.956C1241.06 544.805 1240.84 544.724 1240.61 544.724H1237.41C1236.98 544.725 1236.57 544.575 1236.22 544.295C1235.88 544.015 1235.63 543.62 1235.49 543.166L1234.5 539.748C1234.43 539.505 1234.3 539.293 1234.11 539.142C1233.93 538.992 1233.7 538.911 1233.48 538.911C1233.25 538.911 1233.03 538.992 1232.84 539.142C1232.66 539.293 1232.52 539.505 1232.45 539.748L1231.46 543.166C1231.33 543.62 1231.07 544.015 1230.73 544.295C1230.38 544.575 1229.97 544.725 1229.54 544.724H1226.34C1226.11 544.724 1225.89 544.805 1225.7 544.956C1225.52 545.106 1225.38 545.318 1225.31 545.562C1225.24 545.805 1225.24 546.067 1225.31 546.31C1225.38 546.554 1225.52 546.766 1225.7 546.916L1228.3 549.029C1228.64 549.308 1228.9 549.703 1229.03 550.156C1229.16 550.609 1229.16 551.097 1229.03 551.55L1228.04 554.968C1227.97 555.211 1227.97 555.473 1228.04 555.717C1228.11 555.96 1228.24 556.172 1228.43 556.323C1228.61 556.473 1228.84 556.554 1229.06 556.554C1229.29 556.554 1229.52 556.473 1229.7 556.322L1232.29 554.21C1232.64 553.93 1233.05 553.778 1233.48 553.778V553.778Z" fill="#3F3D56"/>
<path d="M1068.58 471.643C1067.78 471.643 1067.01 472 1066.44 472.635C1065.88 473.271 1065.56 474.133 1065.56 475.032C1065.56 475.931 1065.88 476.793 1066.44 477.428C1067.01 478.064 1067.78 478.421 1068.58 478.421H1221.6C1222.41 478.421 1223.17 478.064 1223.74 477.428C1224.31 476.793 1224.63 475.931 1224.63 475.032C1224.63 474.133 1224.31 473.271 1223.74 472.635C1223.17 472 1222.41 471.643 1221.6 471.643H1068.58Z" fill="#CCCCCC"/>
<path d="M1068.58 489.371C1067.78 489.371 1067.01 489.728 1066.44 490.363C1065.88 490.999 1065.56 491.861 1065.56 492.76C1065.56 493.659 1065.88 494.521 1066.44 495.156C1067.01 495.792 1067.78 496.149 1068.58 496.149H1221.6C1222.41 496.149 1223.17 495.792 1223.74 495.156C1224.31 494.521 1224.63 493.659 1224.63 492.76C1224.63 491.861 1224.31 490.999 1223.74 490.363C1223.17 489.728 1222.41 489.371 1221.6 489.371H1068.58Z" fill="#CCCCCC"/>
<path d="M1068.58 507.099C1067.78 507.099 1067.01 507.456 1066.44 508.091C1065.88 508.727 1065.56 509.589 1065.56 510.488C1065.56 511.387 1065.88 512.249 1066.44 512.884C1067.01 513.52 1067.78 513.877 1068.58 513.877H1221.6C1222.41 513.877 1223.17 513.52 1223.74 512.884C1224.31 512.249 1224.63 511.387 1224.63 510.488C1224.63 509.589 1224.31 508.727 1223.74 508.091C1223.17 507.456 1222.41 507.099 1221.6 507.099H1068.58Z" fill="#CCCCCC"/>
<path d="M1068.58 471.643C1067.78 471.643 1067.01 472 1066.44 472.635C1065.88 473.271 1065.56 474.133 1065.56 475.032C1065.56 475.931 1065.88 476.793 1066.44 477.428C1067.01 478.064 1067.78 478.421 1068.58 478.421H1221.6C1222.41 478.421 1223.17 478.064 1223.74 477.428C1224.31 476.793 1224.63 475.931 1224.63 475.032C1224.63 474.133 1224.31 473.271 1223.74 472.635C1223.17 472 1222.41 471.643 1221.6 471.643H1068.58Z" fill="#CCCCCC"/>
<path d="M1068.58 489.371C1067.78 489.371 1067.01 489.728 1066.44 490.363C1065.88 490.999 1065.56 491.861 1065.56 492.76C1065.56 493.659 1065.88 494.521 1066.44 495.156C1067.01 495.792 1067.78 496.149 1068.58 496.149H1221.6C1222.41 496.149 1223.17 495.792 1223.74 495.156C1224.31 494.521 1224.63 493.659 1224.63 492.76C1224.63 491.861 1224.31 490.999 1223.74 490.363C1223.17 489.728 1222.41 489.371 1221.6 489.371H1068.58Z" fill="#CCCCCC"/>
<path d="M1068.58 507.099C1067.78 507.099 1067.01 507.456 1066.44 508.091C1065.88 508.727 1065.56 509.589 1065.56 510.488C1065.56 511.387 1065.88 512.249 1066.44 512.884C1067.01 513.52 1067.78 513.877 1068.58 513.877H1221.6C1222.41 513.877 1223.17 513.52 1223.74 512.884C1224.31 512.249 1224.63 511.387 1224.63 510.488C1224.63 509.589 1224.31 508.727 1223.74 508.091C1223.17 507.456 1222.41 507.099 1221.6 507.099H1068.58Z" fill="#CCCCCC"/>
</g>
<defs>
<clipPath id="clip0">
<rect width="373" height="280" fill="white" transform="translate(1043 456)"/>
</clipPath>
</defs>
</svg>
