<svg width="1440" height="1089" viewBox="0 0 1440 1089" fill="none" xmlns="http://www.w3.org/2000/svg">
<rect width="1440" height="1089" fill="white"/>
<g clip-path="url(#clip0)">
<path opacity="0.1" d="M1161.76 557.099C1135.57 556.913 1110.46 548.642 1086.46 539.483C1062.46 530.324 1038.67 520.121 1013.02 515.638C996.516 512.765 977.714 512.853 964.659 522.653C952.097 532.086 948.285 547.831 946.358 562.394C944.903 573.35 944.151 584.86 948.916 594.938C952.223 601.933 957.962 607.724 961.988 614.398C975.987 637.619 967.004 667.038 952.791 690.548C946.103 701.577 938.345 712.141 933.262 723.816C928.179 735.491 925.984 748.772 930.858 760.38C935.69 771.889 946.835 780.31 958.84 786.111C983.227 797.884 1011.74 800.606 1039.52 801.8C1101.01 804.445 1162.71 800.653 1224.23 796.866C1247.01 795.461 1269.88 794.046 1292.22 789.634C1304.62 787.175 1317.41 783.471 1326.29 775.201C1337.58 764.693 1340.08 747.408 1332.14 734.907C1318.83 713.929 1283.08 709.687 1273.62 687.03C1268.41 674.554 1273.23 660.343 1280.21 648.42C1295.18 622.844 1320.67 600.032 1321.47 571.289C1322.02 551.545 1309.17 532.173 1289.72 523.422C1269.31 514.217 1241.34 516.283 1226.74 532.917C1211.73 550.042 1184.91 557.264 1161.76 557.099Z" fill="#6C63FF"/>
<path d="M1146.87 640.016C1146.87 640.016 1135.38 614.863 1118.08 607.615C1110.8 604.631 1104.51 598.813 1100.14 591.033C1098.09 587.321 1096.32 583.383 1094.85 579.271" stroke="#535461" stroke-width="2" stroke-miterlimit="10"/>
<path d="M1083.97 574.621C1085.94 576.987 1095.12 579.431 1095.12 579.431C1095.12 579.431 1092.87 568.164 1090.9 565.798C1089.95 564.662 1088.68 564.038 1087.36 564.062C1086.04 564.086 1084.78 564.757 1083.86 565.927C1082.95 567.097 1082.44 568.67 1082.46 570.301C1082.48 571.931 1083.02 573.485 1083.97 574.621V574.621Z" fill="#6C63FF"/>
<path d="M1089.18 595.026C1091.88 595.688 1100.67 591.57 1100.67 591.57C1100.67 591.57 1093.78 583.615 1091.1 582.954C1089.81 582.639 1088.46 582.974 1087.37 583.883C1086.27 584.793 1085.51 586.204 1085.26 587.804C1085 589.405 1085.27 591.066 1086.01 592.42C1086.75 593.774 1087.89 594.712 1089.18 595.026V595.026Z" fill="#6C63FF"/>
<path d="M1108.08 617.079C1110.67 615.969 1116.57 606.939 1116.57 606.939C1116.57 606.939 1107.42 604.356 1104.82 605.461C1104.2 605.717 1103.62 606.124 1103.12 606.658C1102.62 607.192 1102.22 607.843 1101.93 608.573C1101.63 609.303 1101.46 610.098 1101.42 610.911C1101.38 611.724 1101.47 612.539 1101.68 613.308C1101.9 614.078 1102.24 614.787 1102.68 615.395C1103.11 616.002 1103.65 616.496 1104.24 616.846C1104.84 617.197 1105.48 617.399 1106.14 617.439C1106.8 617.479 1107.46 617.356 1108.08 617.079V617.079Z" fill="#6C63FF"/>
<path d="M1125.43 629.798C1128.14 629.245 1135.19 621.574 1135.19 621.574C1135.19 621.574 1126.52 617.11 1123.81 617.663C1122.51 617.929 1121.35 618.823 1120.58 620.149C1119.81 621.475 1119.5 623.123 1119.71 624.733C1119.93 626.342 1120.65 627.779 1121.72 628.729C1122.8 629.679 1124.13 630.063 1125.43 629.798Z" fill="#6C63FF"/>
<path d="M1108.3 582.752C1108.3 586.151 1103.33 595.998 1103.33 595.998C1103.33 595.998 1098.35 586.157 1098.35 582.757C1098.35 581.127 1098.87 579.563 1099.81 578.411C1100.74 577.258 1102 576.61 1103.32 576.61C1104.64 576.61 1105.91 577.258 1106.84 578.411C1107.77 579.563 1108.3 581.127 1108.3 582.757V582.752Z" fill="#6C63FF"/>
<path d="M1128.44 597.94C1127.61 601.184 1120.5 608.742 1120.5 608.742C1120.5 608.742 1118.13 597.506 1118.95 594.277C1119.35 592.721 1120.23 591.422 1121.39 590.666C1122.56 589.909 1123.93 589.758 1125.19 590.245C1126.45 590.732 1127.5 591.818 1128.11 593.263C1128.72 594.708 1128.84 596.394 1128.45 597.95L1128.44 597.94Z" fill="#6C63FF"/>
<path d="M1146.38 616.02C1146.02 619.389 1140.02 628.331 1140.02 628.331C1140.02 628.331 1136.15 617.751 1136.52 614.383C1136.69 612.767 1137.38 611.303 1138.43 610.314C1139.48 609.325 1140.8 608.891 1142.11 609.109C1143.42 609.326 1144.6 610.176 1145.4 611.472C1146.2 612.768 1146.56 614.404 1146.38 616.02V616.02Z" fill="#6C63FF"/>
<path opacity="0.25" d="M1083.97 574.621C1085.94 576.987 1095.12 579.431 1095.12 579.431C1095.12 579.431 1092.87 568.164 1090.9 565.798C1089.95 564.662 1088.68 564.038 1087.36 564.062C1086.04 564.086 1084.78 564.757 1083.86 565.927C1082.95 567.097 1082.44 568.67 1082.46 570.301C1082.48 571.931 1083.02 573.485 1083.97 574.621V574.621Z" fill="black"/>
<path opacity="0.25" d="M1089.18 595.026C1091.88 595.688 1100.67 591.57 1100.67 591.57C1100.67 591.57 1093.78 583.615 1091.1 582.954C1089.81 582.639 1088.46 582.974 1087.37 583.883C1086.27 584.793 1085.51 586.204 1085.26 587.804C1085 589.405 1085.27 591.066 1086.01 592.42C1086.75 593.774 1087.89 594.712 1089.18 595.026V595.026Z" fill="black"/>
<path opacity="0.25" d="M1108.08 617.079C1110.67 615.969 1116.57 606.939 1116.57 606.939C1116.57 606.939 1107.42 604.356 1104.82 605.461C1104.2 605.717 1103.62 606.124 1103.12 606.658C1102.62 607.192 1102.22 607.843 1101.93 608.573C1101.63 609.303 1101.46 610.098 1101.42 610.911C1101.38 611.724 1101.47 612.539 1101.68 613.308C1101.9 614.078 1102.24 614.787 1102.68 615.395C1103.11 616.002 1103.65 616.496 1104.24 616.846C1104.84 617.197 1105.48 617.399 1106.14 617.439C1106.8 617.479 1107.46 617.356 1108.08 617.079V617.079Z" fill="black"/>
<path opacity="0.25" d="M1125.43 629.798C1128.14 629.245 1135.19 621.574 1135.19 621.574C1135.19 621.574 1126.52 617.11 1123.81 617.663C1122.51 617.929 1121.35 618.823 1120.58 620.149C1119.81 621.475 1119.5 623.123 1119.71 624.733C1119.93 626.342 1120.65 627.779 1121.72 628.729C1122.8 629.679 1124.13 630.063 1125.43 629.798Z" fill="black"/>
<path opacity="0.25" d="M1108.3 582.752C1108.3 586.151 1103.33 595.998 1103.33 595.998C1103.33 595.998 1098.35 586.157 1098.35 582.757C1098.35 581.127 1098.87 579.563 1099.81 578.411C1100.74 577.258 1102 576.61 1103.32 576.61C1104.64 576.61 1105.91 577.258 1106.84 578.411C1107.77 579.563 1108.3 581.127 1108.3 582.757V582.752Z" fill="black"/>
<path opacity="0.25" d="M1128.44 597.94C1127.61 601.184 1120.5 608.742 1120.5 608.742C1120.5 608.742 1118.13 597.506 1118.95 594.277C1119.35 592.721 1120.23 591.422 1121.39 590.666C1122.56 589.909 1123.93 589.758 1125.19 590.245C1126.45 590.732 1127.5 591.818 1128.11 593.263C1128.72 594.708 1128.84 596.394 1128.45 597.95L1128.44 597.94Z" fill="black"/>
<path opacity="0.25" d="M1146.38 616.02C1146.02 619.389 1140.02 628.331 1140.02 628.331C1140.02 628.331 1136.15 617.751 1136.52 614.383C1136.69 612.767 1137.38 611.303 1138.43 610.314C1139.48 609.325 1140.8 608.891 1142.11 609.109C1143.42 609.326 1144.6 610.176 1145.4 611.472C1146.2 612.768 1146.56 614.404 1146.38 616.02V616.02Z" fill="black"/>
<path d="M1146.21 639.52C1146.21 639.52 1143.95 610.767 1130.52 595.476C1124.84 589.107 1121 580.637 1119.55 571.336C1118.89 566.914 1118.57 562.426 1118.57 557.93" stroke="#535461" stroke-width="2" stroke-miterlimit="10"/>
<path d="M1110.15 548.229C1111.17 551.38 1118.77 558.215 1118.77 558.215C1118.77 558.215 1120.4 546.782 1119.38 543.631C1119.14 542.87 1118.78 542.175 1118.32 541.586C1117.87 540.997 1117.32 540.526 1116.72 540.201C1116.11 539.876 1115.46 539.703 1114.8 539.692C1114.14 539.681 1113.48 539.833 1112.87 540.138C1112.26 540.443 1111.7 540.895 1111.23 541.469C1110.77 542.042 1110.39 542.726 1110.14 543.479C1109.89 544.232 1109.76 545.039 1109.76 545.855C1109.76 546.671 1109.89 547.478 1110.15 548.229Z" fill="#6C63FF"/>
<path d="M1108.21 569.476C1110.46 571.429 1119.84 572.059 1119.84 572.059C1119.84 572.059 1116.18 561.366 1113.94 559.413C1112.86 558.474 1111.52 558.104 1110.22 558.384C1108.92 558.663 1107.76 559.57 1107 560.903C1106.24 562.237 1105.95 563.889 1106.17 565.496C1106.4 567.102 1107.13 568.532 1108.21 569.471V569.476Z" fill="#6C63FF"/>
<path d="M1118.27 599.123C1121.01 599.407 1129.36 594.102 1129.36 594.102C1129.36 594.102 1121.84 587.154 1119.1 586.869C1117.78 586.732 1116.48 587.246 1115.47 588.299C1114.46 589.351 1113.83 590.855 1113.72 592.48C1113.61 594.104 1114.03 595.717 1114.88 596.963C1115.73 598.209 1116.95 598.986 1118.26 599.123H1118.27Z" fill="#6C63FF"/>
<path d="M1129.96 619.435C1132.62 620.287 1141.58 616.806 1141.58 616.806C1141.58 616.806 1135.12 608.385 1132.46 607.507C1131.82 607.256 1131.14 607.17 1130.47 607.253C1129.8 607.336 1129.15 607.586 1128.56 607.989C1127.97 608.393 1127.45 608.94 1127.03 609.598C1126.62 610.256 1126.32 611.011 1126.15 611.818C1125.98 612.624 1125.94 613.465 1126.04 614.289C1126.15 615.113 1126.38 615.903 1126.74 616.611C1127.09 617.319 1127.56 617.931 1128.11 618.408C1128.67 618.885 1129.29 619.219 1129.95 619.388L1129.96 619.435Z" fill="#6C63FF"/>
<path d="M1129.73 567.849C1128.62 570.948 1120.84 577.468 1120.84 577.468C1120.84 577.468 1119.52 565.979 1120.63 562.874C1121.16 561.383 1122.15 560.215 1123.39 559.627C1124.62 559.039 1125.99 559.079 1127.19 559.738C1128.4 560.398 1129.34 561.623 1129.82 563.144C1130.3 564.665 1130.26 566.358 1129.73 567.849V567.849Z" fill="#6C63FF"/>
<path d="M1143.16 591.824C1141.35 594.37 1132.35 597.713 1132.35 597.713C1132.35 597.713 1133.87 586.26 1135.69 583.708C1136.13 583.101 1136.65 582.605 1137.24 582.249C1137.82 581.892 1138.46 581.681 1139.11 581.629C1139.76 581.577 1140.42 581.684 1141.04 581.944C1141.66 582.204 1142.23 582.612 1142.72 583.145C1143.21 583.678 1143.61 584.325 1143.9 585.05C1144.19 585.774 1144.36 586.562 1144.4 587.368C1144.44 588.174 1144.36 588.982 1144.14 589.746C1143.93 590.511 1143.6 591.217 1143.17 591.824H1143.16Z" fill="#6C63FF"/>
<path d="M1153.63 617.332C1152.19 620.225 1143.78 625.402 1143.78 625.402C1143.78 625.402 1143.71 613.794 1145.15 610.896C1145.86 609.555 1146.96 608.61 1148.23 608.259C1149.49 607.909 1150.82 608.182 1151.92 609.02C1153.03 609.858 1153.82 611.195 1154.14 612.747C1154.46 614.3 1154.28 615.945 1153.63 617.332V617.332Z" fill="#6C63FF"/>
<path opacity="0.1" d="M1254.5 822.349C1255.73 825.449 1247 828.781 1236.2 829.742C1226.52 830.604 1218.56 829.199 1217.55 826.678C1216.54 824.157 1222.71 821.099 1232.18 819.72C1242.75 818.191 1253.26 819.281 1254.5 822.349Z" fill="#6C63FF"/>
<path d="M1000.44 658.411L1133.61 600.125V801.485L1000.44 798.054V658.411Z" fill="white"/>
<path opacity="0.2" d="M1000.44 658.411L1133.61 600.125V801.485L1000.44 798.054V658.411Z" fill="#6C63FF"/>
<path d="M909 691.664L984.975 658.411V798.054H909V691.664Z" fill="white"/>
<path opacity="0.2" d="M909 691.664L984.975 658.411V798.054H909V691.664Z" fill="#6C63FF"/>
<path d="M1133.61 600.125L1266.78 658.411V798.054L1133.61 801.485V600.125Z" fill="white"/>
<path opacity="0.5" d="M1133.61 600.125L1266.78 658.411V798.054L1133.61 801.485V600.125Z" fill="#6C63FF"/>
<path d="M1359.6 692.082L1282.67 658.411V798.054H1359.6V692.082Z" fill="white"/>
<path opacity="0.5" d="M1359.6 692.082L1282.67 658.411V798.054H1359.6V692.082Z" fill="#6C63FF"/>
<path d="M953.272 715.907C952.733 715.907 952.294 716.816 952.294 717.937V743.209C952.323 745.702 951.847 748.165 950.91 750.374C950.037 752.269 948.699 753.473 947.42 753.473H946.584C945.33 753.473 944.101 752.316 943.139 750.275C942.137 748.073 941.614 745.586 941.622 743.059V710.452C941.596 708.649 941.972 706.873 942.709 705.317C943.407 703.953 944.322 703.199 945.284 703.199C946.245 703.199 947.127 703.953 947.792 705.307C948.497 706.887 948.852 708.669 948.82 710.473V740.92C948.82 743.141 947.984 745.104 946.998 745.104C946.162 745.104 945.225 743.431 945.225 740.92V723.532C945.225 722.416 944.786 721.502 944.247 721.502C943.708 721.502 943.265 722.416 943.265 723.532V740.899C943.265 745.518 944.87 748.999 946.998 748.999C948.034 748.999 948.992 748.204 949.681 746.752C950.453 744.952 950.832 742.935 950.781 740.899V710.452C950.824 707.642 950.26 704.869 949.146 702.419C948.11 700.275 946.726 699.103 945.25 699.103C943.775 699.103 942.391 700.275 941.342 702.419C940.226 704.873 939.663 707.653 939.712 710.467V743.069C939.712 746.804 940.481 750.596 941.76 753.21C943.039 755.824 944.77 757.342 946.542 757.342H947.399C949.134 757.342 950.873 755.824 952.169 753.168C952.839 751.766 953.345 750.253 953.669 748.674C954.044 746.886 954.232 745.045 954.229 743.198V717.886C954.229 716.765 953.811 715.855 953.255 715.855L953.272 715.907Z" fill="white"/>
<path d="M1140.42 772.173C1140.42 772.173 1142.9 776.182 1139.27 782.231C1135.65 788.281 1132.66 793.395 1133.87 797.156C1133.87 797.156 1139.34 785.92 1143.78 785.791C1148.23 785.662 1145.31 778.93 1140.42 772.173Z" fill="#6C63FF"/>
<path opacity="0.1" d="M1140.42 772.173C1140.63 772.563 1140.8 772.987 1140.92 773.434C1145.26 779.736 1147.57 785.615 1143.4 785.765C1139.52 785.904 1134.85 794.49 1133.74 796.66C1133.77 796.835 1133.82 797.008 1133.87 797.176C1133.87 797.176 1139.34 785.94 1143.78 785.811C1148.23 785.682 1145.31 778.93 1140.42 772.173Z" fill="black"/>
<path d="M1145.03 777.283C1145.03 778.693 1144.9 779.835 1144.74 779.835C1144.58 779.835 1144.45 778.693 1144.45 777.283C1144.45 775.872 1144.61 776.534 1144.77 776.534C1144.93 776.534 1145.03 775.872 1145.03 777.283Z" fill="#FFD037"/>
<path d="M1146.61 778.967C1145.61 779.638 1144.73 780.046 1144.66 779.876C1144.58 779.705 1145.33 779.018 1146.33 778.326C1147.33 777.634 1146.94 778.145 1147.01 778.326C1147.09 778.507 1147.61 778.29 1146.61 778.967Z" fill="#FFD037"/>
<path d="M1127.32 772.173C1127.32 772.173 1124.84 776.182 1128.47 782.231C1132.09 788.281 1135.08 793.395 1133.87 797.156C1133.87 797.156 1128.4 785.92 1123.95 785.791C1119.5 785.662 1122.43 778.93 1127.32 772.173Z" fill="#6C63FF"/>
<path opacity="0.1" d="M1127.32 772.173C1127.11 772.563 1126.94 772.987 1126.82 773.434C1122.47 779.736 1120.16 785.615 1124.34 785.765C1128.22 785.904 1132.89 794.49 1134 796.66C1133.97 796.835 1133.92 797.008 1133.87 797.176C1133.87 797.176 1128.4 785.94 1123.95 785.811C1119.5 785.682 1122.43 778.93 1127.32 772.173Z" fill="black"/>
<path d="M1122.72 777.283C1122.72 778.693 1122.84 779.835 1123 779.835C1123.16 779.835 1123.29 778.693 1123.29 777.283C1123.29 775.872 1123.13 776.534 1122.97 776.534C1122.82 776.534 1122.72 775.872 1122.72 777.283Z" fill="#FFD037"/>
<path d="M1121.13 778.967C1122.13 779.638 1123.01 780.046 1123.08 779.876C1123.16 779.705 1122.41 779.018 1121.41 778.326C1120.41 777.634 1120.81 778.145 1120.73 778.326C1120.65 778.507 1120.12 778.29 1121.13 778.967Z" fill="#FFD037"/>
<path opacity="0.1" d="M1133.87 827.799C1148.18 827.799 1159.79 825.6 1159.79 822.887C1159.79 820.173 1148.18 817.974 1133.87 817.974C1119.55 817.974 1107.95 820.173 1107.95 822.887C1107.95 825.6 1119.55 827.799 1133.87 827.799Z" fill="#6C63FF"/>
<path d="M1147.21 791.757L1147.09 793.007L1146.91 794.774L1146.84 795.508L1146.66 797.28L1146.59 798.013L1146.42 799.78L1144.43 819.875C1144.26 821.668 1141.89 823.068 1139.02 823.068H1128.72C1125.85 823.068 1123.49 821.668 1123.31 819.875L1121.32 799.78L1121.15 798.013L1121.08 797.28L1120.9 795.508L1120.83 794.774L1120.65 793.007L1120.53 791.757C1120.43 790.724 1121.71 789.882 1123.33 789.882H1144.41C1146.03 789.882 1147.31 790.74 1147.21 791.757Z" fill="#444053"/>
<path d="M1147.09 793.007L1146.91 794.774H1120.83L1120.65 793.007H1147.09Z" fill="#9D9CB5"/>
<path d="M1146.84 795.513L1146.66 797.28H1121.08L1120.9 795.513H1146.84Z" fill="#9D9CB5"/>
<path d="M1146.59 798.018L1146.42 799.785H1121.32L1121.15 798.018H1146.59Z" fill="#9D9CB5"/>
<path d="M1083.48 682.639L1079.49 689.195C1079.46 689.256 1079.41 689.303 1079.35 689.332C1079.3 689.36 1079.24 689.368 1079.18 689.355L1075.05 688.136C1074.98 688.099 1074.91 688.036 1074.86 687.954C1074.81 687.871 1074.78 687.773 1074.77 687.671L1074.03 680.919C1074.01 680.738 1074.05 680.553 1074.13 680.402L1078.11 673.857C1078.26 673.594 1078.33 673.277 1078.32 672.956C1078.3 672.636 1078.2 672.332 1078.02 672.096C1077.27 671.165 1076.26 670.613 1075.2 670.546C1075.14 670.538 1075.08 670.538 1075.02 670.546C1073.91 670.649 1071.53 671.667 1069.69 674.864C1067.9 677.964 1066.03 683.677 1067.69 690.062C1067.88 690.832 1068.11 691.85 1067.45 692.929C1066.78 694.009 1049.7 720.308 1049.7 720.308C1048.1 722.566 1048.22 726.74 1049.7 729.168C1050.02 729.722 1050.43 730.179 1050.91 730.501C1051.4 730.824 1051.93 731.004 1052.48 731.028C1053.01 731.015 1053.54 730.834 1054 730.5C1054.46 730.166 1054.84 729.691 1055.11 729.121C1055.11 729.121 1071.05 701.329 1071.83 700.063C1071.93 699.852 1072.08 699.674 1072.25 699.546C1072.42 699.417 1072.62 699.341 1072.82 699.325C1073.09 699.342 1073.36 699.463 1073.58 699.671C1074.43 700.387 1075.43 700.763 1076.46 700.751C1078.84 700.751 1081.34 698.942 1082.87 696.442C1084.45 693.928 1085.37 690.878 1085.5 687.702C1085.56 685.968 1085.23 684.249 1084.55 682.727C1084.51 682.602 1084.44 682.495 1084.35 682.415C1084.26 682.336 1084.15 682.288 1084.04 682.277C1083.93 682.265 1083.82 682.29 1083.73 682.349C1083.63 682.409 1083.54 682.5 1083.48 682.613V682.639ZM1053.38 726.006C1053.29 726.188 1053.16 726.336 1053 726.439C1052.85 726.542 1052.67 726.596 1052.5 726.596C1052.32 726.596 1052.15 726.542 1052 726.439C1051.84 726.336 1051.71 726.188 1051.62 726.006C1051.38 725.579 1051.26 725.075 1051.26 724.56C1051.26 724.044 1051.38 723.541 1051.62 723.113C1051.71 722.932 1051.84 722.784 1052 722.681C1052.15 722.578 1052.32 722.524 1052.5 722.524C1052.67 722.524 1052.85 722.578 1053 722.681C1053.16 722.784 1053.29 722.932 1053.38 723.113C1053.62 723.54 1053.74 724.044 1053.74 724.559C1053.74 725.075 1053.62 725.579 1053.39 726.006H1053.38Z" fill="white"/>
<path d="M1224.82 695.311C1223.71 679.545 1215.06 667.26 1204.54 667.26C1197.58 667.26 1191.45 672.628 1187.76 680.826C1186.63 680.101 1185.38 679.721 1184.11 679.715C1178.79 679.715 1174.49 686.947 1174.39 695.099C1168.96 697.765 1165.38 705.947 1165.38 714.533C1165.38 725.056 1170.92 734.344 1177.74 734.344H1222.65C1229.48 734.344 1235.01 725.046 1235.01 714.533C1235.01 705.162 1230.61 696.902 1224.82 695.311V695.311ZM1214.67 691.695L1196.49 719.849C1196.26 720.205 1195.66 721.001 1194.91 721.001C1194.59 720.955 1194.29 720.824 1194.01 720.619C1193.74 720.413 1193.5 720.136 1193.32 719.807L1185.69 708.055C1185.59 707.883 1185.53 707.674 1185.53 707.458C1185.53 707.243 1185.59 707.033 1185.69 706.862L1188.11 703.132C1188.16 703.057 1188.21 702.995 1188.28 702.951C1188.35 702.907 1188.42 702.882 1188.49 702.879C1188.57 702.882 1188.64 702.906 1188.71 702.95C1188.77 702.994 1188.83 703.056 1188.87 703.132L1194.92 712.431L1211.5 686.668C1211.55 686.594 1211.6 686.532 1211.67 686.489C1211.73 686.445 1211.81 686.42 1211.88 686.415C1211.96 686.416 1212.03 686.439 1212.1 686.483C1212.16 686.527 1212.22 686.591 1212.26 686.668L1214.64 690.465C1214.76 690.633 1214.82 690.845 1214.83 691.066C1214.84 691.287 1214.78 691.503 1214.67 691.679V691.695Z" fill="white"/>
<path d="M1334.91 720.277C1337.19 720.277 1339.04 717.227 1339.04 713.464C1339.04 709.701 1337.19 706.65 1334.91 706.65C1332.63 706.65 1330.78 709.701 1330.78 713.464C1330.78 717.227 1332.63 720.277 1334.91 720.277Z" fill="white"/>
<path d="M1334.91 722.907C1334.45 722.904 1334 722.814 1333.57 722.638L1329.49 729.493C1329.45 729.551 1329.43 729.621 1329.43 729.692C1329.43 729.764 1329.45 729.833 1329.49 729.891L1335.97 741.256C1336.19 741.64 1336.3 742.096 1336.3 742.563C1336.3 743.03 1336.19 743.486 1335.97 743.87C1335.88 744.025 1335.76 744.152 1335.62 744.242C1335.48 744.332 1335.33 744.381 1335.18 744.386C1335.02 744.381 1334.87 744.332 1334.73 744.242C1334.6 744.153 1334.48 744.025 1334.39 743.87L1327.93 732.505C1327.91 732.479 1327.9 732.458 1327.87 732.444C1327.85 732.429 1327.83 732.422 1327.8 732.422C1327.78 732.422 1327.75 732.429 1327.73 732.444C1327.71 732.458 1327.69 732.479 1327.68 732.505L1326.1 735.15C1324.78 737.351 1323.04 737.02 1321.16 737.036C1319.28 737.051 1317.45 735.729 1316.11 733.497L1314.6 730.955C1314.58 730.93 1314.57 730.909 1314.54 730.894C1314.52 730.88 1314.5 730.872 1314.47 730.872C1314.45 730.872 1314.42 730.88 1314.4 730.894C1314.38 730.909 1314.36 730.93 1314.35 730.955L1307.89 742.32C1307.8 742.475 1307.68 742.603 1307.54 742.692C1307.4 742.782 1307.25 742.831 1307.09 742.837C1306.94 742.832 1306.79 742.782 1306.65 742.693C1306.51 742.603 1306.4 742.476 1306.3 742.32C1306.09 741.936 1305.98 741.48 1305.98 741.013C1305.98 740.546 1306.09 740.091 1306.3 739.706L1312.79 728.341C1312.82 728.281 1312.83 728.212 1312.83 728.142C1312.83 728.073 1312.82 728.004 1312.79 727.944L1303.51 712.384C1303.4 712.198 1303.22 712.327 1303.22 712.58V743.72C1303.22 746.22 1304.47 748.266 1305.97 748.266L1336.29 749.816C1337.81 749.816 1339.04 747.749 1339.04 745.27V719.993C1338 721.786 1336.54 722.907 1334.91 722.907Z" fill="white"/>
<path d="M1329.18 713.464C1329.18 711.906 1329.42 710.362 1329.89 708.918L1305.97 707.368C1305.64 707.378 1305.32 707.472 1305.03 707.643C1304.73 707.815 1304.47 708.061 1304.26 708.365L1317.77 731.043C1318.14 731.736 1318.64 732.309 1319.23 732.713C1319.81 733.118 1320.47 733.342 1321.14 733.368C1322.39 733.368 1323.61 734.096 1324.51 732.593L1331.44 720.959C1330.06 719.229 1329.18 716.517 1329.18 713.464V713.464Z" fill="white"/>
<path d="M1362.91 795.141C1362.91 795.141 1358.02 794.779 1358.6 799.005C1358.57 799.218 1358.59 799.437 1358.67 799.633C1358.74 799.829 1358.86 799.99 1359.02 800.095C1359.02 800.095 1359.02 799.78 1359.52 799.888C1359.69 799.923 1359.87 799.934 1360.05 799.919C1360.29 799.896 1360.51 799.781 1360.7 799.589V799.589C1360.7 799.589 1362.07 798.886 1362.6 796.112C1362.6 796.112 1363 795.508 1362.98 795.353L1362.15 795.787C1362.3 796.21 1362.33 796.693 1362.21 797.135C1362.21 797.135 1362.18 795.812 1362.02 795.843C1361.99 795.843 1361.6 796.102 1361.6 796.102C1361.6 796.102 1362.09 797.378 1361.73 798.307C1361.73 798.307 1361.86 796.758 1361.45 796.195L1360.87 796.613C1360.87 796.613 1361.44 797.93 1361.06 799.01C1361.06 799.01 1361.16 797.357 1360.75 796.711L1360.22 797.228C1360.22 797.228 1360.76 798.535 1360.43 799.428C1360.43 799.428 1360.39 797.502 1360.11 797.362C1359.91 797.571 1359.73 797.808 1359.58 798.07C1359.58 798.07 1359.94 799.015 1359.72 799.511C1359.72 799.511 1359.58 798.23 1359.47 798.225C1359.23 798.658 1359.06 799.144 1358.96 799.656C1358.99 799.117 1359.12 798.595 1359.36 798.142C1359.09 798.204 1358.85 798.36 1358.66 798.592C1358.66 798.592 1358.73 797.992 1359.49 797.935C1359.63 797.687 1359.79 797.458 1359.97 797.254C1359.57 797.211 1359.16 797.269 1358.78 797.424C1358.78 797.424 1359.2 796.856 1360.11 797.114L1360.63 796.598C1360.17 796.505 1359.7 796.505 1359.24 796.598C1359.24 796.598 1359.71 796.081 1360.76 796.463L1361.33 796.045C1360.9 795.926 1360.45 795.878 1360.01 795.9C1360.49 795.677 1361.02 795.689 1361.5 795.931L1361.91 795.709C1361.91 795.709 1361.3 795.559 1361.13 795.539C1360.95 795.518 1360.94 795.451 1360.94 795.451C1361.32 795.373 1361.72 795.428 1362.08 795.611C1362.37 795.484 1362.64 795.327 1362.91 795.141Z" fill="#6C63FF"/>
<path opacity="0.1" d="M1359.54 801.185C1361.45 801.185 1363 800.861 1363 800.462C1363 800.062 1361.45 799.739 1359.54 799.739C1357.63 799.739 1356.09 800.062 1356.09 800.462C1356.09 800.861 1357.63 801.185 1359.54 801.185Z" fill="#6C63FF"/>
<path d="M1287.65 795.316C1287.65 795.316 1281.75 794.877 1282.45 799.966C1282.41 800.225 1282.44 800.491 1282.54 800.727C1282.63 800.962 1282.78 801.155 1282.97 801.278C1282.97 801.278 1282.97 800.901 1283.58 801.03C1283.79 801.074 1284 801.086 1284.22 801.066C1284.51 801.043 1284.78 800.903 1285 800.668V800.668C1285 800.668 1286.67 799.821 1287.3 796.474C1287.3 796.474 1287.78 795.745 1287.76 795.554L1286.77 796.071C1286.96 796.58 1286.98 797.161 1286.84 797.693C1286.84 797.693 1286.81 796.102 1286.62 796.143C1286.58 796.143 1286.1 796.448 1286.1 796.448C1286.1 796.448 1286.68 797.998 1286.24 799.119C1286.24 799.119 1286.41 797.212 1285.91 796.536L1285.22 797.052C1285.22 797.052 1285.9 798.648 1285.44 799.955C1285.44 799.955 1285.55 797.956 1285.07 797.176L1284.43 797.791C1284.43 797.791 1285.08 799.341 1284.68 800.441C1284.68 800.441 1284.63 798.116 1284.3 797.941C1284.06 798.191 1283.84 798.478 1283.66 798.793C1283.66 798.793 1284.07 799.935 1283.82 800.539C1283.82 800.539 1283.66 798.989 1283.52 798.989C1283.23 799.515 1283.02 800.102 1282.91 800.72C1282.94 800.07 1283.1 799.439 1283.38 798.891C1283.07 798.962 1282.78 799.141 1282.55 799.408C1282.55 799.408 1282.64 798.679 1283.53 798.617C1283.7 798.315 1283.89 798.038 1284.11 797.791C1283.63 797.74 1283.14 797.81 1282.68 797.997C1282.68 797.997 1283.15 797.31 1284.27 797.62L1284.9 796.99C1284.35 796.879 1283.78 796.879 1283.23 796.99C1283.23 796.99 1283.8 796.386 1285.07 796.825L1285.75 796.308C1285.23 796.165 1284.69 796.108 1284.15 796.138C1284.15 796.138 1284.78 795.714 1285.96 796.169L1286.44 795.9C1286.44 795.9 1285.71 795.725 1285.49 795.694C1285.27 795.663 1285.27 795.59 1285.27 795.59C1285.73 795.496 1286.21 795.562 1286.65 795.781C1286.99 795.664 1287.33 795.508 1287.65 795.316V795.316Z" fill="#6C63FF"/>
<path opacity="0.1" d="M1283.59 802.616C1285.89 802.616 1287.76 802.225 1287.76 801.743C1287.76 801.261 1285.89 800.87 1283.59 800.87C1281.29 800.87 1279.42 801.261 1279.42 801.743C1279.42 802.225 1281.29 802.616 1283.59 802.616Z" fill="#6C63FF"/>
<path d="M1250.67 744.392C1250.67 744.392 1251.15 743.818 1250.99 743.431C1250.95 743.311 1250.92 743.179 1250.92 743.046C1250.92 742.913 1250.95 742.781 1250.99 742.661C1250.99 742.661 1249.91 737.423 1249.51 736.896C1249.25 736.512 1249.05 736.071 1248.91 735.594C1248.96 735.492 1248.98 735.378 1248.97 735.264C1248.96 734.736 1248.81 734.226 1248.56 733.802C1248.24 733.229 1248.07 732.556 1248.06 731.864C1248.05 731.778 1248.05 731.692 1248.06 731.606V731.606C1247.94 731.217 1247.74 730.87 1247.49 730.594C1247.24 730.318 1246.94 730.121 1246.61 730.02C1246.75 728.91 1246.94 727.799 1247 726.683C1247.18 723.186 1246.13 719.792 1245.09 716.517C1244.87 715.705 1244.56 714.93 1244.19 714.208C1243.72 713.453 1243.14 712.828 1242.46 712.374C1241.79 711.92 1241.05 711.647 1240.28 711.573C1239.72 711.486 1239.15 711.555 1238.61 711.774C1238.08 712.069 1237.59 712.473 1237.17 712.968C1236.72 713.433 1236.27 713.908 1235.86 714.414L1235.81 714.476L1235.66 714.667L1235.61 714.74L1235.47 714.931L1235.42 714.998C1235.36 715.086 1235.3 715.174 1235.24 715.267C1235.18 715.354 1235.13 715.437 1235.08 715.525L1235.03 715.613L1234.92 715.804L1234.87 715.902C1234.83 715.969 1234.8 716.036 1234.77 716.103L1234.72 716.196C1234.68 716.295 1234.64 716.393 1234.59 716.496L1234.44 716.909V716.966L1234.36 717.24C1234.24 717.571 1234.13 717.901 1234 718.216L1233.97 718.268L1233.67 718.717C1233.53 718.941 1233.42 719.183 1233.33 719.441L1233.3 719.523C1233.3 719.559 1233.28 719.601 1233.26 719.637L1233.24 719.73C1233.23 719.77 1233.22 719.81 1233.21 719.849C1233.21 719.88 1233.21 719.911 1233.21 719.947L1233.18 720.06C1233.18 720.097 1233.18 720.128 1233.18 720.164C1233.18 720.2 1233.18 720.241 1233.16 720.277V720.386V720.5C1233.16 720.541 1233.16 720.582 1233.16 720.629C1233.16 720.675 1233.16 720.691 1233.16 720.717C1233.16 720.742 1233.16 720.861 1233.16 720.934C1233.16 721.006 1233.16 720.99 1233.16 721.021C1233.16 721.068 1233.16 721.114 1233.16 721.161C1233.16 721.192 1233.16 721.223 1233.16 721.254C1233.16 721.297 1233.16 721.34 1233.16 721.383V721.476C1233.16 721.522 1233.16 721.564 1233.16 721.605C1233.16 721.636 1233.16 721.667 1233.16 721.698L1233.18 721.832C1233.18 721.832 1233.18 721.889 1233.18 721.915L1233.22 722.06C1233.22 722.06 1233.22 722.106 1233.24 722.127C1233.26 722.147 1233.29 722.271 1233.31 722.339C1233.44 722.685 1233.6 723.014 1233.78 723.32C1233.9 723.527 1234.03 723.728 1234.15 723.935L1234.33 724.245C1234.45 724.451 1234.56 724.666 1234.66 724.891C1234.95 725.583 1235.1 726.357 1235.07 727.138C1235.05 727.919 1234.86 728.679 1234.53 729.344L1234.38 729.628C1234.3 729.785 1234.24 729.96 1234.21 730.144C1234.19 730.304 1234.21 730.466 1234.25 730.618C1234.29 730.771 1234.36 730.911 1234.45 731.028L1234.08 731.146C1233.77 731.25 1233.56 731.332 1233.56 731.332C1233.31 731.305 1233.05 731.305 1232.8 731.332C1232.45 731.469 1232.13 731.719 1231.88 732.056C1231.88 732.056 1230.29 732.293 1229.77 731.72C1229.24 731.146 1227.41 730.95 1227.41 730.95C1227.41 730.95 1226.89 729.7 1226.33 729.313C1225.77 728.925 1224.42 728.207 1224.38 727.825C1224.26 727.42 1224.09 727.045 1223.86 726.719C1223.58 726.646 1223.3 726.605 1223.02 726.595L1222.94 726.409L1221.82 724.028C1221.82 724.028 1220.42 722.008 1219.66 721.817C1218.91 721.626 1220.73 723.961 1220.82 724.069C1220.56 723.841 1220.24 723.749 1219.92 723.812C1219.61 723.876 1219.33 724.091 1219.14 724.41C1218.55 725.226 1220.13 727.143 1221.1 728.202L1221.26 728.372C1221.27 728.478 1221.28 728.584 1221.3 728.687C1221.74 731.524 1224.17 733.977 1224.17 733.977C1224.17 733.977 1224.45 735.563 1225.37 735.951C1226.1 736.255 1230.03 738.456 1232.08 738.895C1231.91 739.443 1231.71 740.714 1232.56 742.584C1232.56 742.584 1232.76 745.9 1232.32 746.334C1231.88 746.768 1231.9 751.572 1231.9 751.572C1231.9 751.572 1230.23 759.936 1231.9 761.713C1232.01 761.825 1232.13 761.916 1232.26 761.981C1232.26 762.111 1232.29 762.245 1232.3 762.384C1232.37 763.221 1232.4 764.089 1232.22 764.451C1231.8 765.267 1232.36 767.478 1232.36 767.478C1232.36 767.478 1230.74 778.776 1231.46 782.764C1231.92 785.743 1232.13 788.772 1232.1 791.804C1232.1 791.804 1231.86 795.311 1233.1 797.429C1233.23 797.93 1233.31 798.452 1233.34 798.979C1233.42 799.992 1233.63 800.982 1233.97 801.908C1234.25 802.58 1234.81 805.421 1234.33 806.186C1233.86 806.95 1234.85 815.324 1234.85 815.324C1234.85 815.324 1234.05 817.907 1234.85 819.265L1234.88 819.302C1234.4 819.295 1233.93 819.211 1233.48 819.054C1232.58 818.682 1233.25 820.087 1234.31 821.048C1233.85 822.349 1233.21 824.096 1233 824.664C1232.08 824.86 1230.25 825.18 1229.17 824.865C1227.7 824.436 1229.81 827.365 1231.81 827.898C1233.21 828.223 1234.65 828.351 1236.08 828.28L1237.37 826.523C1238.41 826.696 1239.46 826.744 1240.5 826.668L1240.39 828.301H1241.15V826.606C1241.62 826.549 1242.12 826.472 1242.63 826.358C1242.63 826.358 1242.66 824.571 1242.57 822.882L1243.03 822.933L1243.1 821.998L1244.74 822.365L1246.22 807.384C1246.22 807.384 1246.38 801.81 1246.74 798.685C1247.1 795.559 1245.98 785.078 1245.98 785.078C1245.98 785.078 1245.9 784.561 1245.82 783.59C1245.74 782.619 1245.82 776.952 1245.82 776.952C1245.82 776.952 1246.42 773.852 1246.3 773.589C1246.19 773.326 1246.34 772.003 1246.34 772.003C1248.85 765.685 1245.76 759.977 1244.69 758.283C1244.75 758.211 1244.79 758.113 1244.79 758.009C1244.8 757.973 1244.8 757.936 1244.79 757.9C1244.62 757.366 1244.42 756.848 1244.19 756.351L1244.82 755.364C1245.04 755.751 1245.19 756.041 1245.19 756.041C1245.19 756.041 1245.87 754.165 1246.55 753.458C1247.23 752.75 1250.5 746.009 1250.5 746.009C1250.5 746.009 1251.26 745.378 1250.86 744.851C1250.46 744.325 1250.67 744.392 1250.67 744.392ZM1240.61 797.559C1240.56 797.341 1240.46 797.143 1240.33 796.985C1240.33 796.985 1240.21 795.952 1240.17 794.624C1240.41 795.658 1240.65 796.407 1240.65 796.407L1240.61 797.559ZM1242.49 822.132C1242.49 822.039 1242.49 821.946 1242.49 821.859H1242.55L1242.49 822.132ZM1242.99 753.747V753.685C1242.98 753.553 1243 753.419 1243.04 753.299C1243.09 753.178 1243.16 753.075 1243.25 752.998C1243.29 752.963 1243.33 752.913 1243.35 752.854C1243.38 752.795 1243.39 752.728 1243.38 752.662C1243.37 752.445 1243.3 752.238 1243.19 752.063C1243.27 752.135 1243.52 752.301 1243.69 751.701C1243.71 751.608 1243.72 751.51 1243.72 751.412C1243.68 750.911 1243.52 750.438 1243.25 750.059L1245.06 745.358C1245.25 745.43 1245.46 745.487 1245.66 745.528V745.528C1245.19 747.336 1244.8 749.49 1244.8 749.49L1243.4 753.287C1243.5 753.333 1243.58 753.407 1243.64 753.504L1242.99 753.747Z" fill="url(#paint0_linear)"/>
<path d="M1236.98 819.183C1236.98 819.183 1234.64 819.539 1233.49 819.053C1232.35 818.568 1233.85 821.12 1235.39 821.745C1236.48 822.14 1237.6 822.375 1238.73 822.447L1240.54 820.34L1242.46 820.526L1242.13 822.856L1242.73 822.923L1242.96 819.875L1236.98 819.183Z" fill="#444053"/>
<path opacity="0.1" d="M1236.98 819.183C1236.98 819.183 1234.64 819.539 1233.49 819.053C1232.35 818.568 1233.85 821.12 1235.39 821.745C1236.48 822.14 1237.6 822.375 1238.73 822.447L1240.54 820.34L1242.46 820.526L1242.13 822.856L1242.73 822.923L1242.96 819.875L1236.98 819.183Z" fill="black"/>
<path d="M1233.59 824.509C1233.59 824.509 1230.78 825.268 1229.35 824.839C1227.93 824.411 1229.97 827.319 1231.9 827.841C1233.26 828.166 1234.64 828.294 1236.02 828.223L1238.03 825.413L1240.38 825.366L1240.19 828.244H1240.92V824.509H1233.59Z" fill="#444053"/>
<path opacity="0.1" d="M1233.59 824.509C1233.59 824.509 1230.78 825.268 1229.35 824.839C1227.93 824.411 1229.97 827.319 1231.9 827.841C1233.26 828.166 1234.64 828.294 1236.02 828.223L1238.03 825.413L1240.38 825.366L1240.19 828.244H1240.92V824.509H1233.59Z" fill="black"/>
<path d="M1244 758.319C1244 758.319 1248.82 764.941 1245.93 772.422C1245.93 772.422 1245.78 773.759 1245.89 773.997C1246.01 774.235 1245.43 777.334 1245.43 777.334C1245.43 777.334 1245.35 782.955 1245.43 783.91C1245.51 784.866 1245.59 785.383 1245.59 785.383C1245.59 785.383 1246.67 795.771 1246.32 798.871C1245.97 801.97 1245.82 807.498 1245.82 807.498L1244.39 822.365L1236.99 820.65L1240.33 800.25L1240.45 796.634C1240.45 796.634 1239.06 792.207 1239.68 789.965C1240.29 787.723 1239.52 759.181 1239.52 759.181L1244 758.319Z" fill="#444053"/>
<path opacity="0.02" d="M1244 758.319C1244 758.319 1248.82 764.941 1245.93 772.422C1245.93 772.422 1245.78 773.759 1245.89 773.997C1246.01 774.235 1245.43 777.334 1245.43 777.334C1245.43 777.334 1245.35 782.955 1245.43 783.91C1245.51 784.866 1245.59 785.383 1245.59 785.383C1245.59 785.383 1246.67 795.771 1246.32 798.871C1245.97 801.97 1245.82 807.498 1245.82 807.498L1244.39 822.365L1236.99 820.65L1240.33 800.25L1240.45 796.634C1240.45 796.634 1239.06 792.207 1239.68 789.965C1240.29 787.723 1239.52 759.181 1239.52 759.181L1244 758.319Z" fill="black"/>
<path d="M1240.46 790.342C1239.62 792.341 1240.15 797.202 1240.15 797.202C1241.26 798.395 1240.65 808.784 1240.65 808.784C1240.65 808.784 1241.42 819.028 1241.9 820.221C1242.39 821.414 1242.32 826.317 1242.32 826.317C1236.65 827.603 1232.95 824.839 1232.95 824.839C1232.95 824.839 1234.76 819.741 1234.8 819.503C1234.82 819.369 1235.07 819.73 1235.14 819.839L1234.8 819.265C1234.03 817.933 1234.8 815.36 1234.8 815.36C1234.8 815.36 1233.84 807.095 1234.3 806.304C1234.76 805.514 1234.23 802.729 1233.95 802.063C1233.62 801.141 1233.41 800.159 1233.34 799.155C1233.31 798.636 1233.24 798.124 1233.11 797.631C1231.91 795.533 1232.14 792.057 1232.14 792.057C1232.17 789.053 1231.97 786.053 1231.53 783.099C1230.83 779.142 1232.39 767.943 1232.39 767.943C1232.39 767.943 1231.87 765.752 1232.26 764.941C1232.43 764.58 1232.41 763.722 1232.33 762.875C1232.24 761.842 1232.06 760.881 1232.06 760.881L1242.59 758.587C1242.82 759.042 1243.01 759.481 1243.2 759.905C1246.69 767.855 1244.34 770.805 1244.34 770.805L1242.1 779.287C1242.1 779.287 1241.31 788.337 1240.46 790.342Z" fill="#444053"/>
<path d="M1223.78 728.155L1222.28 729.705C1222.28 729.705 1221.98 729.416 1221.59 728.977C1220.64 727.944 1219.12 726.027 1219.7 725.221C1219.78 725.066 1219.89 724.933 1220.02 724.831C1220.15 724.73 1220.29 724.661 1220.44 724.63C1220.6 724.599 1220.75 724.605 1220.9 724.649C1221.05 724.693 1221.19 724.773 1221.31 724.885C1221.23 724.772 1219.48 722.463 1220.2 722.649C1220.92 722.835 1222.29 724.839 1222.29 724.839L1223.37 727.2L1223.78 728.155Z" fill="#EFB7B9"/>
<path d="M1243.93 753.892L1242.16 754.558L1243.5 757.461L1245.04 754.987L1243.93 753.892Z" fill="#EFB7B9"/>
<path d="M1239.76 726.585C1242.55 726.585 1244.81 723.791 1244.81 720.345C1244.81 716.898 1242.55 714.104 1239.76 714.104C1236.98 714.104 1234.71 716.898 1234.71 720.345C1234.71 723.791 1236.98 726.585 1239.76 726.585Z" fill="#EFB7B9"/>
<path d="M1236.79 722.623C1236.79 722.623 1241.39 731.627 1237.03 732.391C1232.66 733.156 1242.88 738.632 1242.88 738.632L1246.7 733.869C1246.7 733.869 1242.72 725.386 1243.35 722.147C1243.98 718.908 1236.79 722.623 1236.79 722.623Z" fill="#EFB7B9"/>
<path opacity="0.1" d="M1243.22 759.905C1242.2 760.289 1241.16 760.587 1240.11 760.798C1240.11 760.798 1234.43 763.898 1232.36 762.865C1232.27 761.831 1232.09 760.871 1232.09 760.871L1242.59 758.587C1242.83 759.042 1243.03 759.481 1243.22 759.905Z" fill="black"/>
<path d="M1248.45 736.348L1247.42 738.978L1246.26 741.933L1246.09 742.356L1244.72 746.029L1242.97 750.678C1242.97 750.678 1243.59 751.582 1243.39 752.3C1243.19 753.019 1242.92 752.678 1242.89 752.636C1242.92 752.693 1243.31 753.313 1242.96 753.587C1242.86 753.696 1242.78 753.839 1242.74 753.999C1242.7 754.158 1242.7 754.329 1242.73 754.491C1242.73 754.491 1244.16 757.399 1244.43 758.448C1244.7 759.496 1240.11 760.401 1240.11 760.401C1240.11 760.401 1233.59 763.975 1231.97 762.209C1230.35 760.442 1231.97 752.156 1231.97 752.156C1231.97 752.156 1231.97 747.393 1232.39 746.964C1232.81 746.535 1232.62 743.245 1232.62 743.245C1231.5 740.719 1232.27 739.288 1232.27 739.288L1231.96 732.81C1231.96 732.81 1232.47 732.143 1232.85 732.097C1233.1 732.066 1233.34 732.066 1233.59 732.097C1233.59 732.097 1233.79 732.009 1234.08 731.911C1234.7 731.694 1235.73 731.394 1236.09 731.616C1236.63 731.952 1240.1 731.1 1240.1 731.1C1241.6 730.829 1243.1 730.657 1244.61 730.583C1245.13 730.545 1245.65 730.615 1246.14 730.79C1246.48 730.883 1246.79 731.079 1247.05 731.36C1247.31 731.641 1247.5 731.997 1247.62 732.396C1247.56 733.171 1247.73 733.946 1248.08 734.587C1248.71 735.827 1248.45 736.348 1248.45 736.348Z" fill="#FF6484"/>
<path opacity="0.1" d="M1223.78 728.155L1222.28 729.705C1222.28 729.705 1221.98 729.416 1221.59 728.977C1221.47 727.37 1222.58 727.158 1223.36 727.2L1223.78 728.155Z" fill="black"/>
<path d="M1232.63 732.779L1231.97 732.825C1231.97 732.825 1230.43 733.063 1229.93 732.489C1229.43 731.916 1227.65 731.73 1227.65 731.73C1227.65 731.73 1227.15 730.49 1226.61 730.108C1226.07 729.726 1224.76 729.013 1224.72 728.631C1224.61 728.231 1224.44 727.859 1224.22 727.535C1224.22 727.535 1221.33 726.678 1221.76 729.488C1222.18 732.298 1224.53 734.731 1224.53 734.731C1224.53 734.731 1224.8 736.281 1225.69 736.684C1226.58 737.087 1232.32 740.404 1233.25 739.546C1234.18 738.689 1232.63 732.779 1232.63 732.779Z" fill="#FF6484"/>
<path opacity="0.1" d="M1248.09 734.571C1247.73 733.931 1247.57 733.156 1247.63 732.381C1247.51 731.982 1247.31 731.625 1247.06 731.345C1246.8 731.064 1246.49 730.868 1246.15 730.774C1245.91 730.685 1245.66 730.624 1245.4 730.594C1245.73 730.69 1246.04 730.886 1246.29 731.165C1246.55 731.443 1246.74 731.796 1246.86 732.19C1246.8 732.965 1246.96 733.741 1247.32 734.38C1247.94 735.62 1247.67 736.147 1247.67 736.147L1246.64 738.771L1245.48 741.736L1245.32 742.16L1243.94 745.833L1242.19 750.482C1242.19 750.482 1242.81 751.386 1242.61 752.104C1242.41 752.822 1242.15 752.481 1242.11 752.44C1242.15 752.497 1242.53 753.117 1242.19 753.39C1242.09 753.5 1242.01 753.643 1241.97 753.802C1241.93 753.961 1241.92 754.132 1241.95 754.295C1241.95 754.295 1243.38 757.203 1243.65 758.252C1243.92 759.3 1239.33 760.204 1239.33 760.204C1239.33 760.204 1234.81 762.684 1232.36 762.493C1234.45 763.5 1240.11 760.395 1240.11 760.395C1240.11 760.395 1244.71 759.491 1244.43 758.443C1244.15 757.394 1242.73 754.486 1242.73 754.486C1242.7 754.323 1242.7 754.153 1242.74 753.993C1242.78 753.834 1242.86 753.691 1242.96 753.582C1243.29 753.308 1242.92 752.688 1242.89 752.631C1242.92 752.672 1243.2 752.962 1243.38 752.295C1243.56 751.629 1242.97 750.673 1242.97 750.673L1244.71 746.024L1246.09 742.351L1246.26 741.927L1247.41 738.973L1248.44 736.343C1248.44 736.343 1248.71 735.811 1248.09 734.571Z" fill="black"/>
<path d="M1247.74 735.635L1248.44 736.348C1248.56 736.82 1248.76 737.259 1249.02 737.64C1249.4 738.156 1250.44 743.353 1250.44 743.353C1250.4 743.473 1250.38 743.604 1250.38 743.736C1250.38 743.867 1250.4 743.998 1250.44 744.118C1250.6 744.5 1250.14 745.074 1250.14 745.074C1250.14 745.074 1249.91 744.975 1250.29 745.502C1250.67 746.029 1249.94 746.644 1249.94 746.644C1249.94 746.644 1246.78 753.313 1246.13 754.031C1245.47 754.749 1244.81 756.614 1244.81 756.614C1244.81 756.614 1243.44 753.948 1243.12 753.897L1244.47 750.131C1244.47 750.131 1245.39 744.893 1246.08 743.932C1246.78 742.971 1245.74 739.691 1245.74 739.691L1247.74 735.635Z" fill="#FF6484"/>
<path opacity="0.1" d="M1248.19 745.352C1247.61 746.21 1246.59 746.386 1245.68 746.267C1245.55 746.267 1245.42 746.225 1245.28 746.194C1245.09 746.148 1244.89 746.091 1244.7 746.024C1244.01 745.779 1243.36 745.385 1242.78 744.862C1242.66 744.726 1242.52 744.622 1242.36 744.557C1242.18 744.53 1242 744.574 1241.83 744.682C1241.67 744.79 1241.54 744.957 1241.45 745.161C1241.26 745.549 1241.16 746.003 1240.96 746.391C1240.75 746.755 1240.46 747.049 1240.13 747.249C1239.8 747.448 1239.44 747.547 1239.07 747.538C1238.34 747.512 1237.61 747.338 1236.92 747.021C1237.54 746.21 1238.01 745.247 1238.3 744.195C1238.43 743.497 1238.46 742.779 1238.41 742.067C1238.24 738.694 1237.29 735.14 1235.07 733.177C1234.68 732.836 1234.23 732.433 1234.09 731.921C1234.71 731.704 1235.73 731.405 1236.09 731.627C1236.63 731.963 1240.11 731.11 1240.11 731.11C1241.6 730.84 1243.11 730.667 1244.62 730.594C1245.13 730.556 1245.65 730.626 1246.15 730.8C1245.9 732.202 1245.86 733.647 1246.02 735.067C1246.18 735.944 1246.44 736.788 1246.78 737.578C1246.98 738.048 1247.2 738.518 1247.41 738.988C1248 740.29 1248.56 741.597 1248.66 743.064C1248.75 743.874 1248.58 744.694 1248.19 745.352V745.352Z" fill="black"/>
<path opacity="0.1" d="M1240.56 752.068C1240.86 751.972 1241.16 751.939 1241.47 751.97C1241.72 752.063 1241.95 752.23 1242.14 752.456H1240.16C1239.65 752.456 1238.88 752.492 1238.49 752.047C1238.83 751.619 1240.06 752.14 1240.56 752.068Z" fill="black"/>
<path d="M1233.69 719.611C1233.39 720.122 1233.2 720.72 1233.14 721.348C1233.08 721.976 1233.16 722.612 1233.35 723.196C1233.67 724.121 1234.28 724.839 1234.66 725.727C1234.94 726.417 1235.08 727.183 1235.05 727.956C1235.03 728.728 1234.85 729.481 1234.53 730.144C1234.38 730.378 1234.28 730.647 1234.22 730.935C1234.13 731.663 1234.74 732.185 1235.22 732.608C1237.45 734.571 1238.4 738.125 1238.57 741.499C1238.63 742.21 1238.59 742.929 1238.46 743.627C1238.17 744.679 1237.7 745.642 1237.08 746.453C1237.77 746.767 1238.5 746.942 1239.23 746.969C1239.6 746.977 1239.96 746.876 1240.29 746.676C1240.62 746.476 1240.91 746.181 1241.13 745.817C1241.33 745.435 1241.42 744.981 1241.62 744.588C1241.7 744.383 1241.83 744.216 1241.99 744.107C1242.16 743.999 1242.34 743.956 1242.53 743.983C1242.68 744.05 1242.82 744.154 1242.95 744.288C1243.8 745.061 1244.79 745.545 1245.84 745.693C1246.74 745.823 1247.76 745.637 1248.35 744.779C1248.74 744.116 1248.91 743.29 1248.82 742.475C1248.62 739.587 1246.64 737.309 1246.19 734.478C1245.82 732.18 1246.49 729.829 1246.61 727.494C1246.79 724.033 1245.77 720.66 1244.77 717.421C1244.55 716.618 1244.26 715.848 1243.89 715.127C1243.45 714.39 1242.89 713.778 1242.24 713.332C1241.59 712.887 1240.87 712.618 1240.13 712.544C1239.58 712.455 1239.03 712.524 1238.51 712.746C1237.99 713.037 1237.52 713.436 1237.11 713.923C1236.16 714.957 1235.17 715.99 1234.6 717.426C1234.38 718.004 1234.23 718.624 1233.98 719.182" fill="#925978"/>
<g opacity="0.1">
<path opacity="0.1" d="M1234.61 718.351C1234.85 717.787 1235.02 717.168 1235.22 716.594C1235.44 716.057 1235.71 715.556 1236.03 715.101C1235.45 715.762 1234.97 716.542 1234.61 717.405C1234.39 717.968 1234.25 718.567 1234.01 719.115L1234.31 718.795C1234.24 718.927 1234.16 719.065 1234.1 719.208C1234.3 718.948 1234.47 718.66 1234.61 718.351Z" fill="black"/>
<path opacity="0.1" d="M1246.47 744.887C1245.42 744.736 1244.42 744.25 1243.57 743.477C1243.44 743.346 1243.3 743.243 1243.15 743.172C1242.97 743.148 1242.78 743.194 1242.62 743.303C1242.46 743.411 1242.32 743.579 1242.24 743.782C1242.2 743.864 1242.16 743.948 1242.13 744.035C1242.26 743.962 1242.41 743.946 1242.55 743.989C1242.7 744.056 1242.84 744.159 1242.97 744.293C1243.82 745.066 1244.82 745.55 1245.86 745.699C1246.76 745.828 1247.78 745.642 1248.37 744.784C1248.45 744.674 1248.51 744.554 1248.56 744.428C1247.93 744.871 1247.19 745.033 1246.47 744.887V744.887Z" fill="black"/>
<path opacity="0.1" d="M1239.84 746.158C1239.11 746.13 1238.38 745.956 1237.7 745.642C1238.31 744.828 1238.78 743.863 1239.07 742.811C1239.2 742.115 1239.24 741.398 1239.18 740.688C1239.01 737.314 1238.07 733.755 1235.84 731.797C1235.35 731.368 1234.74 730.847 1234.83 730.118C1234.89 729.832 1235 729.564 1235.15 729.328C1235.47 728.666 1235.65 727.914 1235.67 727.142C1235.69 726.37 1235.55 725.605 1235.27 724.916C1234.89 724.028 1234.28 723.305 1233.96 722.385C1233.79 721.876 1233.72 721.327 1233.74 720.778C1233.76 720.229 1233.89 719.692 1234.1 719.208C1233.99 719.347 1233.88 719.478 1233.76 719.601C1233.67 719.749 1233.58 719.89 1233.48 720.024C1233.27 720.508 1233.15 721.043 1233.12 721.592C1233.1 722.141 1233.18 722.689 1233.35 723.196C1233.67 724.121 1234.28 724.839 1234.65 725.727C1234.93 726.417 1235.07 727.183 1235.05 727.956C1235.03 728.728 1234.85 729.481 1234.53 730.144C1234.38 730.378 1234.27 730.647 1234.22 730.934C1234.13 731.663 1234.74 732.185 1235.22 732.608C1237.44 734.571 1238.39 738.125 1238.56 741.499C1238.62 742.21 1238.59 742.929 1238.46 743.627C1238.17 744.679 1237.7 745.642 1237.08 746.453C1237.77 746.767 1238.5 746.942 1239.23 746.969C1239.6 746.977 1239.96 746.876 1240.29 746.676C1240.62 746.476 1240.9 746.181 1241.12 745.817C1241.15 745.766 1241.17 745.714 1241.19 745.662C1240.79 745.977 1240.32 746.149 1239.84 746.158V746.158Z" fill="black"/>
</g>
<path d="M938.696 807.715C937.829 807.575 936.998 807.199 936.263 806.614L936.188 806.547C936.248 806.44 936.291 806.318 936.313 806.191C936.21 805.945 936.156 805.672 936.154 805.395C936.158 805.132 936.115 804.871 936.029 804.631V803.339C935.782 802.907 935.658 802.385 935.678 801.856C935.649 800.787 935.615 795.539 935.615 795.539C935.567 795.264 935.557 794.981 935.586 794.702C935.615 794.092 935.615 793.865 935.615 793.865C935.512 793.511 935.48 793.132 935.523 792.759C935.55 792.407 935.469 792.055 935.297 791.773L935.774 788.88C935.774 788.88 936.037 778.899 935.268 775.888C935.268 775.888 935.268 775.888 935.268 775.852C935.331 773.914 934.378 770.686 934.917 768.433C935.456 766.181 935.523 765.696 935.523 765.696C935.523 765.696 933.141 758.314 932.539 756.562C932.192 755.427 931.773 754.329 931.285 753.277C931.245 753.211 931.208 753.149 931.172 753.091L931.109 752.998C931.24 752.731 931.319 752.431 931.339 752.12C931.372 751.603 931.31 750.952 931.631 750.57C931.754 750.447 931.886 750.338 932.024 750.244C932.269 750.046 932.464 749.766 932.587 749.438C932.71 749.109 932.755 748.744 932.718 748.385C932.625 747.818 932.406 747.294 932.087 746.871C932.122 746.619 932.14 746.363 932.141 746.107C932.14 745.525 932.043 744.95 931.856 744.417C931.668 743.884 931.394 743.404 931.05 743.007V743.007V742.77C931.055 742.243 930.922 741.728 930.67 741.302L930.758 741.38L930.607 741.22C930.535 741.127 930.452 741.047 930.361 740.982C929.653 740.385 928.827 740.041 927.971 739.986C927.116 739.931 926.265 740.169 925.512 740.672C925.134 740.918 924.81 741.272 924.567 741.705C924.07 742.656 924.195 743.88 923.936 744.96C923.677 746.039 923.1 746.835 922.611 747.734C922.122 748.633 921.716 749.697 921.9 750.746C922.034 751.51 922.469 752.192 922.46 752.967C922.44 753.378 922.303 753.767 922.073 754.065C921.844 754.364 921.537 754.553 921.206 754.599V754.599H921.018C921.64 755.064 922.342 755.34 923.066 755.405C923.066 755.478 923.033 755.545 923.02 755.617C922.452 758.345 921.929 761.816 921.929 761.816C921.929 761.816 922.28 765.318 921.549 768.056C920.817 770.794 920.914 776.43 920.914 776.43C920.914 776.43 922.945 775.134 923.075 775.97C923.204 776.807 923.075 777.035 923.075 777.035C923.368 777.226 923.67 777.398 923.978 777.551V777.887L923.886 779.385C923.853 779.695 923.892 780.01 923.998 780.294C924.174 780.713 923.998 781.844 923.998 781.844C923.998 781.844 923.848 781.958 923.998 782.495C924.065 782.93 924.024 783.38 923.881 783.786C923.881 783.786 923.702 786.638 923.668 787.247C923.521 788.045 923.308 788.823 923.033 789.567C923.033 789.567 923.576 790.404 923.033 790.523C922.489 790.641 922.431 791.659 922.431 791.659C922.431 791.659 921.796 792.31 921.796 792.537C919.875 795.177 918.629 798.458 918.213 801.97C918.213 801.97 917.544 802.729 917.64 803.453C917.695 803.861 917.586 804 917.482 804.047C917.599 804.047 917.728 804.16 917.67 804.517C917.578 805.126 917.323 806.418 917.323 806.418H917.369C916.846 807.162 916.09 808.407 915.973 809.517V809.652L915.68 810.442L918.188 811.811L918.41 811.393C918.41 811.393 919.522 812.942 920.792 813.294C921.011 813.353 921.233 813.384 921.457 813.387C922.165 813.368 922.864 813.193 923.522 812.87C923.522 812.87 924.442 811.465 922.059 811.196C922.059 811.196 920.663 809.218 920.805 808.381C920.85 808.028 920.879 807.673 920.893 807.317C920.893 807.239 920.893 807.162 920.893 807.089L921.056 807.12L921.085 806.48C921.121 806.427 921.148 806.366 921.164 806.301C921.181 806.235 921.186 806.166 921.181 806.098C921.181 805.834 920.989 805.793 921.181 805.643C921.373 805.493 921.369 805.643 921.369 805.266C921.369 804.889 921.244 804.997 921.528 804.615C921.812 804.233 921.499 803.551 921.499 803.551C921.675 803.388 921.821 803.182 921.928 802.946C922.036 802.709 922.101 802.447 922.122 802.177C922.092 801.381 924.249 796.319 924.692 796.128C925.135 795.936 925.169 794.945 925.169 794.945C925.169 794.945 925.775 795.1 925.963 794.945C926.261 794.532 926.527 794.086 926.757 793.612C926.757 793.612 929.169 786.08 929.203 783.228L929.362 782.583C929.362 782.583 930.281 784.065 930.152 785.129C930.022 786.194 930.858 786.958 930.858 786.958V790.192C930.95 790.755 931 791.327 931.009 791.902C930.979 792.418 931.385 792.966 931.23 793.426C931.147 793.838 931.147 794.269 931.23 794.681C931.23 794.681 931.197 795.745 931.23 796.05C931.264 796.355 931.105 799.852 931.932 801.376C931.932 801.376 932.279 802.476 931.932 803.2C931.585 803.923 932.246 804.646 932.246 804.646C932.246 804.646 931.828 805.483 932.246 806.092C932.484 806.476 932.591 806.961 932.543 807.441C932.376 808.216 932.254 809.228 932.543 809.936L932.618 811.026L935.051 810.793V810.189C936.099 810.507 937.185 810.591 938.257 810.437C938.671 810.391 939.074 810.24 939.439 809.994C939.804 809.748 940.125 809.411 940.381 809.006C940.381 809.006 941.359 806.914 938.696 807.715Z" fill="url(#paint1_linear)"/>
<path d="M939.925 809.027C939.679 809.427 939.369 809.76 939.013 810.003C938.658 810.247 938.265 810.396 937.86 810.442C936.824 810.596 935.773 810.51 934.762 810.189V810.799L932.413 811.026L932.342 809.941C932.07 809.228 932.196 808.195 932.363 807.42C932.439 807.054 932.535 806.695 932.651 806.346C932.651 806.346 934.675 804.222 935.348 805.829C935.494 806.158 935.697 806.444 935.941 806.666C936.647 807.245 937.451 807.62 938.291 807.761C940.874 806.945 939.925 809.027 939.925 809.027Z" fill="#FF6484"/>
<path opacity="0.1" d="M933.68 806.945C933.68 806.945 933.68 808.913 934.842 808.877C936.004 808.841 936.163 808.092 935.795 807.585C935.544 807.227 935.328 806.833 935.151 806.413L933.68 806.945Z" fill="black"/>
<path d="M923.647 812.891C923.015 813.212 922.341 813.387 921.657 813.407C921.441 813.404 921.225 813.375 921.014 813.319C919.789 812.978 918.715 811.424 918.715 811.424L918.501 811.842L916.077 810.478L916.353 809.683V809.543C916.466 808.458 917.189 807.213 917.699 806.475C917.987 806.061 918.213 805.793 918.213 805.793L921.139 806.309C921.139 806.309 921.139 806.774 921.139 807.342C921.129 807.699 921.101 808.054 921.055 808.407C920.934 809.238 922.28 811.207 922.28 811.207C924.538 811.475 923.647 812.891 923.647 812.891Z" fill="#FF6484"/>
<path d="M917.824 804.089C917.775 804.106 917.723 804.106 917.674 804.089C917.724 804.077 917.775 804.077 917.824 804.089Z" fill="#444053"/>
<path opacity="0.1" d="M921.106 806.34C921.106 806.34 921.106 806.805 921.106 807.374L917.682 806.697C917.682 806.697 917.682 806.614 917.72 806.48C917.987 806.061 918.213 805.793 918.213 805.793L921.106 806.34Z" fill="black"/>
<path opacity="0.1" d="M935.949 806.645C935.431 808.128 932.35 807.776 932.35 807.776C932.368 807.657 932.375 807.536 932.371 807.415C932.447 807.049 932.543 806.69 932.66 806.34C932.66 806.34 934.683 804.217 935.356 805.824C935.504 806.147 935.706 806.427 935.949 806.645V806.645Z" fill="black"/>
<path d="M936 806.227C935.695 807.926 932.351 807.549 932.351 807.549C932.416 807.044 932.317 806.528 932.075 806.113C931.657 805.504 932.075 804.672 932.075 804.672C932.075 804.672 931.431 803.954 931.769 803.231C932.108 802.507 931.769 801.412 931.769 801.412C930.975 799.899 931.126 796.412 931.092 796.112C931.059 795.812 931.092 794.748 931.092 794.748C931.011 794.338 931.011 793.909 931.092 793.498C931.243 793.044 930.85 792.512 930.883 791.985C930.879 791.418 930.836 790.853 930.754 790.295V787.077C930.531 786.864 930.353 786.587 930.235 786.27C930.117 785.954 930.063 785.607 930.076 785.259C930.198 784.195 929.307 782.722 929.307 782.722L929.157 783.363C929.123 786.204 926.795 793.695 926.795 793.695C926.573 794.163 926.317 794.606 926.03 795.017C925.846 795.172 925.265 795.017 925.265 795.017C925.265 795.017 925.232 796.004 924.805 796.19C924.379 796.376 922.297 801.417 922.322 802.213C922.306 802.487 922.242 802.755 922.137 802.997C922.031 803.239 921.885 803.451 921.708 803.618C921.708 803.618 922.013 804.3 921.737 804.677C921.461 805.054 921.587 804.941 921.587 805.323C921.587 805.705 921.587 805.55 921.403 805.7C921.219 805.85 921.403 805.891 921.403 806.155C921.411 806.29 921.378 806.424 921.311 806.532L921.281 807.167L917.695 806.459C917.695 806.459 917.937 805.168 918.029 804.563C918.084 804.207 917.958 804.114 917.845 804.093C917.946 804.047 918.05 803.907 918 803.504C917.908 802.781 918.552 802.027 918.552 802.027C918.923 798.542 920.105 795.265 921.954 792.594C921.954 792.367 922.565 791.721 922.565 791.721C922.565 791.721 922.627 790.688 923.15 790.585C923.672 790.481 923.15 789.639 923.15 789.639C923.414 788.896 923.618 788.123 923.76 787.33C923.794 786.726 923.965 783.885 923.965 783.885C924.103 783.479 924.143 783.031 924.078 782.598C923.936 782.082 924.078 781.953 924.078 781.953C924.078 781.953 924.254 780.816 924.078 780.403C923.977 780.117 923.941 779.803 923.973 779.494L924.057 778.006L924.187 775.784C924.187 775.784 933.717 773.775 934.758 775.402C934.874 775.603 934.957 775.829 935.005 776.069C935.749 779.065 935.494 788.983 935.494 788.983L935.034 791.861C935.202 792.143 935.28 792.493 935.252 792.842C935.211 793.213 935.243 793.59 935.344 793.942C935.344 793.942 935.344 794.17 935.31 794.774C935.283 795.053 935.295 795.336 935.344 795.611C935.344 795.611 935.373 800.834 935.402 801.898C935.383 802.423 935.502 802.941 935.741 803.375V804.662C935.823 804.901 935.865 805.16 935.862 805.421C935.856 805.699 935.904 805.975 936 806.227Z" fill="#444053"/>
<path opacity="0.1" d="M921.657 813.397C921.441 813.394 921.225 813.364 921.014 813.309C919.789 812.968 918.715 811.413 918.715 811.413L918.501 811.832L916.077 810.468L916.353 809.672V809.533L918.861 811.083C918.861 811.083 920.867 812.286 921.657 813.397Z" fill="black"/>
<path opacity="0.1" d="M937.86 810.442C936.824 810.596 935.773 810.51 934.762 810.189V810.798L932.413 811.026L932.342 809.941C933.086 809.941 934.286 809.977 934.804 809.941C935.836 809.937 936.864 810.105 937.86 810.442V810.442Z" fill="black"/>
<path opacity="0.1" d="M919.024 803.112C919.146 803.102 919.268 803.121 919.383 803.169C919.504 803.26 919.618 803.361 919.726 803.473C919.807 803.527 919.884 803.59 919.956 803.659C920.044 803.768 920.082 803.928 920.169 804.036C920.337 804.238 920.587 804.197 920.821 804.29C920.847 804.29 920.872 804.29 920.876 804.346C920.876 804.362 920.873 804.377 920.866 804.39C920.859 804.403 920.85 804.413 920.838 804.419C920.784 804.456 920.723 804.475 920.661 804.475C920.598 804.475 920.537 804.456 920.483 804.419C920.376 804.343 920.277 804.249 920.19 804.14C920.02 803.953 919.825 803.804 919.613 803.701C919.325 803.556 918.823 803.52 918.639 803.184C918.761 803.123 918.893 803.098 919.024 803.112Z" fill="black"/>
<path opacity="0.1" d="M918.777 803.907C918.841 803.93 918.903 803.961 918.961 804L919.275 804.197C919.052 804.215 918.83 804.154 918.635 804.021C918.564 803.989 918.496 803.949 918.43 803.902C918.545 803.878 918.663 803.88 918.777 803.907Z" fill="black"/>
<path opacity="0.1" d="M919.195 804.574C919.262 804.563 919.33 804.563 919.396 804.574C919.516 804.628 919.627 804.71 919.722 804.816C919.952 805.043 920.239 805.166 920.533 805.163C920.478 805.193 920.418 805.205 920.358 805.199H919.697C919.625 805.212 919.552 805.212 919.48 805.199C919.385 805.173 919.294 805.131 919.208 805.075C919.095 805.013 918.631 804.847 918.627 804.656C918.623 804.465 919.083 804.574 919.195 804.574Z" fill="black"/>
<path opacity="0.1" d="M934.186 805.54C934.387 805.56 934.59 805.56 934.792 805.54C935.006 805.53 935.214 805.448 935.394 805.302C935.569 805.137 935.532 804.961 935.31 804.951C935.1 804.961 934.894 805.023 934.704 805.132C934.605 805.182 934.51 805.243 934.42 805.312C934.378 805.364 934.227 805.545 934.186 805.54Z" fill="black"/>
<path opacity="0.1" d="M934.934 805.953C934.934 806.046 934.838 806.098 934.766 806.129C934.594 806.212 934.412 806.262 934.227 806.278C934.181 806.278 934.052 806.278 934.068 806.191C934.085 806.103 934.277 806.129 934.323 806.118C934.53 806.081 934.734 806.026 934.934 805.953V805.953Z" fill="black"/>
<path opacity="0.1" d="M924.663 790.92C924.356 790.655 923.993 790.508 923.618 790.497C923.997 790.468 924.371 790.62 924.663 790.92V790.92Z" fill="black"/>
<path opacity="0.1" d="M924.379 789.391C924.655 789.394 924.925 789.488 925.161 789.665L924.901 789.572C924.73 789.505 924.554 789.46 924.375 789.438C924.274 789.438 924.17 789.438 924.07 789.438C923.969 789.438 923.836 789.402 923.719 789.396C923.923 789.396 924.153 789.381 924.379 789.391Z" fill="black"/>
<path opacity="0.1" d="M925.319 790.12C925.407 790.12 925.512 790.187 925.528 790.295C925.31 790.166 925.081 790.062 924.847 789.985C924.717 789.934 924.32 789.717 924.228 789.866C924.559 789.985 924.939 790.027 925.319 790.12Z" fill="black"/>
<path opacity="0.1" d="M926.155 786.757C926.557 786.589 926.919 786.302 927.209 785.92C927.205 786.09 927.168 786.256 927.1 786.404C927.032 786.551 926.936 786.676 926.82 786.767C926.585 786.948 926.324 787.069 926.051 787.123C925.779 787.182 925.514 787.281 925.261 787.418C925.14 787.49 924.763 787.934 924.642 787.934C924.521 787.934 924.734 787.609 924.788 787.557C925.21 787.21 925.671 786.94 926.155 786.757V786.757Z" fill="black"/>
<path opacity="0.1" d="M933.68 791.669C933.55 791.613 931.966 791.99 932.062 791.613C932.125 791.38 932.639 791.468 932.764 791.473C933.076 791.484 933.384 791.55 933.68 791.669V791.669Z" fill="black"/>
<path d="M931.953 746.386C931.953 746.703 931.925 747.02 931.87 747.331C931.675 748.411 931.153 749.359 930.411 749.978C929.669 750.598 928.762 750.842 927.879 750.662C926.995 750.481 926.201 749.889 925.66 749.007C925.118 748.125 924.871 747.021 924.968 745.92C925.065 744.82 925.5 743.808 926.183 743.091C926.865 742.375 927.744 742.008 928.639 742.068C929.533 742.128 930.375 742.608 930.992 743.411C931.608 744.214 931.952 745.279 931.953 746.386V746.386Z" fill="#FBBEBE"/>
<path d="M930.269 748.163C930.269 748.163 929.136 752.254 929.78 753.086C930.423 753.917 925.152 754.413 925.152 754.413C925.152 754.413 927.355 749.526 927.142 748.313C926.929 747.099 930.269 748.163 930.269 748.163Z" stroke="#6C63FF" stroke-miterlimit="10"/>
<path opacity="0.1" d="M934.988 776.058C934.992 776.153 934.992 776.248 934.988 776.342C934.925 778.274 932.137 782.175 931.493 781.508C930.85 780.842 926.477 779.576 926.477 779.576C926.477 779.576 925.834 778.326 925.161 778.326C924.777 778.286 924.401 778.168 924.049 777.975L924.178 775.753C924.178 775.753 933.709 773.744 934.75 775.371C934.864 775.579 934.945 775.813 934.988 776.058V776.058Z" fill="black"/>
<path d="M934.988 776.001C934.959 776.967 934.244 778.429 933.454 779.566C932.664 780.702 931.815 781.508 931.494 781.188C931.257 780.998 931.002 780.848 930.733 780.744C929.282 780.088 926.469 779.256 926.469 779.256C926.469 779.256 925.825 778.006 925.152 778.006C924.479 778.006 923.188 777.174 923.188 777.174C923.188 777.174 923.313 776.947 923.188 776.115C923.062 775.283 921.097 776.57 921.097 776.57C921.097 776.57 921.006 770.965 921.708 768.237C922.41 765.51 922.076 762.038 922.076 762.038C922.076 762.038 922.581 758.608 923.129 755.891C923.459 754.263 923.806 752.895 924.07 752.683C924.776 752.114 928.45 752.683 928.45 752.683C929.159 752.694 929.866 752.77 930.566 752.91C930.746 752.999 930.901 753.154 931.009 753.354L931.117 753.545C931.599 754.591 932.009 755.685 932.342 756.815C932.927 758.556 935.226 765.902 935.226 765.902C935.226 765.902 935.164 766.419 934.641 768.63C934.119 770.841 935.051 774.069 934.988 776.001Z" fill="#65617D"/>
<path d="M932.355 778.233L933.454 779.566C933.454 779.566 934.466 783.879 933.149 783.497C931.832 783.115 930.733 780.744 930.733 780.744L932.355 778.233Z" fill="#FBBEBE"/>
<path opacity="0.1" d="M935.143 766.228C932.534 766.191 931.861 761.682 931.861 761.682C931.861 761.682 931.677 757.213 931.339 756.381C931.137 755.568 931.034 754.722 931.034 753.871C931.515 754.916 931.925 756.01 932.258 757.141C932.844 758.882 935.143 766.228 935.143 766.228Z" fill="black"/>
<path d="M935.235 765.887C932.626 765.851 931.953 761.341 931.953 761.341C931.953 761.341 931.769 756.872 931.431 756.041C931.229 755.227 931.126 754.381 931.126 753.53C931.607 754.576 932.017 755.669 932.351 756.8C932.936 758.541 935.235 765.887 935.235 765.887Z" fill="#65617D"/>
<path opacity="0.1" d="M930.565 754.77C930.565 754.77 929.8 752.187 928.546 754.77C927.755 756.563 927.314 758.56 927.259 760.602L927.042 767.721C927.242 768.179 927.373 768.68 927.426 769.198C927.426 769.715 928.179 771.264 928.179 771.264C928.179 771.264 928.362 774.255 929.065 774.751L929.742 777.21C929.742 777.21 929.771 778.837 930.231 779.483C930.365 779.718 930.454 779.988 930.492 780.271C930.53 780.555 930.515 780.845 930.448 781.121L933.174 779.943C933.174 779.943 932.864 780.082 933.174 779.065C933.483 778.047 932.99 776.719 932.99 776.719C932.99 776.719 931.243 772.024 931.025 771.342C930.808 770.66 930.507 769.864 930.607 769.069C930.708 768.273 930.632 759.827 930.791 758.541C930.95 757.255 930.565 754.77 930.565 754.77Z" fill="black"/>
<path d="M930.85 754.413C930.85 754.413 930.085 751.83 928.827 754.413C928.038 756.208 927.597 758.204 927.539 760.246L927.326 767.364C927.526 767.824 927.656 768.324 927.711 768.842C927.711 769.358 928.459 770.908 928.459 770.908C928.459 770.908 928.643 773.899 929.349 774.39L930.022 776.854C930.022 776.854 930.056 778.481 930.515 779.127C930.649 779.362 930.739 779.631 930.776 779.915C930.814 780.198 930.799 780.489 930.733 780.764L933.454 779.587C933.454 779.587 933.149 779.726 933.454 778.703C933.759 777.68 933.262 776.348 933.262 776.348C933.262 776.348 931.519 771.652 931.301 770.97C931.084 770.288 930.783 769.492 930.883 768.697C930.984 767.901 930.908 759.455 931.063 758.164C931.218 756.872 930.85 754.413 930.85 754.413Z" fill="#FF6484"/>
<path opacity="0.1" d="M930.904 776.683C931.02 776.702 931.133 776.744 931.238 776.807C931.322 776.859 931.393 776.942 931.477 776.998C931.572 777.066 931.68 777.102 931.79 777.102C931.668 777.109 931.545 777.109 931.422 777.102C931.346 777.108 931.269 777.096 931.197 777.066C931.128 777.026 931.063 776.975 931.004 776.916C930.929 776.847 930.848 776.79 930.762 776.745C930.695 776.714 930.624 776.704 930.599 776.621C930.702 776.632 930.804 776.652 930.904 776.683V776.683Z" fill="black"/>
<path opacity="0.1" d="M931.941 777.701C932.058 777.701 932.171 777.67 932.288 777.66C932.457 777.652 932.626 777.662 932.794 777.691C932.548 777.846 932.27 777.907 931.995 777.866C931.917 777.84 931.835 777.84 931.757 777.866C931.673 777.908 931.423 778.259 931.402 777.949C931.381 777.639 931.799 777.706 931.941 777.701Z" fill="black"/>
<path opacity="0.1" d="M930.532 741.84L930.085 741.437C930.133 741.456 930.179 741.482 930.223 741.514C930.317 741.577 930.402 741.659 930.473 741.757L930.616 741.917L930.532 741.84Z" fill="black"/>
<path opacity="0.1" d="M931.017 753.339C930.936 753.566 930.806 753.76 930.641 753.902C930.542 753.985 930.429 754.038 930.311 754.057C930.144 754.077 929.977 754.056 929.817 753.995C929.613 753.927 929.412 753.846 929.215 753.752C928.829 753.552 928.434 753.38 928.032 753.236C927.732 753.122 927.413 753.104 927.105 753.181C926.797 753.259 926.509 753.43 926.268 753.68C925.88 754.165 925.788 754.92 925.403 755.405C924.885 756.056 924.04 756.015 923.313 755.886L923.142 755.855C923.472 754.227 923.819 752.858 924.082 752.647C924.789 752.078 928.463 752.647 928.463 752.647C929.172 752.658 929.879 752.734 930.578 752.874C930.76 752.969 930.913 753.132 931.017 753.339V753.339Z" fill="black"/>
<path opacity="0.1" d="M924.968 746.386C924.966 745.535 925.167 744.703 925.546 743.993C925.925 743.283 926.465 742.727 927.099 742.396C927.733 742.065 928.432 741.973 929.109 742.131C929.785 742.289 930.408 742.691 930.9 743.286V743.286C930.9 744.035 930.779 744.836 930.95 745.533C931.162 746.193 931.474 746.796 931.87 747.31C931.679 748.342 931.188 749.252 930.491 749.866C929.793 750.48 928.938 750.757 928.086 750.643C927.235 750.529 926.447 750.032 925.872 749.247C925.297 748.462 924.976 747.444 924.968 746.386V746.386Z" fill="black"/>
<path d="M930.616 741.69C929.938 740.93 929.084 740.453 928.174 740.327C927.265 740.201 926.347 740.432 925.549 740.987C925.183 741.236 924.87 741.59 924.638 742.02C924.157 742.966 924.279 744.19 924.028 745.259C923.777 746.329 923.221 747.129 922.749 748.023C922.276 748.917 921.883 749.976 922.063 751.019C922.193 751.779 922.615 752.461 922.607 753.235C922.59 753.667 922.442 754.075 922.192 754.378C921.943 754.68 921.61 754.855 921.26 754.868C921.88 755.339 922.583 755.619 923.309 755.684C924.04 755.813 924.885 755.855 925.399 755.204C925.783 754.718 925.875 753.964 926.264 753.478C926.505 753.229 926.793 753.057 927.101 752.98C927.409 752.902 927.727 752.921 928.028 753.034C928.639 753.21 929.203 753.551 929.813 753.773C929.973 753.834 930.14 753.855 930.306 753.835C930.829 753.747 931.142 753.029 931.176 752.378C931.209 751.861 931.147 751.216 931.456 750.828C931.574 750.705 931.702 750.596 931.836 750.503C932.075 750.3 932.265 750.019 932.383 749.692C932.502 749.365 932.546 749.004 932.509 748.648C932.363 747.367 931.255 746.582 930.946 745.321C930.775 744.598 930.904 743.823 930.896 743.074C930.887 742.325 930.653 741.462 930.081 741.209" fill="#444053"/>
<path opacity="0.1" d="M932.455 748.648C932.313 747.367 931.201 746.582 930.892 745.321C930.72 744.598 930.854 743.823 930.841 743.074C930.849 742.551 930.72 742.038 930.473 741.612L930.561 741.69C930.515 741.633 930.465 741.581 930.415 741.53C930.344 741.438 930.264 741.358 930.177 741.292L930.018 741.158L930.101 741.256L930.014 741.178C930.261 741.604 930.39 742.117 930.382 742.64C930.382 743.389 930.26 744.19 930.432 744.882C930.728 746.127 931.853 746.949 931.995 748.214C932.031 748.57 931.987 748.931 931.869 749.258C931.75 749.585 931.561 749.866 931.322 750.069C931.187 750.162 931.06 750.271 930.942 750.394C930.632 750.777 930.695 751.428 930.662 751.944C930.62 752.595 930.319 753.313 929.796 753.401C929.629 753.419 929.46 753.398 929.299 753.339C928.693 753.143 928.124 752.776 927.514 752.6C927.213 752.486 926.894 752.467 926.586 752.545C926.278 752.622 925.99 752.794 925.75 753.044C925.365 753.525 925.269 754.284 924.885 754.77C924.366 755.416 923.522 755.379 922.795 755.25C922.316 755.183 921.845 755.05 921.39 754.852C921.329 754.86 921.267 754.86 921.206 754.852C921.826 755.323 922.529 755.603 923.254 755.669C923.986 755.798 924.83 755.839 925.344 755.188C925.729 754.703 925.825 753.948 926.21 753.463C926.451 753.213 926.738 753.042 927.046 752.964C927.354 752.887 927.673 752.905 927.974 753.019C928.584 753.194 929.153 753.535 929.759 753.757C929.919 753.819 930.089 753.84 930.256 753.819C930.779 753.731 931.092 753.013 931.121 752.363C931.155 751.846 931.092 751.2 931.401 750.813C931.52 750.69 931.647 750.581 931.782 750.487C932.019 750.286 932.207 750.008 932.326 749.684C932.444 749.36 932.489 749.002 932.455 748.648V748.648Z" fill="black"/>
<path opacity="0.1" d="M945.907 810.344C946.576 813.097 937.584 814.88 926.996 814.373C917.503 813.924 910.058 811.765 909.51 809.507C908.962 807.25 915.433 805.411 924.814 805.374C935.277 805.374 945.238 807.591 945.907 810.344Z" fill="#6C63FF"/>
</g>
<path d="M0 715L1440 1089H0V715Z" fill="#FF9642" fill-opacity="0.16"/>
<path d="M0 0H1440L0 859V0Z" fill="#B9FFFC" fill-opacity="0.16"/>
<defs>
<linearGradient id="paint0_linear" x1="1235.01" y1="828.301" x2="1235.01" y2="711.527" gradientUnits="userSpaceOnUse">
<stop stop-color="#808080" stop-opacity="0.25"/>
<stop offset="0.54" stop-color="#808080" stop-opacity="0.12"/>
<stop offset="1" stop-color="#808080" stop-opacity="0.1"/>
</linearGradient>
<linearGradient id="paint1_linear" x1="3470.21" y1="53867" x2="3470.21" y2="43432" gradientUnits="userSpaceOnUse">
<stop stop-color="#808080" stop-opacity="0.25"/>
<stop offset="0.54" stop-color="#808080" stop-opacity="0.12"/>
<stop offset="1" stop-color="#808080" stop-opacity="0.1"/>
</linearGradient>
<clipPath id="clip0">
<rect width="454" height="316" fill="white" transform="translate(909 514)"/>
</clipPath>
</defs>
</svg>
