<svg width="60" height="60" viewBox="0 0 60 60" fill="none" xmlns="http://www.w3.org/2000/svg">
<g clip-path="url(#clip0)">
<path d="M19.1397 46.6691C15.6802 46.6691 12.8759 49.4736 12.8759 52.933C12.8759 56.3925 15.6804 59.1968 19.1397 59.1968C22.5993 59.1968 25.4036 56.3924 25.4036 52.933C25.4038 49.4736 22.5993 46.6691 19.1397 46.6691ZM19.1397 56.413C17.2178 56.413 15.6598 54.855 15.6598 52.9331C15.6598 51.0112 17.2178 49.4532 19.1397 49.4532C21.0617 49.4532 22.6197 51.0112 22.6197 52.9331C22.6198 54.855 21.0617 56.413 19.1397 56.413Z" fill="#FF9642"/>
<path d="M45.5876 46.6691C42.1281 46.6691 39.3237 49.4736 39.3237 52.933C39.3237 56.3925 42.1282 59.1968 45.5876 59.1968C49.047 59.1968 51.8515 56.3924 51.8515 52.933C51.8515 49.4736 49.0472 46.6691 45.5876 46.6691ZM45.5876 56.413C43.6657 56.413 42.1077 54.855 42.1077 52.9331C42.1077 51.0112 43.6657 49.4532 45.5876 49.4532C47.5096 49.4532 49.0675 51.0112 49.0675 52.9331C49.0677 54.855 47.5096 56.413 45.5876 56.413Z" fill="#FF9642"/>
<path d="M59.7163 10.1295C59.4264 9.81281 59.0298 9.61458 58.6027 9.57262L13.2935 8.94623L12.0407 5.11822C11.1582 2.55925 8.76186 0.831681 6.05514 0.80304H1.39199C0.623192 0.80304 0 1.42623 0 2.19503C0 2.96383 0.623192 3.58702 1.39199 3.58702H6.05514C7.56863 3.62046 8.90134 4.59228 9.39597 6.02304L18.2351 32.6796L17.5392 34.2803C16.7629 36.2821 16.996 38.5351 18.1656 40.3355C19.3239 42.1038 21.2726 43.1951 23.3856 43.2587H50.4598C51.2286 43.2587 51.8518 42.6355 51.8518 41.8667C51.8518 41.0979 51.2286 40.4747 50.4598 40.4747H23.3854C22.1922 40.4449 21.0938 39.8171 20.4622 38.8043C19.8377 37.8038 19.7094 36.5713 20.1143 35.4635L20.6711 34.2107L49.9725 31.1483C53.191 30.7938 55.8386 28.4529 56.5845 25.3019L59.9253 11.3124C60.0758 10.9096 59.9959 10.4565 59.7163 10.1295ZM53.87 24.6756C53.4181 26.704 51.696 28.2002 49.6245 28.3644L20.6711 31.3572L14.1983 11.7302L56.8628 12.3566L53.87 24.6756Z" fill="#FF9642"/>
</g>
<defs>
<clipPath id="clip0">
<rect width="60" height="60" fill="white"/>
</clipPath>
</defs>
</svg>
