<svg width="1440" height="1335" viewBox="0 0 1440 1335" fill="none" xmlns="http://www.w3.org/2000/svg">
<rect width="1440" height="1335" fill="white"/>
<path d="M0 668L1440 1335H0V668Z" fill="#FF9642" fill-opacity="0.16"/>
<path d="M0 0H1440L0 859V0Z" fill="#B9FFFC" fill-opacity="0.16"/>
<g opacity="0.5" clip-path="url(#clip0)">
<path d="M1358.57 1130H658.741C652.518 1130 646.549 1127.04 642.148 1121.77C637.748 1116.5 635.275 1109.36 635.275 1101.91C888.964 1066.61 1137.89 1066.61 1382.04 1101.91C1382.04 1109.36 1379.57 1116.5 1375.17 1121.77C1370.77 1127.04 1364.8 1130 1358.57 1130Z" fill="#CCCCCC"/>
<path d="M1382.04 1103.56L635.275 1101.91L721.823 927.566L722.237 926.74V542.513C722.236 537.849 723.003 533.231 724.494 528.922C725.985 524.613 728.17 520.698 730.924 517.401C733.679 514.103 736.949 511.487 740.548 509.702C744.147 507.918 748.005 507 751.9 507H1261.27C1265.17 507 1269.03 507.918 1272.63 509.702C1276.22 511.487 1279.49 514.103 1282.25 517.401C1285 520.698 1287.19 524.613 1288.68 528.922C1290.17 533.231 1290.94 537.849 1290.94 542.513V929.384L1382.04 1103.56Z" fill="#E6E6E6"/>
<path d="M751.224 531.788C748.662 531.791 746.206 533.011 744.395 535.18C742.583 537.348 741.564 540.289 741.562 543.355V893.69C741.565 896.756 742.583 899.697 744.395 901.865C746.206 904.034 748.662 905.254 751.224 905.257H1266.09C1268.65 905.254 1271.11 904.034 1272.92 901.865C1274.73 899.697 1275.75 896.756 1275.75 893.69V543.355C1275.75 540.289 1274.73 537.348 1272.92 535.18C1271.11 533.011 1268.65 531.791 1266.09 531.788H751.224Z" fill="white"/>
<path d="M754.608 951.528C753.816 951.529 753.041 951.802 752.375 952.313C751.708 952.824 751.178 953.553 750.845 954.413L724.178 1023.82C723.887 1024.57 723.76 1025.41 723.808 1026.23C723.856 1027.06 724.078 1027.87 724.452 1028.57C724.827 1029.27 725.343 1029.84 725.952 1030.24C726.561 1030.64 727.245 1030.85 727.939 1030.85H1288.75C1289.46 1030.85 1290.15 1030.63 1290.77 1030.22C1291.38 1029.81 1291.9 1029.22 1292.27 1028.5C1292.64 1027.78 1292.86 1026.96 1292.89 1026.11C1292.92 1025.27 1292.77 1024.43 1292.45 1023.67L1263.47 954.268C1263.12 953.443 1262.6 952.749 1261.94 952.265C1261.29 951.78 1260.53 951.525 1259.76 951.528L754.608 951.528Z" fill="#CCCCCC"/>
<path d="M1006.59 526.004C1010.02 526.004 1012.8 522.675 1012.8 518.568C1012.8 514.461 1010.02 511.131 1006.59 511.131C1003.16 511.131 1000.38 514.461 1000.38 518.568C1000.38 522.675 1003.16 526.004 1006.59 526.004Z" fill="white"/>
<path d="M951.463 1044.07C950.553 1044.07 949.668 1044.43 948.945 1045.09C948.223 1045.76 947.703 1046.69 947.465 1047.74L940.775 1077.48C940.61 1078.22 940.588 1078.99 940.712 1079.73C940.835 1080.48 941.1 1081.18 941.487 1081.79C941.873 1082.39 942.371 1082.88 942.941 1083.22C943.511 1083.55 944.138 1083.73 944.774 1083.73H1071.99C1072.65 1083.73 1073.3 1083.54 1073.89 1083.18C1074.47 1082.82 1074.98 1082.29 1075.36 1081.65C1075.75 1081 1075.99 1080.26 1076.09 1079.48C1076.18 1078.69 1076.12 1077.9 1075.9 1077.15L1067.3 1047.4C1067.02 1046.43 1066.49 1045.59 1065.79 1044.99C1065.09 1044.39 1064.25 1044.07 1063.39 1044.07H951.463Z" fill="#CCCCCC"/>
<path d="M1290.94 920.956V927.567H721.822L722.25 926.74V920.956H1290.94Z" fill="#CCCCCC"/>
<path d="M1220.69 936.098C1220.47 936.098 1220.25 936.186 1220.08 936.347C1219.9 936.509 1219.77 936.735 1219.72 936.991L1218.09 944.235C1218.05 944.414 1218.04 944.601 1218.07 944.783C1218.1 944.965 1218.17 945.136 1218.26 945.283C1218.35 945.43 1218.48 945.549 1218.61 945.631C1218.75 945.713 1218.91 945.756 1219.06 945.756H1250.04C1250.2 945.756 1250.36 945.71 1250.5 945.622C1250.65 945.534 1250.77 945.406 1250.86 945.249C1250.95 945.092 1251.02 944.911 1251.04 944.72C1251.06 944.53 1251.05 944.336 1250.99 944.154L1248.9 936.91C1248.83 936.673 1248.7 936.468 1248.53 936.322C1248.36 936.176 1248.16 936.098 1247.95 936.098H1220.69Z" fill="#CCCCCC"/>
<path d="M1175.46 936.098C1175.23 936.098 1175.02 936.186 1174.84 936.347C1174.67 936.509 1174.54 936.735 1174.48 936.991L1172.85 944.235C1172.81 944.414 1172.81 944.601 1172.84 944.783C1172.87 944.965 1172.93 945.136 1173.03 945.283C1173.12 945.43 1173.24 945.549 1173.38 945.631C1173.52 945.713 1173.67 945.756 1173.83 945.756H1204.81C1204.97 945.756 1205.13 945.71 1205.27 945.622C1205.41 945.534 1205.53 945.406 1205.63 945.249C1205.72 945.092 1205.78 944.911 1205.8 944.72C1205.83 944.53 1205.81 944.336 1205.76 944.154L1203.67 936.91C1203.6 936.673 1203.47 936.468 1203.3 936.322C1203.13 936.176 1202.92 936.098 1202.71 936.098H1175.46Z" fill="#CCCCCC"/>
<path d="M1044.41 982.123H1046.83L1041.98 593.59H1039.55L1039.65 601.341H985.228L985.325 593.59H982.897L978.041 982.123H980.469L980.784 956.931H1044.09L1044.41 982.123ZM1040.91 702.108H983.969L984.562 654.631H1040.31L1040.91 702.108ZM1040.94 705.014L1041.54 752.491H983.339L983.932 705.014H1040.94ZM1041.57 755.398L1042.17 802.874H982.709L983.303 755.398H1041.57ZM1042.2 805.781L1042.8 853.258H982.08L982.673 805.781H1042.2ZM1042.83 856.165L1043.42 903.641H981.45L982.043 856.165H1042.83ZM1039.68 604.248L1040.28 651.724H984.598L985.192 604.248H1039.68ZM980.82 954.025L981.414 906.548H1043.46L1044.05 954.025H980.82Z" fill="#3F3D56"/>
<path d="M1000.41 727.413C1022.27 727.413 1040 706.193 1040 680.016C1040 653.839 1022.27 632.618 1000.41 632.618C978.544 632.618 960.818 653.839 960.818 680.016C960.818 706.193 978.544 727.413 1000.41 727.413Z" fill="#2F2E41"/>
<path d="M1023.7 712.771L1011.86 715.336L1015.7 740.723L1027.54 738.158L1023.7 712.771Z" fill="#2F2E41"/>
<path d="M1000.03 717.901L988.191 720.466L992.03 745.853L1003.87 743.288L1000.03 717.901Z" fill="#2F2E41"/>
<path d="M998.313 751.195C1002.54 746.912 1004.87 741.903 1003.53 740.006C1002.19 738.11 997.679 740.044 993.454 744.327C989.23 748.61 986.893 753.62 988.235 755.516C989.576 757.412 994.088 755.478 998.313 751.195Z" fill="#2F2E41"/>
<path d="M1021.49 746.172C1025.71 741.889 1028.05 736.88 1026.71 734.983C1025.37 733.087 1020.86 735.021 1016.63 739.304C1012.41 743.587 1010.07 748.596 1011.41 750.493C1012.75 752.389 1017.27 750.455 1021.49 746.172Z" fill="#2F2E41"/>
<path d="M997.638 684.621C1005.11 684.621 1011.17 677.369 1011.17 668.422C1011.17 659.475 1005.11 652.223 997.638 652.223C990.165 652.223 984.107 659.475 984.107 668.422C984.107 677.369 990.165 684.621 997.638 684.621Z" fill="white"/>
<path d="M992.077 668.015C994.568 668.015 996.587 665.598 996.587 662.615C996.587 659.633 994.568 657.216 992.077 657.216C989.586 657.216 987.566 659.633 987.566 662.615C987.566 665.598 989.586 668.015 992.077 668.015Z" fill="#3F3D56"/>
<path d="M1031.64 628.452C1032.24 610.905 1019.6 596.042 1003.43 595.255C987.248 594.469 973.65 608.056 973.055 625.603C972.459 643.15 983.705 647.137 999.883 647.924C1016.06 648.711 1031.05 645.999 1031.64 628.452Z" fill="#6C63FF"/>
<path d="M983.148 676.675C983.915 672.67 975.898 667.053 965.241 664.129C954.585 661.205 945.325 662.081 944.558 666.086C943.791 670.091 951.808 675.708 962.465 678.632C973.121 681.557 982.381 680.68 983.148 676.675Z" fill="#2F2E41"/>
<path d="M1060.86 692.148C1061.63 688.143 1053.61 682.526 1042.96 679.601C1032.3 676.677 1023.04 677.553 1022.27 681.558C1021.51 685.563 1029.52 691.181 1040.18 694.105C1050.84 697.029 1060.1 696.153 1060.86 692.148Z" fill="#2F2E41"/>
<path d="M1011.28 698.695C1011.5 700.09 1011.48 701.523 1011.23 702.91C1010.98 704.297 1010.5 705.612 1009.83 706.779C1009.16 707.946 1008.3 708.943 1007.3 709.712C1006.3 710.482 1005.19 711.008 1004.03 711.263C1002.86 711.517 1001.66 711.493 1000.5 711.193C999.346 710.894 998.248 710.324 997.274 709.516C996.299 708.708 995.467 707.678 994.826 706.485C994.184 705.292 993.745 703.959 993.534 702.563L993.53 702.542C992.643 696.673 996.433 694.596 1001.34 693.534C1006.24 692.471 1010.4 692.826 1011.28 698.695Z" fill="white"/>
<path d="M866.317 840.996C870.318 828.463 870.898 817.084 867.611 815.58C864.325 814.076 858.417 823.017 854.415 835.55C850.414 848.083 849.835 859.462 853.121 860.966C856.407 862.47 862.315 853.529 866.317 840.996Z" fill="#2F2E41"/>
<path d="M862.914 882.747C866.505 856.259 851.479 831.302 829.354 827.003C807.229 822.705 786.382 840.693 782.792 867.181C779.202 893.669 794.227 918.626 816.352 922.924C838.477 927.223 859.324 909.235 862.914 882.747Z" fill="#2F2E41"/>
<path d="M816.688 913.096H804.358V939.543H816.688V913.096Z" fill="#2F2E41"/>
<path d="M841.348 913.096H829.018V939.543H841.348V913.096Z" fill="#2F2E41"/>
<path d="M814.633 944.463C820.308 944.463 824.908 942.398 824.908 939.85C824.908 937.303 820.308 935.237 814.633 935.237C808.959 935.237 804.358 937.303 804.358 939.85C804.358 942.398 808.959 944.463 814.633 944.463Z" fill="#2F2E41"/>
<path d="M839.293 943.848C844.967 943.848 849.568 941.783 849.568 939.235C849.568 936.688 844.967 934.622 839.293 934.622C833.618 934.622 829.018 936.688 829.018 939.235C829.018 941.783 833.618 943.848 839.293 943.848Z" fill="#2F2E41"/>
<path d="M783.484 829.778C780.207 812.208 790.683 794.455 806.882 790.124C823.081 785.794 838.87 796.527 842.147 814.097C845.424 831.667 834.688 838.147 818.489 842.477C802.29 846.808 786.761 847.349 783.484 829.778Z" fill="#6C63FF"/>
<path d="M795.476 862.829C796.984 859.024 789.997 851.278 779.871 845.528C769.745 839.778 760.314 838.202 758.806 842.008C757.298 845.814 764.285 853.56 774.411 859.31C784.537 865.059 793.968 866.635 795.476 862.829Z" fill="#2F2E41"/>
<path d="M647.123 972.749C669.537 972.749 687.708 950.995 687.708 924.161C687.708 897.327 669.537 875.573 647.123 875.573C624.708 875.573 606.538 897.327 606.538 924.161C606.538 950.995 624.708 972.749 647.123 972.749Z" fill="#2F2E41"/>
<path d="M640.958 962.293H628.628V988.74H640.958V962.293Z" fill="#2F2E41"/>
<path d="M665.617 962.293H653.288V988.74H665.617V962.293Z" fill="#2F2E41"/>
<path d="M638.903 993.66C644.578 993.66 649.178 991.595 649.178 989.048C649.178 986.5 644.578 984.435 638.903 984.435C633.229 984.435 628.628 986.5 628.628 989.048C628.628 991.595 633.229 993.66 638.903 993.66Z" fill="#2F2E41"/>
<path d="M663.562 993.045C669.237 993.045 673.837 990.98 673.837 988.432C673.837 985.885 669.237 983.82 663.562 983.82C657.888 983.82 653.288 985.885 653.288 988.432C653.288 990.98 657.888 993.045 663.562 993.045Z" fill="#2F2E41"/>
<path d="M648.15 928.466C655.811 928.466 662.021 921.032 662.021 911.86C662.021 902.689 655.811 895.254 648.15 895.254C640.489 895.254 634.279 902.689 634.279 911.86C634.279 921.032 640.489 928.466 648.15 928.466Z" fill="white"/>
<path d="M648.15 917.396C650.704 917.396 652.774 914.917 652.774 911.86C652.774 908.803 650.704 906.325 648.15 906.325C645.597 906.325 643.527 908.803 643.527 911.86C643.527 914.917 645.597 917.396 648.15 917.396Z" fill="#3F3D56"/>
<path d="M607.754 878.976C604.477 861.406 614.952 843.652 631.151 839.321C647.351 834.991 663.139 845.724 666.416 863.294C669.693 880.864 658.958 887.344 642.758 891.675C626.559 896.005 611.031 896.546 607.754 878.976Z" fill="#E6E6E6"/>
<path d="M676.715 750.58C680.716 738.047 681.296 726.668 678.01 725.164C674.723 723.66 668.815 732.601 664.814 745.134C660.813 757.667 660.233 769.046 663.519 770.55C666.806 772.054 672.714 763.113 676.715 750.58Z" fill="#2F2E41"/>
<path d="M673.313 792.331C676.904 765.843 661.878 740.886 639.753 736.587C617.628 732.289 596.781 750.277 593.191 776.765C589.601 803.253 604.626 828.21 626.751 832.508C648.876 836.807 669.723 818.819 673.313 792.331Z" fill="#2F2E41"/>
<path d="M627.087 822.68H614.757V849.127H627.087V822.68Z" fill="#2F2E41"/>
<path d="M651.747 822.68H639.417V849.127H651.747V822.68Z" fill="#2F2E41"/>
<path d="M625.032 854.047C630.707 854.047 635.307 851.982 635.307 849.434C635.307 846.887 630.707 844.821 625.032 844.821C619.357 844.821 614.757 846.887 614.757 849.434C614.757 851.982 619.357 854.047 625.032 854.047Z" fill="#2F2E41"/>
<path d="M649.692 853.432C655.366 853.432 659.966 851.367 659.966 848.819C659.966 846.272 655.366 844.206 649.692 844.206C644.017 844.206 639.417 846.272 639.417 848.819C639.417 851.367 644.017 853.432 649.692 853.432Z" fill="#2F2E41"/>
<path d="M634.28 788.853C641.94 788.853 648.15 781.418 648.15 772.247C648.15 763.076 641.94 755.641 634.28 755.641C626.619 755.641 620.409 763.076 620.409 772.247C620.409 781.418 626.619 788.853 634.28 788.853Z" fill="white"/>
<path d="M634.279 777.782C636.833 777.782 638.903 775.304 638.903 772.247C638.903 769.19 636.833 766.712 634.279 766.712C631.726 766.712 629.656 769.19 629.656 772.247C629.656 775.304 631.726 777.782 634.279 777.782Z" fill="#3F3D56"/>
<path d="M593.883 739.362C590.606 721.792 601.082 704.038 617.281 699.708C633.48 695.378 649.269 706.111 652.546 723.681C655.823 741.251 645.087 747.731 628.888 752.061C612.689 756.392 597.16 756.933 593.883 739.362Z" fill="#6C63FF"/>
<path d="M605.874 772.414C607.382 768.608 600.395 760.862 590.269 755.112C580.143 749.362 570.712 747.786 569.205 751.592C567.697 755.398 574.683 763.144 584.81 768.894C594.936 774.643 604.367 776.219 605.874 772.414Z" fill="#2F2E41"/>
<path d="M613.317 802.076C613.317 806.832 623.545 816.222 634.894 816.222C646.243 816.222 656.884 802.834 656.884 798.079C656.884 793.323 646.243 799.001 634.894 799.001C623.545 799.001 613.317 797.321 613.317 802.076Z" fill="white"/>
<path d="M673.154 599.025C672.404 599.026 671.686 599.382 671.156 600.017C670.626 600.651 670.327 601.512 670.327 602.409V742.304C670.327 743.201 670.626 744.062 671.156 744.696C671.686 745.331 672.404 745.688 673.154 745.689H943.613C944.362 745.688 945.081 745.331 945.611 744.696C946.141 744.062 946.439 743.201 946.44 742.304V602.409C946.439 601.512 946.141 600.651 945.611 600.017C945.081 599.382 944.362 599.026 943.613 599.025H673.154Z" fill="#6C63FF"/>
<path d="M746.182 705.21C761.338 705.21 773.625 690.501 773.625 672.357C773.625 654.212 761.338 639.503 746.182 639.503C731.026 639.503 718.739 654.212 718.739 672.357C718.739 690.501 731.026 705.21 746.182 705.21Z" fill="white"/>
<path d="M808.119 667.985C807.277 668.002 806.475 668.414 805.884 669.132C805.294 669.851 804.963 670.819 804.963 671.827C804.963 672.835 805.294 673.802 805.884 674.521C806.475 675.239 807.277 675.651 808.119 675.668H894.766C895.187 675.677 895.606 675.586 895.998 675.4C896.39 675.215 896.748 674.939 897.051 674.589C897.355 674.238 897.597 673.819 897.765 673.356C897.933 672.893 898.022 672.394 898.029 671.89C898.036 671.385 897.96 670.884 897.805 670.414C897.65 669.945 897.419 669.517 897.126 669.154C896.833 668.791 896.483 668.502 896.096 668.301C895.709 668.1 895.293 667.993 894.871 667.985C894.836 667.985 894.801 667.985 894.766 667.985H808.119Z" fill="white"/>
<path d="M808.119 645.729C807.277 645.746 806.475 646.158 805.884 646.877C805.294 647.595 804.963 648.563 804.963 649.571C804.963 650.579 805.294 651.546 805.884 652.265C806.475 652.983 807.277 653.395 808.119 653.412H851.388C851.81 653.421 852.229 653.33 852.621 653.145C853.013 652.959 853.371 652.683 853.674 652.333C853.977 651.982 854.22 651.563 854.388 651.1C854.555 650.637 854.645 650.139 854.652 649.634C854.659 649.129 854.583 648.628 854.428 648.158C854.273 647.689 854.042 647.261 853.749 646.898C853.456 646.535 853.105 646.246 852.718 646.045C852.331 645.845 851.915 645.737 851.494 645.729C851.459 645.729 851.423 645.729 851.388 645.729H808.119Z" fill="white"/>
<path d="M808.119 691.301C807.277 691.318 806.475 691.73 805.884 692.448C805.294 693.167 804.963 694.134 804.963 695.142C804.963 696.15 805.294 697.118 805.884 697.837C806.475 698.555 807.277 698.967 808.119 698.984H894.766C895.187 698.992 895.606 698.901 895.998 698.716C896.39 698.531 896.748 698.255 897.051 697.904C897.355 697.553 897.597 697.134 897.765 696.671C897.933 696.208 898.022 695.71 898.029 695.206C898.036 694.701 897.96 694.199 897.805 693.73C897.65 693.261 897.419 692.832 897.126 692.47C896.833 692.107 896.483 691.817 896.096 691.617C895.709 691.416 895.293 691.309 894.871 691.301C894.836 691.3 894.801 691.3 894.766 691.301H808.119Z" fill="white"/>
<path d="M1228.93 950.066C1232.22 948.562 1231.64 937.183 1227.64 924.65C1223.63 912.117 1217.73 903.176 1214.44 904.68C1211.15 906.184 1211.73 917.563 1215.73 930.096C1219.74 942.629 1225.64 951.57 1228.93 950.066Z" fill="#2F2E41"/>
<path d="M1257.22 1022.18C1279.34 1017.88 1294.37 992.922 1290.78 966.434C1287.19 939.947 1266.34 921.958 1244.22 926.257C1222.09 930.555 1207.06 955.512 1210.66 982C1214.25 1008.49 1235.09 1026.48 1257.22 1022.18Z" fill="#2F2E41"/>
<path d="M1269.21 1012.35H1256.88L1259.29 1044.02L1269.23 1040.79L1269.21 1012.35Z" fill="#2F2E41"/>
<path d="M1242.33 1012.43H1230L1232.41 1044.1L1241.9 1040.79L1242.33 1012.43Z" fill="#2F2E41"/>
<path d="M1232.06 1045.59C1237.72 1045.1 1242.18 1042.64 1242.03 1040.09C1241.87 1037.55 1237.16 1035.9 1231.5 1036.39C1225.84 1036.89 1221.38 1039.35 1221.53 1041.89C1221.69 1044.43 1226.4 1046.09 1232.06 1045.59Z" fill="#2F2E41"/>
<path d="M1249.69 978.523C1257.35 978.523 1263.56 971.088 1263.56 961.917C1263.56 952.745 1257.35 945.311 1249.69 945.311C1242.03 945.311 1235.82 952.745 1235.82 961.917C1235.82 971.088 1242.03 978.523 1249.69 978.523Z" fill="white"/>
<path d="M1249.69 967.452C1252.24 967.452 1254.31 964.974 1254.31 961.917C1254.31 958.86 1252.24 956.381 1249.69 956.381C1247.14 956.381 1245.06 958.86 1245.06 961.917C1245.06 964.974 1247.14 967.452 1249.69 967.452Z" fill="#3F3D56"/>
<path d="M1298.73 944.922C1305.38 934.129 1308.49 923.352 1305.66 920.849C1302.83 918.347 1295.14 925.067 1288.48 935.859C1281.82 946.652 1278.72 957.43 1281.55 959.932C1284.38 962.435 1292.07 955.714 1298.73 944.922Z" fill="#2F2E41"/>
<path d="M1230.91 999.27C1230.91 995.351 1239.34 987.612 1248.7 987.612C1258.05 987.612 1266.82 998.646 1266.82 1002.57C1266.82 1006.48 1258.05 1001.8 1248.7 1001.8C1239.34 1001.8 1230.91 1003.19 1230.91 999.27Z" fill="white"/>
<path d="M1364.52 934.065L1142.36 897.195C1140.63 896.905 1139.07 895.804 1138.01 894.134C1136.96 892.464 1136.5 890.362 1136.74 888.288L1161.71 672.611C1161.95 670.537 1162.87 668.663 1164.27 667.4C1165.66 666.137 1167.42 665.588 1169.15 665.873L1391.31 702.743C1393.04 703.033 1394.61 704.133 1395.66 705.803C1396.72 707.473 1397.17 709.576 1396.94 711.65L1371.96 927.327C1371.72 929.4 1370.8 931.274 1369.41 932.537C1368.01 933.801 1366.26 934.35 1364.52 934.065V934.065Z" fill="#6C63FF"/>
<path d="M1284.94 866.755L1171.52 847.932C1171.38 847.91 1171.24 847.873 1171.1 847.821L1237.62 745.488C1238.03 744.849 1238.57 744.352 1239.19 744.046C1239.81 743.741 1240.49 743.638 1241.15 743.748C1241.82 743.858 1242.45 744.178 1242.98 744.674C1243.5 745.17 1243.91 745.826 1244.16 746.573L1271.52 827.195L1272.83 831.054L1284.94 866.755Z" fill="white"/>
<path opacity="0.2" d="M1284.94 866.754L1246.21 860.328L1269.05 830.427L1270.69 828.273L1271.52 827.196L1272.83 831.054L1284.94 866.754Z" fill="black"/>
<path d="M1348.09 877.236L1249.99 860.955L1272.83 831.054L1274.47 828.899L1304.23 789.932C1304.74 789.346 1305.35 788.897 1306.02 788.613C1306.69 788.329 1307.4 788.216 1308.11 788.282C1308.82 788.348 1309.51 788.592 1310.13 788.997C1310.75 789.402 1311.3 789.96 1311.73 790.634C1311.84 790.824 1311.94 791.021 1312.03 791.226L1348.09 877.236Z" fill="white"/>
<path d="M1286.32 780.228C1295.68 780.228 1303.28 771.136 1303.28 759.92C1303.28 748.705 1295.68 739.613 1286.32 739.613C1276.95 739.613 1269.35 748.705 1269.35 759.92C1269.35 771.136 1276.95 780.228 1286.32 780.228Z" fill="white"/>
<path d="M1193.48 685.86L1172.94 682.452L1170.09 707.037L1190.63 710.445L1193.48 685.86Z" fill="#3F3D56"/>
<path d="M1290.08 929.032C1293.36 911.462 1282.89 893.708 1266.69 889.378C1250.49 885.047 1234.7 895.78 1231.42 913.35C1228.15 930.92 1238.88 937.4 1255.08 941.731C1271.28 946.061 1286.81 946.602 1290.08 929.032Z" fill="#F2F2F2"/>
<path d="M1259.1 1045.51C1264.76 1045.02 1269.22 1042.56 1269.07 1040.02C1268.91 1037.48 1264.2 1035.82 1258.54 1036.31C1252.88 1036.81 1248.42 1039.27 1248.57 1041.81C1248.73 1044.35 1253.44 1046.01 1259.1 1045.51Z" fill="#2F2E41"/>
</g>
<defs>
<clipPath id="clip0">
<rect width="828" height="623" fill="white" transform="translate(569 507)"/>
</clipPath>
</defs>
</svg>
