<svg width="1440" height="1001" viewBox="0 0 1440 1001" fill="none" xmlns="http://www.w3.org/2000/svg">
<g clip-path="url(#clip0)">
<rect width="1440" height="1001" fill="white"/>
<path d="M0 518.5L1440 1024H0V518.5Z" fill="#FF9642" fill-opacity="0.16"/>
<path d="M0 0H1440L0 780V0Z" fill="#B9FFFC" fill-opacity="0.16"/>
<path opacity="0.1" d="M1174.93 1050.56C1315.41 1050.56 1429.29 1033.91 1429.29 1013.37C1429.29 992.835 1315.41 976.184 1174.93 976.184C1034.44 976.184 920.562 992.835 920.562 1013.37C920.562 1033.91 1034.44 1050.56 1174.93 1050.56Z" fill="#6C63FF"/>
<path d="M1281.71 269.232V264.433H1276.04V269.232H1281.71Z" fill="url(#paint0_linear)"/>
<path d="M1067.06 385.59H978.177V397.587H1067.06V385.59Z" fill="#EDEDF4"/>
<path d="M1471.27 555H972V566.997H1471.27V555Z" fill="#EDEDF4"/>
<path d="M1477.45 524.753H978.177V536.75H1477.45V524.753Z" fill="#EDEDF4"/>
<path d="M1381.78 591.12H1073.52V893.442H1381.78V591.12Z" fill="#EDEDF4"/>
<path d="M1281.74 684.78C1281.34 684.78 1280.95 684.852 1280.54 684.864C1280.67 684.166 1280.72 683.445 1280.67 682.728C1280.56 679.703 1279.91 676.748 1278.78 674.079C1278.09 672.505 1277.3 670.998 1276.44 669.568C1273.86 665.057 1271.48 660.45 1268.65 656.191C1267.43 654.536 1266.42 652.645 1265.66 650.589C1265.37 649.478 1265.03 648.392 1264.63 647.338C1264.09 646.259 1263.32 645.392 1262.41 644.832C1261.5 644.271 1260.49 644.038 1259.48 644.158C1257.46 644.461 1255.6 645.71 1254.26 647.661C1253.47 648.741 1252.82 650.409 1253.48 651.632C1254.14 652.856 1255.58 653.012 1255.66 654.356C1255.66 655.075 1255.66 656.251 1255.08 656.479C1254.06 656.823 1253.08 657.365 1252.19 658.087C1251.75 658.458 1251.38 658.955 1251.12 659.538C1250.85 660.121 1250.7 660.774 1250.67 661.446C1252.3 661.758 1253.68 660.018 1255.16 659.046C1257.04 658.027 1259.16 657.929 1261.1 658.771C1261.84 659.022 1262.54 659.467 1263.14 660.078C1263.67 660.739 1264.12 661.5 1264.46 662.334C1266.29 665.674 1267.41 669.546 1267.74 673.587L1268.57 680.329C1267.34 680.453 1266.11 680.662 1264.9 680.953C1261.63 681.564 1258.3 681.277 1255.13 680.113C1251.82 678.913 1248.51 676.73 1245.1 677.714C1243.5 678.157 1242.04 679.285 1240.43 679.609C1239.16 679.764 1237.89 679.679 1236.65 679.357L1234.05 678.829C1233.96 678.553 1233.89 678.265 1233.83 677.978C1233.29 675.571 1233.04 673.076 1233.09 670.575C1234.79 670.46 1236.43 669.82 1237.89 668.71C1239.34 667.601 1240.56 666.057 1241.44 664.212C1242.32 662.367 1242.82 660.278 1242.92 658.127C1243.01 655.976 1242.69 653.829 1241.98 651.872C1243.38 650.875 1244.54 649.411 1245.34 647.637L1244.67 647.481L1245.3 646.282C1245.15 646.168 1245.03 646.013 1244.93 645.828C1244.84 645.643 1244.79 645.434 1244.77 645.217C1244.75 644.999 1244.77 644.78 1244.83 644.576C1244.9 644.371 1244.99 644.187 1245.12 644.038C1244.57 643.676 1243.95 643.502 1243.33 643.534C1243.53 643.067 1243.21 642.491 1242.82 642.335C1242.42 642.231 1242 642.198 1241.59 642.239C1240.99 642.18 1240.39 642.006 1239.83 641.723C1235.79 639.959 1231.42 638.412 1227.3 639.887C1225.49 640.605 1223.8 641.735 1222.3 643.223C1220.84 644.26 1219.76 645.966 1219.26 647.99C1218.76 650.013 1218.9 652.201 1219.63 654.104C1220.26 656.069 1220.71 658.118 1220.97 660.21C1221.03 662.164 1220.85 664.117 1220.45 666.005C1221.35 666.352 1222.27 666.613 1223.2 666.784C1222.67 669.361 1221.74 671.776 1220.47 673.887C1219.88 674.82 1219.25 675.706 1218.58 676.538H1218.46C1216.59 676.983 1214.69 677.279 1212.79 677.426C1210.78 677.426 1208.82 676.466 1206.82 676.646C1205.64 676.815 1204.48 677.149 1203.35 677.642C1198.16 679.572 1192.77 680.486 1187.36 680.353L1186.71 680.437L1187.31 675.542C1187.64 671.501 1188.76 667.63 1190.59 664.289C1190.93 663.455 1191.38 662.694 1191.91 662.034C1192.51 661.423 1193.21 660.977 1193.96 660.726C1195.9 659.884 1198.01 659.982 1199.89 661.002C1201.37 661.926 1202.73 663.665 1204.39 663.401C1204.36 662.729 1204.2 662.077 1203.94 661.494C1203.67 660.911 1203.3 660.414 1202.86 660.042C1201.97 659.32 1200.99 658.778 1199.97 658.435C1199.42 658.207 1199.34 657.031 1199.39 656.311C1199.47 654.967 1200.98 654.68 1201.57 653.576C1202.17 652.472 1201.57 650.697 1200.79 649.605C1199.45 647.659 1197.59 646.414 1195.57 646.114C1194.56 645.993 1193.55 646.226 1192.64 646.787C1191.74 647.348 1190.97 648.215 1190.42 649.293C1190.02 650.346 1189.68 651.432 1189.39 652.544C1188.63 654.601 1187.62 656.492 1186.4 658.147C1183.56 662.406 1181.19 667.012 1178.61 671.523C1177.75 672.954 1176.97 674.457 1176.27 676.022C1175.15 678.698 1174.5 681.656 1174.38 684.684C1174.33 685.404 1174.38 686.129 1174.51 686.831C1174.45 687 1174.41 687.184 1174.41 687.371C1174.44 687.699 1174.52 688.016 1174.64 688.305C1174.77 688.593 1174.94 688.847 1175.14 689.051C1176.59 690.898 1178.11 692.806 1180.06 693.597C1181.27 693.961 1182.5 694.23 1183.74 694.401C1186.73 695.085 1189.48 697.281 1192.51 697.269C1194.6 697.269 1196.67 696.213 1198.73 696.585C1201.56 697.077 1203.61 700.004 1205.35 702.847C1206.82 705.066 1207.93 707.641 1208.61 710.417C1209.28 713.764 1208.86 717.531 1210.27 720.482C1210.63 721.085 1210.9 721.758 1211.09 722.474C1211.12 723.606 1210.92 724.729 1210.51 725.737C1209.32 730.38 1211.93 735.335 1211.65 740.133C1211.52 742.473 1210.71 744.68 1210.62 747.02C1210.48 750.031 1211.45 753.402 1210.12 755.909C1210.93 755.381 1211.74 754.914 1212.57 754.494C1208.6 769.262 1205.01 784.486 1205.28 800.01C1205.49 810.075 1207.17 821.16 1202.61 829.426C1201.97 830.412 1201.45 831.526 1201.09 832.725C1200.73 834.345 1201.09 836.06 1201.33 837.716C1202.17 844.914 1199.11 852.004 1198.9 859.31C1198.87 861.562 1198.99 863.812 1199.24 866.041L1200.35 878.205C1199.23 878.516 1198.18 879.176 1197.31 880.125C1196.14 881.325 1195.11 883.292 1195.65 885.092C1196.1 886.543 1197.4 887.239 1198.6 887.599C1199.84 887.774 1201.01 888.34 1202.03 889.243C1202.35 889.698 1202.7 890.131 1203.06 890.538C1203.76 891.019 1204.56 891.208 1205.35 891.078C1206.79 891.006 1208.18 890.85 1209.66 890.598C1209.96 890.582 1210.26 890.462 1210.52 890.25C1210.69 890.008 1210.82 889.723 1210.91 889.414C1210.99 889.104 1211.02 888.777 1211 888.451C1211.11 886.625 1211.05 884.789 1210.82 882.98C1210.76 882.632 1210.69 882.296 1210.61 881.949C1211.11 880.407 1211.46 878.796 1211.66 877.15C1211.96 874.75 1212 872.243 1212.13 869.784C1212.41 863.521 1213.07 857.307 1213.83 851.092L1214.77 843.103C1215.07 840.475 1215.37 837.848 1215.72 835.221C1217.47 820.99 1220.2 806.981 1223.87 793.352C1224.67 790.436 1226.05 787.017 1228.48 786.933L1229.92 790.532C1231.81 795.043 1232.97 800.046 1234.4 804.785C1236.3 811.011 1235.65 818.281 1238.19 824.136C1238.6 825.107 1239.13 826.031 1239.44 827.051C1239.89 828.62 1240.15 830.266 1240.22 831.934L1241.89 853.528C1242.65 863.233 1243.46 873.203 1246.9 881.924C1247.11 882.487 1247.36 883.025 1247.65 883.532C1247.55 884.984 1247.53 886.444 1247.6 887.899C1247.55 888.156 1247.55 888.425 1247.59 888.686C1247.63 888.946 1247.72 889.189 1247.85 889.398C1247.98 889.606 1248.15 889.773 1248.34 889.885C1248.53 889.998 1248.74 890.053 1248.95 890.046C1250.38 890.286 1251.78 890.442 1253.25 890.514C1254.04 890.644 1254.84 890.455 1255.54 889.974C1255.91 889.573 1256.26 889.14 1256.58 888.679C1257.59 887.776 1258.76 887.21 1259.99 887.035C1261.19 886.687 1262.5 885.991 1262.94 884.528C1263.5 882.728 1262.46 880.773 1261.29 879.561C1260.34 878.508 1259.17 877.821 1257.92 877.582C1257.41 877.619 1256.89 877.567 1256.39 877.426C1256.51 876.635 1256.54 875.829 1256.5 875.026C1256.38 874.083 1256.35 873.124 1256.41 872.171C1256.6 871.208 1256.86 870.269 1257.18 869.364C1258.27 865.117 1255.95 860.798 1255.14 856.455C1254.05 850.673 1255.67 844.614 1255.38 838.676C1254.92 829.354 1249.8 820.608 1251.16 811.431C1252.25 804.089 1251.32 796.543 1250.29 789.189L1246.51 761.824C1246.24 759.603 1245.78 757.426 1245.14 755.333C1245.84 755.179 1246.53 754.946 1247.2 754.638C1248.14 751.71 1247.98 748.483 1247.7 745.34C1247.42 742.197 1246.75 739.126 1246.42 736.006C1246.14 733.498 1245.97 730.97 1245.93 728.436C1245.83 725.937 1245.97 723.431 1246.35 720.974C1246.78 718.818 1247.37 716.717 1248.12 714.7C1249.95 708.875 1252.16 703.257 1254.73 697.904C1258.62 697.52 1262.38 697.101 1266.26 696.705C1267.19 696.651 1268.11 696.494 1269.02 696.237C1270.18 695.731 1271.36 695.302 1272.55 694.953C1272.99 694.924 1273.43 694.815 1273.85 694.629C1274.71 694.137 1275.23 692.758 1276.16 692.71C1276.51 692.769 1276.87 692.769 1277.22 692.71C1277.64 692.542 1277.84 691.966 1278.17 691.51C1278.75 690.682 1279.71 690.514 1280.47 689.974C1281.13 689.433 1281.62 688.617 1281.85 687.668C1282.08 686.719 1282.04 685.697 1281.74 684.78V684.78Z" fill="url(#paint1_linear)"/>
<path d="M1232.55 671.655C1238.3 671.655 1242.95 665.747 1242.95 658.459C1242.95 651.17 1238.3 645.262 1232.55 645.262C1226.81 645.262 1222.15 651.17 1222.15 658.459C1222.15 665.747 1226.81 671.655 1232.55 671.655Z" fill="#A1616A"/>
<path d="M1220.54 674.882C1219.48 676.541 1218.29 678.063 1217 679.429C1223.11 684.051 1230.37 685.568 1237.33 683.676C1237.07 682.776 1236.14 682.644 1235.49 682.188C1234.64 681.426 1234.07 680.271 1233.88 678.973C1233.18 675.812 1232.98 672.506 1233.28 669.244C1233.41 668.452 1233.41 667.636 1233.28 666.844C1232.92 665.657 1232.22 664.682 1231.32 664.109C1229.85 662.944 1228.26 662.036 1226.59 661.41C1224.87 660.762 1223.89 660.462 1223.82 663.005C1223.75 667.307 1222.6 671.467 1220.54 674.882V674.882Z" fill="#A1616A"/>
<path d="M1268.81 683.184L1267.75 674.666C1267.57 672.953 1267.29 671.259 1266.9 669.604C1266.27 667.454 1265.46 665.395 1264.48 663.461C1264.14 662.631 1263.69 661.874 1263.16 661.218C1262.56 660.607 1261.86 660.162 1261.12 659.91C1259.18 659.072 1257.07 659.174 1255.2 660.198C1253.71 661.11 1252.36 662.838 1250.71 662.538C1250.74 661.867 1250.89 661.214 1251.16 660.633C1251.42 660.051 1251.79 659.557 1252.24 659.191C1253.11 658.47 1254.07 657.928 1255.08 657.583C1255.61 657.367 1255.7 656.191 1255.65 655.471C1255.57 654.14 1254.06 653.852 1253.47 652.76C1252.87 651.668 1253.47 649.893 1254.24 648.801C1255.58 646.862 1257.44 645.625 1259.45 645.334C1260.46 645.207 1261.47 645.434 1262.38 645.991C1263.28 646.548 1264.05 647.413 1264.6 648.489C1265 649.538 1265.34 650.62 1265.63 651.728C1266.39 653.775 1267.4 655.658 1268.62 657.307C1271.45 661.542 1273.83 666.125 1276.39 670.612C1277.25 672.041 1278.03 673.54 1278.73 675.098C1279.86 677.755 1280.51 680.698 1280.62 683.712C1280.71 684.639 1280.6 685.577 1280.31 686.435C1280.02 687.06 1279.6 687.578 1279.11 687.94C1278.61 688.301 1278.05 688.494 1277.48 688.499C1276.31 688.462 1275.17 688.17 1274.08 687.635L1269.96 685.872C1269.46 685.731 1269 685.41 1268.63 684.948C1268.49 684.68 1268.42 684.35 1268.45 684.024C1268.48 683.698 1268.61 683.399 1268.81 683.184V683.184Z" fill="#A1616A"/>
<path d="M1186.4 685.068L1187.45 676.55C1187.63 674.837 1187.91 673.144 1188.3 671.487C1188.93 669.335 1189.74 667.276 1190.72 665.345C1191.06 664.514 1191.5 663.76 1192.03 663.113C1192.63 662.496 1193.33 662.05 1194.07 661.806C1196.01 660.964 1198.12 661.062 1200 662.082C1201.49 662.994 1202.84 664.721 1204.5 664.421C1204.46 663.75 1204.31 663.099 1204.04 662.518C1203.78 661.937 1203.41 661.442 1202.96 661.074C1202.09 660.356 1201.13 659.814 1200.13 659.466C1199.59 659.25 1199.5 658.075 1199.55 657.355C1199.63 656.023 1201.13 655.735 1201.73 654.644C1202.34 653.552 1201.73 651.776 1200.95 650.697C1199.62 648.752 1197.76 647.511 1195.74 647.218C1194.74 647.092 1193.72 647.32 1192.82 647.876C1191.91 648.433 1191.14 649.297 1190.6 650.373C1190.2 651.421 1189.86 652.504 1189.57 653.612C1188.81 655.656 1187.8 657.538 1186.59 659.191C1183.75 663.425 1181.38 668.008 1178.8 672.495C1177.95 673.924 1177.17 675.423 1176.47 676.982C1175.35 679.641 1174.7 682.583 1174.58 685.596C1174.5 686.527 1174.61 687.47 1174.9 688.331C1175.2 688.961 1175.62 689.482 1176.13 689.842C1176.63 690.201 1177.2 690.388 1177.78 690.382C1178.94 690.352 1180.09 690.059 1181.17 689.519L1185.3 687.803C1185.8 687.665 1186.26 687.344 1186.61 686.879C1186.77 686.6 1186.83 686.256 1186.79 685.918C1186.75 685.58 1186.61 685.275 1186.4 685.068Z" fill="#A1616A"/>
<path d="M1261.29 879.513C1262.46 880.713 1263.49 882.668 1262.94 884.456C1262.49 885.907 1261.19 886.591 1259.99 886.951C1258.77 887.128 1257.59 887.688 1256.58 888.583C1256.26 889.024 1255.91 889.437 1255.55 889.818C1254.85 890.305 1254.05 890.494 1253.26 890.358C1251.82 890.286 1250.42 890.13 1248.96 889.89C1248.65 889.874 1248.35 889.754 1248.1 889.543C1247.92 889.303 1247.79 889.021 1247.71 888.713C1247.63 888.405 1247.6 888.078 1247.62 887.755C1247.51 885.937 1247.57 884.109 1247.79 882.308C1248.03 880.5 1248.77 878.856 1249.86 877.666C1250.96 876.586 1254.29 873.383 1255.54 875.434C1255.87 875.986 1255.74 876.742 1256.2 877.198C1256.66 877.654 1257.39 877.402 1257.92 877.486C1259.17 877.738 1260.34 878.442 1261.29 879.513Z" fill="#3F3D56"/>
<path d="M1197.39 880.137C1196.22 881.337 1195.19 883.292 1195.74 885.08C1196.18 886.531 1197.48 887.227 1198.68 887.575C1199.91 887.75 1201.08 888.31 1202.09 889.207C1202.42 889.668 1202.76 890.101 1203.13 890.502C1203.83 890.98 1204.63 891.169 1205.41 891.042C1206.85 890.97 1208.25 890.814 1209.72 890.562C1210.02 890.548 1210.32 890.428 1210.58 890.214C1210.75 889.976 1210.88 889.694 1210.97 889.386C1211.05 889.078 1211.08 888.751 1211.06 888.427C1211.16 886.613 1211.1 884.789 1210.88 882.992C1210.65 881.178 1209.91 879.528 1208.81 878.337C1207.72 877.258 1204.39 874.054 1203.13 876.106C1202.8 876.658 1202.94 877.426 1202.46 877.869C1201.99 878.313 1201.28 878.073 1200.74 878.157C1199.5 878.405 1198.34 879.091 1197.39 880.137Z" fill="#3F3D56"/>
<path d="M1213.47 752.13C1209.2 767.726 1205.06 783.862 1205.38 800.406C1205.59 810.423 1207.28 821.46 1202.73 829.678C1202.08 830.658 1201.56 831.769 1201.2 832.965C1200.85 834.573 1201.2 836.276 1201.43 837.932C1202.28 845.13 1199.23 852.16 1199.01 859.43C1198.99 861.67 1199.1 863.908 1199.35 866.125L1200.53 878.937C1200.93 883.328 1205.39 885.128 1208.84 885.739C1210.45 883.289 1211.47 880.29 1211.76 877.114C1212.05 874.714 1212.1 872.231 1212.21 869.796C1212.5 863.557 1213.21 857.367 1213.91 851.188L1214.86 843.234C1215.16 840.619 1215.45 838.004 1215.8 835.389C1217.57 821.266 1220.3 807.366 1223.97 793.843C1224.77 790.928 1226.14 787.533 1228.56 787.449L1230.01 790.976C1231.9 795.451 1233.04 800.442 1234.48 805.156C1236.37 811.359 1235.72 818.581 1238.26 824.423C1238.68 825.383 1239.21 826.307 1239.51 827.315C1239.95 828.857 1240.22 830.474 1240.29 832.113L1241.96 853.564C1242.72 863.221 1243.52 873.143 1246.95 881.816C1247.29 882.853 1247.84 883.762 1248.53 884.456C1249.93 885.655 1251.89 885.044 1253.26 883.796C1254.34 882.784 1255.21 881.443 1255.78 879.897C1256.35 878.35 1256.61 876.647 1256.53 874.942C1256.42 874.001 1256.39 873.048 1256.44 872.099C1256.64 871.143 1256.9 870.208 1257.21 869.304C1258.31 865.081 1255.99 860.786 1255.17 856.467C1254.08 850.709 1255.7 844.686 1255.42 838.772C1254.96 829.486 1249.85 820.776 1251.2 811.647C1252.29 804.341 1251.36 796.831 1250.34 789.513L1246.51 762.28C1245.9 757.985 1245 753.138 1241.98 751.039C1240.25 750.056 1238.35 749.644 1236.47 749.839C1228.65 749.839 1221.18 751.219 1213.47 752.13Z" fill="#3F3D56"/>
<path d="M1281.74 685.752C1278.99 686.103 1276.21 685.375 1273.8 683.664C1272.88 682.89 1271.9 682.238 1270.88 681.721C1268.98 680.941 1266.9 681.625 1264.92 681.997C1261.66 682.595 1258.34 682.309 1255.17 681.157C1251.86 679.957 1248.55 677.786 1245.15 678.757C1243.55 679.201 1242.1 680.317 1240.48 680.641C1239.22 680.803 1237.95 680.718 1236.7 680.389L1225.92 678.253C1223.49 677.636 1221.01 677.41 1218.53 677.582C1216.65 678.025 1214.76 678.325 1212.85 678.481C1210.86 678.481 1208.89 677.522 1206.9 677.69C1205.72 677.86 1204.56 678.194 1203.44 678.685C1198.26 680.605 1192.88 681.515 1187.48 681.385C1183.18 681.742 1179.04 683.566 1175.48 686.663C1175.24 686.835 1175.03 687.074 1174.86 687.362C1174.7 687.651 1174.59 687.981 1174.54 688.331C1174.57 688.656 1174.65 688.97 1174.78 689.254C1174.91 689.539 1175.08 689.787 1175.29 689.986C1176.72 691.834 1178.25 693.729 1180.19 694.521C1181.4 694.882 1182.63 695.147 1183.86 695.313C1186.84 696.009 1189.59 698.18 1192.62 698.18C1194.71 698.18 1196.76 697.125 1198.82 697.496C1201.66 697.988 1203.69 700.892 1205.44 703.723C1206.91 705.935 1208.02 708.496 1208.7 711.257C1209.37 714.592 1208.95 718.335 1210.36 721.274C1210.71 721.874 1210.99 722.543 1211.17 723.254C1211.2 724.382 1211 725.502 1210.59 726.505C1209.4 731.124 1212.01 736.006 1211.74 740.901C1211.61 743.217 1210.79 745.424 1210.71 747.739C1210.58 750.751 1211.53 754.098 1210.21 756.593C1215.31 753.328 1220.99 751.755 1226.71 752.022C1227.66 752.051 1228.61 752.164 1229.54 752.358C1231.37 752.83 1233.16 753.463 1234.92 754.254C1238.87 755.849 1243.22 756.989 1247.11 755.166C1248.06 752.25 1247.9 749.035 1247.6 745.916C1247.31 742.797 1246.71 739.725 1246.34 736.618C1246.05 734.122 1245.89 731.606 1245.85 729.084C1245.74 726.597 1245.88 724.102 1246.26 721.658C1246.7 719.513 1247.29 717.424 1248.03 715.42C1249.86 709.592 1252.07 703.973 1254.65 698.624C1258.53 698.228 1262.28 697.808 1266.16 697.424C1267.08 697.36 1268 697.203 1268.91 696.957C1270.06 696.456 1271.24 696.032 1272.43 695.685C1272.87 695.653 1273.31 695.54 1273.73 695.349C1274.58 694.857 1275.11 693.49 1276.04 693.454C1276.39 693.507 1276.75 693.507 1277.1 693.454C1277.51 693.298 1277.71 692.71 1278.04 692.254C1278.63 691.426 1279.58 691.258 1280.35 690.73C1280.99 690.224 1281.48 689.456 1281.74 688.551C1281.99 687.646 1281.99 686.658 1281.74 685.752V685.752Z" fill="#6C63FF"/>
<path d="M1234.36 663.221C1234.66 663.523 1235.03 663.7 1235.41 663.73C1235.79 663.76 1236.17 663.641 1236.5 663.389C1236.92 662.896 1237.19 662.249 1237.3 661.542C1237.64 660.043 1237.91 658.521 1238.12 656.983C1238.18 656.313 1238.34 655.665 1238.59 655.076C1239.28 653.732 1240.78 653.66 1241.94 653.048C1243.38 652.062 1244.57 650.582 1245.37 648.777L1244.72 648.609L1245.34 647.41C1245.19 647.297 1245.07 647.144 1244.98 646.96C1244.88 646.777 1244.83 646.569 1244.81 646.354C1244.8 646.138 1244.82 645.921 1244.88 645.719C1244.94 645.517 1245.04 645.336 1245.17 645.19C1244.61 644.817 1243.99 644.639 1243.37 644.674C1243.57 644.218 1243.25 643.643 1242.86 643.475C1242.46 643.368 1242.05 643.34 1241.64 643.391C1241.03 643.328 1240.44 643.15 1239.88 642.863C1235.85 641.111 1231.48 639.564 1227.38 641.039C1225.57 641.75 1223.87 642.876 1222.38 644.362C1220.93 645.392 1219.85 647.084 1219.36 649.091C1218.86 651.099 1218.99 653.269 1219.72 655.16C1220.34 657.109 1220.78 659.142 1221.04 661.218C1221.1 663.167 1220.93 665.117 1220.53 667C1221.65 667.457 1222.81 667.743 1223.98 667.852C1225.16 667.967 1226.34 667.541 1227.29 666.653C1228.24 665.621 1228.77 664.025 1229.54 662.73C1229.84 662.158 1230.25 661.692 1230.73 661.373C1231.2 661.054 1231.74 660.893 1232.28 660.906C1233.33 661.11 1233.52 662.466 1234.36 663.221Z" fill="#3F3D56"/>
<path d="M1207.01 889.818H1195.94C1195.61 889.902 1195.32 890.127 1195.1 890.455C1194.89 890.783 1194.78 891.194 1194.78 891.618C1194.78 892.042 1194.89 892.453 1195.1 892.781C1195.32 893.109 1195.61 893.334 1195.94 893.417H1198.15V917.255H1160.26C1160.17 917.068 1160.05 916.911 1159.9 916.798C1159.76 916.685 1159.59 916.62 1159.42 916.607H1148.36C1148.03 916.691 1147.73 916.916 1147.52 917.244C1147.31 917.572 1147.19 917.983 1147.19 918.407C1147.19 918.831 1147.31 919.242 1147.52 919.57C1147.73 919.898 1148.03 920.123 1148.36 920.206H1150.57V944.692H1113.98C1113.95 944.359 1113.83 944.05 1113.64 943.814C1113.45 943.579 1113.21 943.432 1112.94 943.396H1101.89C1101.55 943.466 1101.25 943.686 1101.03 944.015C1100.81 944.345 1100.68 944.763 1100.68 945.196C1100.68 945.628 1100.81 946.047 1101.03 946.377C1101.25 946.706 1101.55 946.926 1101.89 946.995H1103V972.189H1065.8C1065.67 972.089 1065.51 972.036 1065.35 972.033H1054.29C1053.96 972.117 1053.67 972.341 1053.45 972.67C1053.24 972.998 1053.13 973.409 1053.13 973.833C1053.13 974.257 1053.24 974.668 1053.45 974.996C1053.67 975.324 1053.96 975.549 1054.29 975.632H1055.39V999.626H1018.68C1018.6 999.389 1018.47 999.187 1018.3 999.042C1018.13 998.898 1017.93 998.817 1017.73 998.81H1006.67C1006.34 998.894 1006.05 999.119 1005.83 999.447C1005.62 999.775 1005.51 1000.19 1005.51 1000.61C1005.51 1001.03 1005.62 1001.44 1005.83 1001.77C1006.05 1002.1 1006.34 1002.33 1006.67 1002.41H1007.77V1028.98H1257.91V889.818H1207.01Z" fill="#3F3D56"/>
<path opacity="0.1" d="M1266.44 384.966C1265.35 383.137 1264.11 381.456 1262.75 379.951C1262.38 379.542 1262.09 379.029 1261.9 378.453C1261.71 377.877 1261.63 377.254 1261.66 376.632C1261.7 376.01 1261.84 375.406 1262.09 374.868C1262.34 374.331 1262.69 373.874 1263.1 373.533C1263.55 373.161 1264 372.765 1264.44 372.333C1269.6 367.355 1272.21 360.672 1270.26 357.397C1268.3 354.122 1262.52 355.514 1257.36 360.493C1256.76 361.055 1256.19 361.66 1255.65 362.304C1255.28 362.718 1254.85 363.021 1254.38 363.187C1253.91 363.353 1253.41 363.38 1252.93 363.263C1252.45 363.147 1252 362.892 1251.61 362.517C1251.22 362.143 1250.91 361.659 1250.69 361.104C1249.97 359.3 1249.11 357.581 1248.15 355.97C1243.55 348.292 1237.39 344.417 1234.37 347.32C1231.35 350.223 1232.62 358.813 1237.21 366.515C1238.1 368.02 1239.1 369.425 1240.19 370.714C1240.54 371.157 1240.82 371.7 1240.98 372.301C1241.14 372.901 1241.19 373.542 1241.12 374.171C1241.05 374.8 1240.87 375.4 1240.59 375.923C1240.3 376.446 1239.93 376.876 1239.49 377.18C1233.81 381.295 1230.61 387.498 1232.21 391.061C1233.82 394.624 1239.7 394.18 1245.33 390.077C1246.2 389.435 1247.04 388.726 1247.84 387.953C1248.22 387.588 1248.66 387.335 1249.13 387.211C1249.59 387.088 1250.07 387.098 1250.54 387.24C1251 387.383 1251.43 387.654 1251.8 388.035C1252.17 388.416 1252.46 388.896 1252.67 389.441C1253.43 391.568 1254.39 393.58 1255.5 395.439C1260.09 403.117 1266.27 406.992 1269.28 404.089C1272.3 401.186 1271.03 392.656 1266.44 384.966Z" fill="#6C63FF"/>
<path opacity="0.1" d="M1454.85 634.643C1455.92 632.79 1456.83 630.8 1457.56 628.705C1457.76 628.136 1458.06 627.633 1458.44 627.237C1458.82 626.84 1459.27 626.561 1459.74 626.421C1460.22 626.282 1460.72 626.285 1461.2 626.432C1461.67 626.578 1462.12 626.864 1462.49 627.265C1462.91 627.697 1463.34 628.117 1463.79 628.537C1469.04 633.336 1474.85 634.535 1476.74 631.236C1478.63 627.937 1475.91 621.303 1470.65 616.48C1470.02 615.912 1469.39 615.396 1468.76 614.932C1468.34 614.611 1467.99 614.17 1467.73 613.646C1467.47 613.122 1467.3 612.528 1467.25 611.911C1467.2 611.294 1467.27 610.671 1467.44 610.09C1467.61 609.509 1467.88 608.986 1468.24 608.562C1469.39 607.161 1470.43 605.626 1471.36 603.979C1475.81 596.169 1476.93 587.556 1473.87 584.784C1470.8 582.013 1464.69 585.984 1460.24 593.842C1459.37 595.358 1458.6 596.963 1457.94 598.641C1457.71 599.205 1457.38 599.694 1456.98 600.067C1456.57 600.44 1456.11 600.688 1455.61 600.789C1455.12 600.891 1454.61 600.844 1454.13 600.652C1453.66 600.46 1453.22 600.129 1452.86 599.684V599.684C1448.14 594.058 1442.46 591.922 1440.28 594.886C1438.09 597.849 1440.12 604.879 1444.86 610.482C1445.59 611.346 1446.37 612.147 1447.19 612.881C1447.58 613.235 1447.89 613.693 1448.12 614.222C1448.35 614.752 1448.48 615.339 1448.51 615.941C1448.53 616.544 1448.45 617.146 1448.27 617.704C1448.09 618.262 1447.82 618.762 1447.47 619.167C1446.08 620.745 1444.83 622.511 1443.75 624.434C1439.3 632.244 1438.18 640.858 1441.25 643.629C1444.33 646.4 1450.4 642.465 1454.85 634.643Z" fill="#6C63FF"/>
<path d="M948.807 990.436C949.041 990.057 949.253 989.656 949.44 989.237L945.015 988.313H949.8C950.286 986.969 950.538 985.508 950.537 984.03C950.539 982.718 950.34 981.418 949.951 980.203L943.53 984.426L949.45 978.907C948.893 977.697 948.145 976.644 947.254 975.815C946.364 974.986 945.348 974.398 944.271 974.088C943.193 973.777 942.077 973.751 940.991 974.01C939.905 974.27 938.873 974.809 937.959 975.596C937.044 976.382 936.266 977.399 935.674 978.582C935.082 979.766 934.688 981.091 934.516 982.476C934.344 983.86 934.399 985.275 934.676 986.632C934.953 987.989 935.446 989.259 936.126 990.364C935.759 990.939 935.442 991.563 935.181 992.224L940.92 996.015L934.793 993.4C934.366 995.011 934.261 996.732 934.489 998.408C934.717 1000.08 935.27 1001.66 936.098 1003C935.159 1004.51 934.574 1006.32 934.41 1008.24C934.246 1010.15 934.51 1012.08 935.172 1013.81C935.833 1015.54 936.866 1017 938.151 1018.02C939.436 1019.05 940.922 1019.59 942.438 1019.59C943.954 1019.59 945.44 1019.05 946.725 1018.02C948.01 1017 949.043 1015.54 949.704 1013.81C950.366 1012.08 950.63 1010.15 950.466 1008.24C950.302 1006.32 949.717 1004.51 948.778 1003C949.899 1001.19 950.508 998.965 950.508 996.669C950.508 994.373 949.899 992.143 948.778 990.34L948.807 990.436Z" fill="#6C63FF"/>
<path opacity="0.1" d="M934.396 996.759C934.396 999.057 935.005 1001.29 936.126 1003.09C935.187 1004.6 934.602 1006.42 934.438 1008.33C934.274 1010.24 934.538 1012.18 935.2 1013.91C935.862 1015.64 936.894 1017.1 938.179 1018.12C939.464 1019.14 940.95 1019.68 942.466 1019.68C943.983 1019.68 945.469 1019.14 946.754 1018.12C948.039 1017.1 949.071 1015.64 949.733 1013.91C950.394 1012.18 950.658 1010.24 950.495 1008.33C950.331 1006.42 949.746 1004.6 948.807 1003.09C949.894 1001.39 934.396 995.607 934.396 996.759Z" fill="black"/>
</g>
<defs>
<linearGradient id="paint0_linear" x1="-4462.71" y1="3078.03" x2="-4428.67" y2="3078.03" gradientUnits="userSpaceOnUse">
<stop stop-color="#808080" stop-opacity="0.25"/>
<stop offset="0.54" stop-color="#808080" stop-opacity="0.12"/>
<stop offset="1" stop-color="#808080" stop-opacity="0.1"/>
</linearGradient>
<linearGradient id="paint1_linear" x1="64521.4" y1="175158" x2="64521.4" y2="122309" gradientUnits="userSpaceOnUse">
<stop stop-color="#808080" stop-opacity="0.25"/>
<stop offset="0.54" stop-color="#808080" stop-opacity="0.12"/>
<stop offset="1" stop-color="#808080" stop-opacity="0.1"/>
</linearGradient>
<clipPath id="clip0">
<rect width="1440" height="1001" fill="white"/>
</clipPath>
</defs>
</svg>
